<svg width="1000" height="150" viewBox="0 0 1220 198" fill="none" xmlns="http://www.w3.org/2000/svg">
<path d="M33.0052 46.7561H30.2056V77.6934H33.0052V46.7561Z" fill="#DDDDDD"/>
<path d="M135.137 60.9316H132.338V77.6938H135.137V60.9316Z" fill="#DDDDDD"/>
<path d="M237.234 46.7561H234.434V77.6934H237.234V46.7561Z" fill="#DDDDDD"/>
<path d="M339.33 60.9316H336.531V77.6938H339.33V60.9316Z" fill="#DDDDDD"/>
<path d="M441.428 46.7561H438.628V77.6934H441.428V46.7561Z" fill="#DDDDDD"/>
<path d="M543.525 60.9316H540.726V77.6938H543.525V60.9316Z" fill="#DDDDDD"/>
<path d="M645.622 46.7561H642.822V77.6934H645.622V46.7561Z" fill="#DDDDDD"/>
<path d="M747.719 60.9316H744.919V77.6938H747.719V60.9316Z" fill="#DDDDDD"/>
<path d="M849.816 46.7561H847.017V77.6934H849.816V46.7561Z" fill="#DDDDDD"/>
<path d="M951.948 60.9316H949.148V77.6938H951.948V60.9316Z" fill="#DDDDDD"/>
<path d="M1054.04 46.7561H1051.24V77.6934H1054.04V46.7561Z" fill="#DDDDDD"/>
<path d="M1156.14 60.9316H1153.34V77.6938H1156.14V60.9316Z" fill="#DDDDDD"/>
<path opacity="0.46" d="M1187.24 122.704H32.3194C14.4587 122.704 0 117.112 0 110.204C0 103.296 14.4587 97.7036 32.3194 97.7036H1187.24C1205.1 97.7036 1219.56 103.296 1219.56 110.204C1219.56 117.112 1205.1 122.704 1187.24 122.704Z" fill="url(#paint0_linear_819_346)"/>
<path d="M0.543457 108.248C0.543457 102.73 13.4074 98.2476 29.3191 98.2476H1184.24C1200.12 98.2476 1213.02 102.718 1213.02 108.248C1213.02 113.765 1200.15 118.248 1184.24 118.248H29.3191C13.4429 118.248 0.543457 113.777 0.543457 108.248Z" fill="#E8E8E8"/>
<path d="M1 109C1 103.483 5.3113 99 10.644 99H300.356C305.677 99 310 103.47 310 109C310 114.517 305.689 119 300.356 119H10.644C5.32318 119 1 114.53 1 109Z" fill="url(#paint1_linear_819_346)"/>
<mask id="mask0_819_346" style="mask-type:luminance" maskUnits="userSpaceOnUse" x="1" y="98" width="309" height="20">
<path d="M1 108C1 102.483 5.39647 98 10.8345 98H300.165C305.591 98 310 102.47 310 108C310 113.517 305.604 118 300.165 118H10.8345C5.40858 118 1 113.53 1 108Z" fill="white"/>
</mask>
<g mask="url(#mask0_819_346)">
<g style="mix-blend-mode:color-dodge" opacity="0.21">
<path d="M105.242 92.6827L80.3086 76.5862L-19.4239 140.972L5.50924 157.069L105.242 92.6827Z" fill="white"/>
</g>
<g style="mix-blend-mode:color-dodge" opacity="0.21">
<path d="M203.368 92.6817L178.435 76.5852L78.7021 140.971L103.635 157.068L203.368 92.6817Z" fill="white"/>
</g>
<g style="mix-blend-mode:color-dodge" opacity="0.21">
<path d="M301.469 92.6651L276.536 76.5686L176.804 140.955L201.737 157.051L301.469 92.6651Z" fill="white"/>
</g>
<g style="mix-blend-mode:multiply" opacity="0.53">
<path d="M904.672 116.824C904.672 121.949 901.447 126.616 896.238 129.956C891.028 133.32 883.835 135.401 875.896 135.401H29.3191C13.4429 135.401 0.543457 127.097 0.543457 116.824C0.543457 116.115 0.61433 115.406 0.720644 114.719C2.35079 123.962 14.5415 131.169 29.3191 131.169H875.896C883.835 131.169 891.028 129.087 896.238 125.724C900.703 122.841 903.715 118.998 904.495 114.719C904.601 115.406 904.672 116.115 904.672 116.824Z" fill="url(#paint2_linear_819_346)"/>
</g>
<g style="mix-blend-mode:color-dodge" opacity="0.21">
<path d="M324.924 110H27.0762C25.9271 110 25 108.214 25 106C25 103.786 25.9271 102 27.0762 102H324.924C326.073 102 327 103.786 327 106C327 108.214 326.073 110 324.924 110Z" fill="white"/>
</g>
</g>
<path style="mix-blend-mode:multiply" d="M280.46 198C320.479 198 352.92 166.917 352.92 128.573C352.92 90.2297 320.479 59.1462 280.46 59.1462C240.441 59.1462 208 90.2297 208 128.573C208 166.917 240.441 198 280.46 198Z" fill="url(#paint3_radial_819_346)"/>
<path d="M334.517 142.056C353.489 123.084 353.489 92.324 334.517 73.352C315.545 54.38 284.785 54.38 265.813 73.352C246.841 92.324 246.841 123.084 265.813 142.056C284.785 161.028 315.545 161.028 334.517 142.056Z" fill="white"/>
<path d="M329.428 136.967C345.59 120.805 345.59 94.6025 329.428 78.4412C313.267 62.2798 287.064 62.2798 270.903 78.4412C254.741 94.6025 254.741 120.805 270.903 136.967C287.064 153.128 313.267 153.128 329.428 136.967Z" fill="#E8E8E8"/>
<path d="M337.232 112.757C339.992 92.3153 325.658 73.5068 305.217 70.7466C284.776 67.9865 265.967 82.3199 263.207 102.761C260.447 123.202 274.78 142.011 295.222 144.771C315.663 147.531 334.471 133.198 337.232 112.757Z" fill="url(#paint4_linear_819_346)"/>
<path d="M300.175 140.911C318.516 140.911 333.385 126.043 333.385 107.701C333.385 89.3602 318.516 74.4917 300.175 74.4917C281.834 74.4917 266.965 89.3602 266.965 107.701C266.965 126.043 281.834 140.911 300.175 140.911Z" fill="url(#paint5_linear_819_346)"/>
<g style="mix-blend-mode:color-dodge">
<path d="M288.248 121.839C287.271 121.839 286.449 121.042 286.449 120.039V92.2531C286.449 91.2764 287.246 90.4539 288.248 90.4539C289.225 90.4539 290.047 91.2507 290.047 92.2531V120.039C290.047 121.016 289.251 121.839 288.248 121.839Z" fill="white"/>
<path d="M300.175 121.839C299.198 121.839 298.375 121.042 298.375 120.039V92.2531C298.375 91.2764 299.172 90.4539 300.175 90.4539C301.151 90.4539 301.974 91.2507 301.974 92.2531V120.039C301.974 121.016 301.177 121.839 300.175 121.839Z" fill="white"/>
<path d="M312.101 121.839C311.124 121.839 310.302 121.042 310.302 120.039V92.2531C310.302 91.2764 311.099 90.4539 312.101 90.4539C313.078 90.4539 313.9 91.2507 313.9 92.2531V120.039C313.9 121.016 313.104 121.839 312.101 121.839Z" fill="white"/>
</g>
<path opacity="0.23" d="M300.202 74.5176C281.849 74.5176 266.992 89.3746 266.992 107.727C266.992 126.08 281.849 140.911 300.202 140.911C318.555 140.911 333.412 126.054 333.412 107.727C333.412 89.4003 318.529 74.5176 300.202 74.5176ZM300.202 138.11C283.417 138.11 269.794 124.486 269.794 107.727C269.794 90.9682 283.417 77.3194 300.202 77.3194C316.987 77.3194 330.584 90.9425 330.584 107.727C330.584 124.512 316.987 138.11 300.202 138.11Z" fill="white"/>
<path d="M22.619 14C22.619 14.7467 22.6924 15.4333 22.839 16.06C22.9857 16.6867 23.1924 17.2267 23.459 17.68C23.739 18.1333 24.0724 18.4867 24.459 18.74C24.8457 18.98 25.279 19.1 25.759 19.1C26.239 19.1 26.6657 18.98 27.039 18.74C27.4257 18.4867 27.7524 18.1333 28.019 17.68C28.299 17.2267 28.5124 16.6867 28.659 16.06C28.8057 15.4333 28.879 14.7467 28.879 14C28.879 13.2533 28.8057 12.5667 28.659 11.94C28.5124 11.3133 28.299 10.7733 28.019 10.32C27.7524 9.86667 27.4257 9.52 27.039 9.28C26.6657 9.02667 26.239 8.9 25.759 8.9C25.279 8.9 24.8457 9.02667 24.459 9.28C24.0724 9.52 23.739 9.86667 23.459 10.32C23.1924 10.7733 22.9857 11.3133 22.839 11.94C22.6924 12.5667 22.619 13.2533 22.619 14ZM20.299 14C20.299 12.5467 20.5257 11.28 20.979 10.2C21.4457 9.12 22.0857 8.28 22.899 7.68C23.7257 7.08 24.679 6.78 25.759 6.78C26.8524 6.78 27.8057 7.08 28.619 7.68C29.4324 8.28 30.0657 9.12 30.519 10.2C30.9724 11.28 31.199 12.5467 31.199 14C31.199 15.4533 30.9724 16.72 30.519 17.8C30.0657 18.88 29.4324 19.72 28.619 20.32C27.8057 20.92 26.8524 21.22 25.759 21.22C24.679 21.22 23.7257 20.92 22.899 20.32C22.0857 19.72 21.4457 18.88 20.979 17.8C20.5257 16.72 20.299 15.4533 20.299 14ZM32.599 10.12C32.599 9.49333 32.739 8.92667 33.019 8.42C33.3124 7.9 33.719 7.48667 34.239 7.18C34.759 6.87333 35.3457 6.72 35.999 6.72C36.679 6.72 37.2724 6.87333 37.779 7.18C38.299 7.48667 38.699 7.9 38.979 8.42C39.2724 8.92667 39.419 9.49333 39.419 10.12C39.419 10.7467 39.2724 11.32 38.979 11.84C38.699 12.3467 38.299 12.7533 37.779 13.06C37.2724 13.3667 36.679 13.52 35.999 13.52C35.3457 13.52 34.759 13.3667 34.239 13.06C33.719 12.7533 33.3124 12.3467 33.019 11.84C32.739 11.32 32.599 10.7467 32.599 10.12ZM34.459 10.12C34.459 10.4133 34.519 10.6933 34.639 10.96C34.7724 11.2133 34.9524 11.42 35.179 11.58C35.419 11.7267 35.6924 11.8 35.999 11.8C36.3324 11.8 36.6124 11.7267 36.839 11.58C37.0657 11.42 37.2457 11.2133 37.379 10.96C37.5124 10.6933 37.579 10.4133 37.579 10.12C37.579 9.81333 37.5124 9.53333 37.379 9.28C37.2457 9.02667 37.0657 8.82667 36.839 8.68C36.6124 8.53333 36.3324 8.46 35.999 8.46C35.6924 8.46 35.419 8.53333 35.179 8.68C34.9524 8.82667 34.7724 9.02667 34.639 9.28C34.519 9.53333 34.459 9.81333 34.459 10.12ZM40.959 17.86C40.959 17.2333 41.099 16.6667 41.379 16.16C41.6724 15.64 42.079 15.2267 42.599 14.92C43.119 14.6133 43.7057 14.46 44.359 14.46C45.039 14.46 45.6324 14.6133 46.139 14.92C46.6457 15.2267 47.0457 15.64 47.339 16.16C47.6324 16.6667 47.779 17.2333 47.779 17.86C47.779 18.4867 47.6324 19.06 47.339 19.58C47.0457 20.1 46.6457 20.5133 46.139 20.82C45.6324 21.1133 45.039 21.26 44.359 21.26C43.7057 21.26 43.119 21.1133 42.599 20.82C42.079 20.5133 41.6724 20.1 41.379 19.58C41.099 19.06 40.959 18.4867 40.959 17.86ZM42.799 17.86C42.799 18.1533 42.859 18.4333 42.979 18.7C43.1124 18.9533 43.2924 19.16 43.519 19.32C43.759 19.4667 44.039 19.54 44.359 19.54C44.6924 19.54 44.9724 19.4667 45.199 19.32C45.4257 19.16 45.599 18.9533 45.719 18.7C45.8524 18.4333 45.919 18.1533 45.919 17.86C45.919 17.5667 45.8524 17.2933 45.719 17.04C45.599 16.7867 45.4257 16.5867 45.199 16.44C44.9724 16.28 44.6924 16.2 44.359 16.2C44.039 16.2 43.759 16.28 43.519 16.44C43.2924 16.5867 43.1124 16.7867 42.979 17.04C42.859 17.28 42.799 17.5533 42.799 17.86ZM43.959 7H46.119L36.419 21H34.259L43.959 7Z" fill="black"/>
<path d="M542.681 16.44C542.681 17.2533 542.534 17.96 542.241 18.56C541.961 19.16 541.574 19.66 541.081 20.06C540.587 20.4467 540.034 20.74 539.421 20.94C538.807 21.1267 538.161 21.22 537.481 21.22C536.627 21.22 535.867 21.1067 535.201 20.88C534.547 20.6533 533.981 20.3533 533.501 19.98C533.021 19.5933 532.601 19.18 532.241 18.74L533.641 17.02C533.921 17.3933 534.247 17.7333 534.621 18.04C534.994 18.3333 535.401 18.5733 535.841 18.76C536.294 18.9333 536.741 19.02 537.181 19.02C537.807 19.02 538.341 18.9133 538.781 18.7C539.221 18.4733 539.554 18.16 539.781 17.76C540.021 17.3467 540.141 16.86 540.141 16.3C540.141 15.7267 540.007 15.24 539.741 14.84C539.474 14.44 539.114 14.1333 538.661 13.92C538.207 13.7067 537.714 13.6 537.181 13.6C536.767 13.6 536.361 13.6333 535.961 13.7C535.574 13.7533 535.174 13.86 534.761 14.02C534.361 14.18 533.921 14.4067 533.441 14.7L535.341 7H542.541V9.08H537.121L536.241 12.28C536.587 12.1067 536.947 11.98 537.321 11.9C537.694 11.82 538.074 11.78 538.461 11.78C539.234 11.78 539.941 11.9733 540.581 12.36C541.221 12.7467 541.727 13.2867 542.101 13.98C542.487 14.6733 542.681 15.4933 542.681 16.44ZM546.594 14C546.594 14.7467 546.667 15.4333 546.814 16.06C546.961 16.6867 547.167 17.2267 547.434 17.68C547.714 18.1333 548.047 18.4867 548.434 18.74C548.821 18.98 549.254 19.1 549.734 19.1C550.214 19.1 550.641 18.98 551.014 18.74C551.401 18.4867 551.727 18.1333 551.994 17.68C552.274 17.2267 552.487 16.6867 552.634 16.06C552.781 15.4333 552.854 14.7467 552.854 14C552.854 13.2533 552.781 12.5667 552.634 11.94C552.487 11.3133 552.274 10.7733 551.994 10.32C551.727 9.86667 551.401 9.52 551.014 9.28C550.641 9.02667 550.214 8.9 549.734 8.9C549.254 8.9 548.821 9.02667 548.434 9.28C548.047 9.52 547.714 9.86667 547.434 10.32C547.167 10.7733 546.961 11.3133 546.814 11.94C546.667 12.5667 546.594 13.2533 546.594 14ZM544.274 14C544.274 12.5467 544.501 11.28 544.954 10.2C545.421 9.12 546.061 8.28 546.874 7.68C547.701 7.08 548.654 6.78 549.734 6.78C550.827 6.78 551.781 7.08 552.594 7.68C553.407 8.28 554.041 9.12 554.494 10.2C554.947 11.28 555.174 12.5467 555.174 14C555.174 15.4533 554.947 16.72 554.494 17.8C554.041 18.88 553.407 19.72 552.594 20.32C551.781 20.92 550.827 21.22 549.734 21.22C548.654 21.22 547.701 20.92 546.874 20.32C546.061 19.72 545.421 18.88 544.954 17.8C544.501 16.72 544.274 15.4533 544.274 14ZM556.574 10.12C556.574 9.49333 556.714 8.92667 556.994 8.42C557.287 7.9 557.694 7.48667 558.214 7.18C558.734 6.87333 559.321 6.72 559.974 6.72C560.654 6.72 561.247 6.87333 561.754 7.18C562.274 7.48667 562.674 7.9 562.954 8.42C563.247 8.92667 563.394 9.49333 563.394 10.12C563.394 10.7467 563.247 11.32 562.954 11.84C562.674 12.3467 562.274 12.7533 561.754 13.06C561.247 13.3667 560.654 13.52 559.974 13.52C559.321 13.52 558.734 13.3667 558.214 13.06C557.694 12.7533 557.287 12.3467 556.994 11.84C556.714 11.32 556.574 10.7467 556.574 10.12ZM558.434 10.12C558.434 10.4133 558.494 10.6933 558.614 10.96C558.747 11.2133 558.927 11.42 559.154 11.58C559.394 11.7267 559.667 11.8 559.974 11.8C560.307 11.8 560.587 11.7267 560.814 11.58C561.041 11.42 561.221 11.2133 561.354 10.96C561.487 10.6933 561.554 10.4133 561.554 10.12C561.554 9.81333 561.487 9.53333 561.354 9.28C561.221 9.02667 561.041 8.82667 560.814 8.68C560.587 8.53333 560.307 8.46 559.974 8.46C559.667 8.46 559.394 8.53333 559.154 8.68C558.927 8.82667 558.747 9.02667 558.614 9.28C558.494 9.53333 558.434 9.81333 558.434 10.12ZM564.934 17.86C564.934 17.2333 565.074 16.6667 565.354 16.16C565.647 15.64 566.054 15.2267 566.574 14.92C567.094 14.6133 567.681 14.46 568.334 14.46C569.014 14.46 569.607 14.6133 570.114 14.92C570.621 15.2267 571.021 15.64 571.314 16.16C571.607 16.6667 571.754 17.2333 571.754 17.86C571.754 18.4867 571.607 19.06 571.314 19.58C571.021 20.1 570.621 20.5133 570.114 20.82C569.607 21.1133 569.014 21.26 568.334 21.26C567.681 21.26 567.094 21.1133 566.574 20.82C566.054 20.5133 565.647 20.1 565.354 19.58C565.074 19.06 564.934 18.4867 564.934 17.86ZM566.774 17.86C566.774 18.1533 566.834 18.4333 566.954 18.7C567.087 18.9533 567.267 19.16 567.494 19.32C567.734 19.4667 568.014 19.54 568.334 19.54C568.667 19.54 568.947 19.4667 569.174 19.32C569.401 19.16 569.574 18.9533 569.694 18.7C569.827 18.4333 569.894 18.1533 569.894 17.86C569.894 17.5667 569.827 17.2933 569.694 17.04C569.574 16.7867 569.401 16.5867 569.174 16.44C568.947 16.28 568.667 16.2 568.334 16.2C568.014 16.2 567.734 16.28 567.494 16.44C567.267 16.5867 567.087 16.7867 566.954 17.04C566.834 17.28 566.774 17.5533 566.774 17.86ZM567.934 7H570.094L560.394 21H558.234L567.934 7Z" fill="black"/>
<path d="M827.719 9.22V7H838.179L831.439 21H828.919L834.659 9.22H827.719ZM849.372 16.44C849.372 17.2533 849.226 17.96 848.932 18.56C848.652 19.16 848.266 19.66 847.772 20.06C847.279 20.4467 846.726 20.74 846.112 20.94C845.499 21.1267 844.852 21.22 844.172 21.22C843.319 21.22 842.559 21.1067 841.892 20.88C841.239 20.6533 840.672 20.3533 840.192 19.98C839.712 19.5933 839.292 19.18 838.932 18.74L840.332 17.02C840.612 17.3933 840.939 17.7333 841.312 18.04C841.686 18.3333 842.092 18.5733 842.532 18.76C842.986 18.9333 843.432 19.02 843.872 19.02C844.499 19.02 845.032 18.9133 845.472 18.7C845.912 18.4733 846.246 18.16 846.472 17.76C846.712 17.3467 846.832 16.86 846.832 16.3C846.832 15.7267 846.699 15.24 846.432 14.84C846.166 14.44 845.806 14.1333 845.352 13.92C844.899 13.7067 844.406 13.6 843.872 13.6C843.459 13.6 843.052 13.6333 842.652 13.7C842.266 13.7533 841.866 13.86 841.452 14.02C841.052 14.18 840.612 14.4067 840.132 14.7L842.032 7H849.232V9.08H843.812L842.932 12.28C843.279 12.1067 843.639 11.98 844.012 11.9C844.386 11.82 844.766 11.78 845.152 11.78C845.926 11.78 846.632 11.9733 847.272 12.36C847.912 12.7467 848.419 13.2867 848.792 13.98C849.179 14.6733 849.372 15.4933 849.372 16.44ZM850.766 10.12C850.766 9.49333 850.906 8.92667 851.186 8.42C851.479 7.9 851.886 7.48667 852.406 7.18C852.926 6.87333 853.513 6.72 854.166 6.72C854.846 6.72 855.439 6.87333 855.946 7.18C856.466 7.48667 856.866 7.9 857.146 8.42C857.439 8.92667 857.586 9.49333 857.586 10.12C857.586 10.7467 857.439 11.32 857.146 11.84C856.866 12.3467 856.466 12.7533 855.946 13.06C855.439 13.3667 854.846 13.52 854.166 13.52C853.513 13.52 852.926 13.3667 852.406 13.06C851.886 12.7533 851.479 12.3467 851.186 11.84C850.906 11.32 850.766 10.7467 850.766 10.12ZM852.626 10.12C852.626 10.4133 852.686 10.6933 852.806 10.96C852.939 11.2133 853.119 11.42 853.346 11.58C853.586 11.7267 853.859 11.8 854.166 11.8C854.499 11.8 854.779 11.7267 855.006 11.58C855.233 11.42 855.413 11.2133 855.546 10.96C855.679 10.6933 855.746 10.4133 855.746 10.12C855.746 9.81333 855.679 9.53333 855.546 9.28C855.413 9.02667 855.233 8.82667 855.006 8.68C854.779 8.53333 854.499 8.46 854.166 8.46C853.859 8.46 853.586 8.53333 853.346 8.68C853.119 8.82667 852.939 9.02667 852.806 9.28C852.686 9.53333 852.626 9.81333 852.626 10.12ZM859.126 17.86C859.126 17.2333 859.266 16.6667 859.546 16.16C859.839 15.64 860.246 15.2267 860.766 14.92C861.286 14.6133 861.873 14.46 862.526 14.46C863.206 14.46 863.799 14.6133 864.306 14.92C864.813 15.2267 865.213 15.64 865.506 16.16C865.799 16.6667 865.946 17.2333 865.946 17.86C865.946 18.4867 865.799 19.06 865.506 19.58C865.213 20.1 864.813 20.5133 864.306 20.82C863.799 21.1133 863.206 21.26 862.526 21.26C861.873 21.26 861.286 21.1133 860.766 20.82C860.246 20.5133 859.839 20.1 859.546 19.58C859.266 19.06 859.126 18.4867 859.126 17.86ZM860.966 17.86C860.966 18.1533 861.026 18.4333 861.146 18.7C861.279 18.9533 861.459 19.16 861.686 19.32C861.926 19.4667 862.206 19.54 862.526 19.54C862.859 19.54 863.139 19.4667 863.366 19.32C863.593 19.16 863.766 18.9533 863.886 18.7C864.019 18.4333 864.086 18.1533 864.086 17.86C864.086 17.5667 864.019 17.2933 863.886 17.04C863.766 16.7867 863.593 16.5867 863.366 16.44C863.139 16.28 862.859 16.2 862.526 16.2C862.206 16.2 861.926 16.28 861.686 16.44C861.459 16.5867 861.279 16.7867 861.146 17.04C861.026 17.28 860.966 17.5533 860.966 17.86ZM862.126 7H864.286L854.586 21H852.426L862.126 7Z" fill="black"/>
<path d="M274.4 22L280.76 15.36C281.12 14.9733 281.427 14.6133 281.68 14.28C281.933 13.9467 282.127 13.6133 282.26 13.28C282.393 12.9467 282.46 12.6 282.46 12.24C282.46 11.9867 282.413 11.74 282.32 11.5C282.227 11.26 282.087 11.0467 281.9 10.86C281.713 10.6733 281.487 10.5267 281.22 10.42C280.953 10.3 280.647 10.24 280.3 10.24C279.807 10.24 279.38 10.36 279.02 10.6C278.673 10.8267 278.4 11.1533 278.2 11.58C278.013 12.0067 277.92 12.5 277.92 13.06H275.12C275.12 12.06 275.32 11.16 275.72 10.36C276.12 9.56 276.707 8.92667 277.48 8.46C278.267 7.98 279.227 7.74 280.36 7.74C281.2 7.74 281.933 7.87333 282.56 8.14C283.2 8.39333 283.727 8.73333 284.14 9.16C284.567 9.57333 284.88 10.0333 285.08 10.54C285.293 11.0467 285.4 11.5533 285.4 12.06C285.4 12.8067 285.22 13.5067 284.86 14.16C284.5 14.8133 284.027 15.4067 283.44 15.94L279.8 19.38H285.66V22H274.4ZM298.178 17.48C298.178 18.3067 298.025 19.02 297.718 19.62C297.411 20.22 296.998 20.7133 296.478 21.1C295.958 21.4867 295.378 21.7733 294.738 21.96C294.098 22.1467 293.438 22.24 292.758 22.24C291.905 22.24 291.138 22.14 290.458 21.94C289.791 21.74 289.205 21.48 288.698 21.16C288.191 20.8267 287.745 20.4667 287.358 20.08L288.698 17.86C289.031 18.1933 289.391 18.4933 289.778 18.76C290.178 19.0267 290.591 19.24 291.018 19.4C291.445 19.5467 291.851 19.62 292.238 19.62C292.838 19.62 293.345 19.5267 293.758 19.34C294.185 19.1533 294.511 18.8867 294.738 18.54C294.965 18.18 295.078 17.74 295.078 17.22C295.078 16.7133 294.945 16.2867 294.678 15.94C294.425 15.5933 294.078 15.3333 293.638 15.16C293.211 14.9733 292.745 14.88 292.238 14.88C291.865 14.88 291.471 14.9133 291.058 14.98C290.645 15.0333 290.218 15.1333 289.778 15.28C289.351 15.4133 288.898 15.6133 288.418 15.88L290.338 8H297.958V10.48H292.458L291.618 13.36C291.965 13.1733 292.331 13.0467 292.718 12.98C293.118 12.9 293.525 12.86 293.938 12.86C294.698 12.86 295.398 13.0467 296.038 13.42C296.678 13.7933 297.191 14.3267 297.578 15.02C297.978 15.7 298.178 16.52 298.178 17.48ZM299.5 11.22C299.5 10.5533 299.654 9.95333 299.96 9.42C300.28 8.88667 300.714 8.46667 301.26 8.16C301.807 7.84 302.42 7.68 303.1 7.68C303.794 7.68 304.407 7.84 304.94 8.16C305.487 8.46667 305.914 8.88667 306.22 9.42C306.527 9.95333 306.68 10.5533 306.68 11.22C306.68 11.86 306.527 12.4533 306.22 13C305.914 13.5333 305.487 13.96 304.94 14.28C304.407 14.6 303.794 14.76 303.1 14.76C302.42 14.76 301.807 14.6 301.26 14.28C300.714 13.96 300.28 13.5333 299.96 13C299.654 12.4533 299.5 11.86 299.5 11.22ZM301.66 11.22C301.66 11.4867 301.72 11.74 301.84 11.98C301.96 12.2067 302.127 12.3867 302.34 12.52C302.554 12.6533 302.807 12.72 303.1 12.72C303.394 12.72 303.64 12.6533 303.84 12.52C304.054 12.3867 304.22 12.2067 304.34 11.98C304.46 11.74 304.52 11.4867 304.52 11.22C304.52 10.94 304.46 10.6867 304.34 10.46C304.22 10.2333 304.054 10.0533 303.84 9.92C303.64 9.77333 303.394 9.7 303.1 9.7C302.807 9.7 302.554 9.77333 302.34 9.92C302.127 10.0533 301.96 10.2333 301.84 10.46C301.72 10.6867 301.66 10.94 301.66 11.22ZM308.6 18.78C308.6 18.1267 308.754 17.5333 309.06 17C309.38 16.4533 309.814 16.0267 310.36 15.72C310.907 15.4 311.52 15.24 312.2 15.24C312.894 15.24 313.507 15.4 314.04 15.72C314.587 16.0267 315.014 16.4533 315.32 17C315.627 17.5333 315.78 18.1267 315.78 18.78C315.78 19.4333 315.627 20.0267 315.32 20.56C315.014 21.0933 314.587 21.52 314.04 21.84C313.507 22.16 312.894 22.32 312.2 22.32C311.52 22.32 310.907 22.16 310.36 21.84C309.814 21.52 309.38 21.0933 309.06 20.56C308.754 20.0267 308.6 19.4333 308.6 18.78ZM310.76 18.78C310.76 19.0467 310.82 19.3 310.94 19.54C311.06 19.7667 311.227 19.9467 311.44 20.08C311.654 20.2133 311.907 20.28 312.2 20.28C312.494 20.28 312.74 20.2133 312.94 20.08C313.154 19.9467 313.32 19.7667 313.44 19.54C313.56 19.3 313.62 19.0467 313.62 18.78C313.62 18.5 313.56 18.2467 313.44 18.02C313.32 17.7933 313.154 17.6133 312.94 17.48C312.74 17.3467 312.494 17.28 312.2 17.28C311.907 17.28 311.654 17.3467 311.44 17.48C311.227 17.6133 311.06 17.7933 310.94 18.02C310.82 18.2467 310.76 18.5 310.76 18.78ZM311.44 8H314.06L303.86 22H301.24L311.44 8Z" fill="#367588"/>
<path d="M1137.5 10.28V8.04L1143.08 6.78V21H1140.76V9.38L1137.5 10.28ZM1148.59 14C1148.59 14.7467 1148.67 15.4333 1148.81 16.06C1148.96 16.6867 1149.17 17.2267 1149.43 17.68C1149.71 18.1333 1150.05 18.4867 1150.43 18.74C1150.82 18.98 1151.25 19.1 1151.73 19.1C1152.21 19.1 1152.64 18.98 1153.01 18.74C1153.4 18.4867 1153.73 18.1333 1153.99 17.68C1154.27 17.2267 1154.49 16.6867 1154.63 16.06C1154.78 15.4333 1154.85 14.7467 1154.85 14C1154.85 13.2533 1154.78 12.5667 1154.63 11.94C1154.49 11.3133 1154.27 10.7733 1153.99 10.32C1153.73 9.86667 1153.4 9.52 1153.01 9.28C1152.64 9.02667 1152.21 8.9 1151.73 8.9C1151.25 8.9 1150.82 9.02667 1150.43 9.28C1150.05 9.52 1149.71 9.86667 1149.43 10.32C1149.17 10.7733 1148.96 11.3133 1148.81 11.94C1148.67 12.5667 1148.59 13.2533 1148.59 14ZM1146.27 14C1146.27 12.5467 1146.5 11.28 1146.95 10.2C1147.42 9.12 1148.06 8.28 1148.87 7.68C1149.7 7.08 1150.65 6.78 1151.73 6.78C1152.83 6.78 1153.78 7.08 1154.59 7.68C1155.41 8.28 1156.04 9.12 1156.49 10.2C1156.95 11.28 1157.17 12.5467 1157.17 14C1157.17 15.4533 1156.95 16.72 1156.49 17.8C1156.04 18.88 1155.41 19.72 1154.59 20.32C1153.78 20.92 1152.83 21.22 1151.73 21.22C1150.65 21.22 1149.7 20.92 1148.87 20.32C1148.06 19.72 1147.42 18.88 1146.95 17.8C1146.5 16.72 1146.27 15.4533 1146.27 14ZM1161.09 14C1161.09 14.7467 1161.17 15.4333 1161.31 16.06C1161.46 16.6867 1161.67 17.2267 1161.93 17.68C1162.21 18.1333 1162.55 18.4867 1162.93 18.74C1163.32 18.98 1163.75 19.1 1164.23 19.1C1164.71 19.1 1165.14 18.98 1165.51 18.74C1165.9 18.4867 1166.23 18.1333 1166.49 17.68C1166.77 17.2267 1166.99 16.6867 1167.13 16.06C1167.28 15.4333 1167.35 14.7467 1167.35 14C1167.35 13.2533 1167.28 12.5667 1167.13 11.94C1166.99 11.3133 1166.77 10.7733 1166.49 10.32C1166.23 9.86667 1165.9 9.52 1165.51 9.28C1165.14 9.02667 1164.71 8.9 1164.23 8.9C1163.75 8.9 1163.32 9.02667 1162.93 9.28C1162.55 9.52 1162.21 9.86667 1161.93 10.32C1161.67 10.7733 1161.46 11.3133 1161.31 11.94C1161.17 12.5667 1161.09 13.2533 1161.09 14ZM1158.77 14C1158.77 12.5467 1159 11.28 1159.45 10.2C1159.92 9.12 1160.56 8.28 1161.37 7.68C1162.2 7.08 1163.15 6.78 1164.23 6.78C1165.33 6.78 1166.28 7.08 1167.09 7.68C1167.91 8.28 1168.54 9.12 1168.99 10.2C1169.45 11.28 1169.67 12.5467 1169.67 14C1169.67 15.4533 1169.45 16.72 1168.99 17.8C1168.54 18.88 1167.91 19.72 1167.09 20.32C1166.28 20.92 1165.33 21.22 1164.23 21.22C1163.15 21.22 1162.2 20.92 1161.37 20.32C1160.56 19.72 1159.92 18.88 1159.45 17.8C1159 16.72 1158.77 15.4533 1158.77 14ZM1171.07 10.12C1171.07 9.49333 1171.21 8.92667 1171.49 8.42C1171.79 7.9 1172.19 7.48667 1172.71 7.18C1173.23 6.87333 1173.82 6.72 1174.47 6.72C1175.15 6.72 1175.75 6.87333 1176.25 7.18C1176.77 7.48667 1177.17 7.9 1177.45 8.42C1177.75 8.92667 1177.89 9.49333 1177.89 10.12C1177.89 10.7467 1177.75 11.32 1177.45 11.84C1177.17 12.3467 1176.77 12.7533 1176.25 13.06C1175.75 13.3667 1175.15 13.52 1174.47 13.52C1173.82 13.52 1173.23 13.3667 1172.71 13.06C1172.19 12.7533 1171.79 12.3467 1171.49 11.84C1171.21 11.32 1171.07 10.7467 1171.07 10.12ZM1172.93 10.12C1172.93 10.4133 1172.99 10.6933 1173.11 10.96C1173.25 11.2133 1173.43 11.42 1173.65 11.58C1173.89 11.7267 1174.17 11.8 1174.47 11.8C1174.81 11.8 1175.09 11.7267 1175.31 11.58C1175.54 11.42 1175.72 11.2133 1175.85 10.96C1175.99 10.6933 1176.05 10.4133 1176.05 10.12C1176.05 9.81333 1175.99 9.53333 1175.85 9.28C1175.72 9.02667 1175.54 8.82667 1175.31 8.68C1175.09 8.53333 1174.81 8.46 1174.47 8.46C1174.17 8.46 1173.89 8.53333 1173.65 8.68C1173.43 8.82667 1173.25 9.02667 1173.11 9.28C1172.99 9.53333 1172.93 9.81333 1172.93 10.12ZM1179.43 17.86C1179.43 17.2333 1179.57 16.6667 1179.85 16.16C1180.15 15.64 1180.55 15.2267 1181.07 14.92C1181.59 14.6133 1182.18 14.46 1182.83 14.46C1183.51 14.46 1184.11 14.6133 1184.61 14.92C1185.12 15.2267 1185.52 15.64 1185.81 16.16C1186.11 16.6667 1186.25 17.2333 1186.25 17.86C1186.25 18.4867 1186.11 19.06 1185.81 19.58C1185.52 20.1 1185.12 20.5133 1184.61 20.82C1184.11 21.1133 1183.51 21.26 1182.83 21.26C1182.18 21.26 1181.59 21.1133 1181.07 20.82C1180.55 20.5133 1180.15 20.1 1179.85 19.58C1179.57 19.06 1179.43 18.4867 1179.43 17.86ZM1181.27 17.86C1181.27 18.1533 1181.33 18.4333 1181.45 18.7C1181.59 18.9533 1181.77 19.16 1181.99 19.32C1182.23 19.4667 1182.51 19.54 1182.83 19.54C1183.17 19.54 1183.45 19.4667 1183.67 19.32C1183.9 19.16 1184.07 18.9533 1184.19 18.7C1184.33 18.4333 1184.39 18.1533 1184.39 17.86C1184.39 17.5667 1184.33 17.2933 1184.19 17.04C1184.07 16.7867 1183.9 16.5867 1183.67 16.44C1183.45 16.28 1183.17 16.2 1182.83 16.2C1182.51 16.2 1182.23 16.28 1181.99 16.44C1181.77 16.5867 1181.59 16.7867 1181.45 17.04C1181.33 17.28 1181.27 17.5533 1181.27 17.86ZM1182.43 7H1184.59L1174.89 21H1172.73L1182.43 7Z" fill="black"/>
<defs>
<linearGradient id="paint0_linear_819_346" x1="604.997" y1="80.8862" x2="606.231" y2="131.441" gradientUnits="userSpaceOnUse">
<stop stop-color="#B3B3B3"/>
<stop offset="0.24" stop-color="#B6B6B6"/>
<stop offset="0.46" stop-color="#C2C2C2"/>
<stop offset="0.68" stop-color="#D5D5D5"/>
<stop offset="0.9" stop-color="#F0F0F0"/>
<stop offset="0.99" stop-color="white"/>
</linearGradient>
<linearGradient id="paint1_linear_819_346" x1="154.651" y1="94.0369" x2="156.298" y2="120.963" gradientUnits="userSpaceOnUse">
<stop stop-color="#367588"/>
<stop offset="1" stop-color="#367588"/>
</linearGradient>
<linearGradient id="paint2_linear_819_346" x1="451.35" y1="103.074" x2="452.815" y2="141.702" gradientUnits="userSpaceOnUse">
<stop stop-color="#367588"/>
<stop offset="1" stop-color="#1E9F76"/>
</linearGradient>
<radialGradient id="paint3_radial_819_346" cx="0" cy="0" r="1" gradientUnits="userSpaceOnUse" gradientTransform="translate(277.286 128.307) scale(72.2189 69.4197)">
<stop stop-color="#4D4D4D"/>
<stop offset="0.05" stop-color="#5C5C5C"/>
<stop offset="0.22" stop-color="#8D8D8D"/>
<stop offset="0.39" stop-color="#B6B6B6"/>
<stop offset="0.56" stop-color="#D5D5D5"/>
<stop offset="0.72" stop-color="#ECECEC"/>
<stop offset="0.87" stop-color="#FAFAFA"/>
<stop offset="1" stop-color="white"/>
</radialGradient>
<linearGradient id="paint4_linear_819_346" x1="297.391" y1="84.2716" x2="299.283" y2="138.044" gradientUnits="userSpaceOnUse">
<stop stop-color="#367588"/>
<stop offset="1" stop-color="#28A9D0"/>
</linearGradient>
<linearGradient id="paint5_linear_819_346" x1="298.633" y1="81.2776" x2="301.435" y2="128.83" gradientUnits="userSpaceOnUse">
<stop stop-color="#367588"/>
<stop offset="1" stop-color="#367588"/>
</linearGradient>
</defs>
</svg>
