<svg width="1000" height="150" viewBox="0 0 1220 195" fill="none" xmlns="http://www.w3.org/2000/svg">
<path d="M33.0052 46.7562H30.2056V77.6935H33.0052V46.7562Z" fill="#DDDDDD"/>
<path d="M135.137 60.9318H132.338V77.6939H135.137V60.9318Z" fill="#DDDDDD"/>
<path d="M237.234 46.7562H234.434V77.6935H237.234V46.7562Z" fill="#DDDDDD"/>
<path d="M339.33 60.9318H336.531V77.6939H339.33V60.9318Z" fill="#DDDDDD"/>
<path d="M441.428 46.7562H438.628V77.6935H441.428V46.7562Z" fill="#DDDDDD"/>
<path d="M543.525 60.9318H540.726V77.6939H543.525V60.9318Z" fill="#DDDDDD"/>
<path d="M645.622 46.7562H642.822V77.6935H645.622V46.7562Z" fill="#DDDDDD"/>
<path d="M747.719 60.9318H744.919V77.6939H747.719V60.9318Z" fill="#DDDDDD"/>
<path d="M849.816 46.7562H847.017V77.6935H849.816V46.7562Z" fill="#DDDDDD"/>
<path d="M951.948 60.9318H949.148V77.6939H951.948V60.9318Z" fill="#DDDDDD"/>
<path d="M1054.04 46.7562H1051.24V77.6935H1054.04V46.7562Z" fill="#DDDDDD"/>
<path d="M1156.14 60.9318H1153.34V77.6939H1156.14V60.9318Z" fill="#DDDDDD"/>
<path opacity="0.46" d="M1187.24 122.704H32.3194C14.4587 122.704 0 117.112 0 110.204C0 103.296 14.4587 97.7037 32.3194 97.7037H1187.24C1205.1 97.7037 1219.56 103.296 1219.56 110.204C1219.56 117.112 1205.1 122.704 1187.24 122.704Z" fill="url(#paint0_linear_907_2)"/>
<path d="M0.543457 108.248C0.543457 102.73 13.4074 98.2476 29.3191 98.2476H1184.24C1200.12 98.2476 1213.02 102.718 1213.02 108.248C1213.02 113.765 1200.15 118.248 1184.24 118.248H29.3191C13.4429 118.248 0.543457 113.777 0.543457 108.248Z" fill="#E8E8E8"/>
<path d="M1 109C1 103.483 13.0409 99 27.9345 99H837.065C851.926 99 864 103.47 864 109C864 114.517 851.959 119 837.065 119H27.9345C13.0741 119 1 114.53 1 109Z" fill="url(#paint1_linear_907_2)"/>
<mask id="mask0_907_2" style="mask-type:luminance" maskUnits="userSpaceOnUse" x="0" y="98" width="905" height="21">
<path d="M0.543457 108.248C0.543457 102.73 13.4074 98.2476 29.3191 98.2476H875.896C891.773 98.2476 904.672 102.718 904.672 108.248C904.672 113.765 891.808 118.248 875.896 118.248H29.3191C13.4429 118.248 0.543457 113.777 0.543457 108.248Z" fill="white"/>
</mask>
<g mask="url(#mask0_907_2)">
<g style="mix-blend-mode:color-dodge" opacity="0.21">
<path d="M105.242 92.6828L80.3086 76.5863L-19.4239 140.972L5.50924 157.069L105.242 92.6828Z" fill="white"/>
</g>
<g style="mix-blend-mode:color-dodge" opacity="0.21">
<path d="M203.368 92.6819L178.435 76.5854L78.7021 140.971L103.635 157.068L203.368 92.6819Z" fill="white"/>
</g>
<g style="mix-blend-mode:color-dodge" opacity="0.21">
<path d="M301.469 92.6653L276.536 76.5687L176.804 140.955L201.737 157.051L301.469 92.6653Z" fill="white"/>
</g>
<g style="mix-blend-mode:color-dodge" opacity="0.21">
<path d="M399.596 92.688L374.663 76.5915L274.931 140.978L299.864 157.074L399.596 92.688Z" fill="white"/>
</g>
<g style="mix-blend-mode:color-dodge" opacity="0.21">
<path d="M497.724 92.6873L472.791 76.5908L373.058 140.977L397.991 157.073L497.724 92.6873Z" fill="white"/>
</g>
<g style="mix-blend-mode:color-dodge" opacity="0.21">
<path d="M595.852 92.6873L570.919 76.5908L471.186 140.977L496.12 157.073L595.852 92.6873Z" fill="white"/>
</g>
<g style="mix-blend-mode:color-dodge" opacity="0.21">
<path d="M695.762 92.6943L670.829 76.5978L571.096 140.984L596.029 157.08L695.762 92.6943Z" fill="white"/>
</g>
<g style="mix-blend-mode:color-dodge" opacity="0.21">
<path d="M795.612 92.6631L770.679 76.5666L670.947 140.953L695.88 157.049L795.612 92.6631Z" fill="white"/>
</g>
<g style="mix-blend-mode:color-dodge" opacity="0.21">
<path d="M895.524 92.6709L870.591 76.5743L770.858 140.96L795.791 157.057L895.524 92.6709Z" fill="white"/>
</g>
<g style="mix-blend-mode:multiply" opacity="0.53">
<path d="M904.672 116.824C904.672 121.949 901.447 126.616 896.238 129.957C891.028 133.32 883.835 135.402 875.896 135.402H29.3191C13.4429 135.402 0.543457 127.097 0.543457 116.824C0.543457 116.115 0.61433 115.406 0.720644 114.72C2.35079 123.962 14.5415 131.169 29.3191 131.169H875.896C883.835 131.169 891.028 129.087 896.238 125.724C900.703 122.841 903.715 118.998 904.495 114.72C904.601 115.406 904.672 116.115 904.672 116.824Z" fill="url(#paint2_linear_907_2)"/>
</g>
<g style="mix-blend-mode:color-dodge" opacity="0.21">
<path d="M839.043 109.663H30.703C27.5845 109.663 25.0684 108.039 25.0684 106.026C25.0684 104.012 27.5845 102.388 30.703 102.388H839.043C842.161 102.388 844.677 104.012 844.677 106.026C844.677 108.039 842.161 109.663 839.043 109.663Z" fill="white"/>
</g>
</g>
<path style="mix-blend-mode:multiply" d="M830.46 195C870.479 195 902.92 163.917 902.92 125.573C902.92 87.2298 870.479 56.1463 830.46 56.1463C790.441 56.1463 758 87.2298 758 125.573C758 163.917 790.441 195 830.46 195Z" fill="url(#paint3_radial_907_2)"/>
<path d="M884.517 139.056C903.489 120.084 903.489 89.3239 884.517 70.3519C865.545 51.3799 834.785 51.3799 815.813 70.3519C796.841 89.3239 796.841 120.084 815.813 139.056C834.785 158.028 865.545 158.028 884.517 139.056Z" fill="white"/>
<path d="M879.428 133.966C895.59 117.805 895.59 91.6024 879.428 75.441C863.267 59.2797 837.064 59.2797 820.903 75.441C804.741 91.6024 804.741 117.805 820.903 133.966C837.064 150.128 863.267 150.128 879.428 133.966Z" fill="#E8E8E8"/>
<path d="M887.232 109.757C889.992 89.3154 875.658 70.5069 855.217 67.7468C834.776 64.9866 815.967 79.32 813.207 99.7613C810.447 120.203 824.78 139.011 845.222 141.771C865.663 144.531 884.471 130.198 887.232 109.757Z" fill="url(#paint4_linear_907_2)"/>
<path d="M850.175 137.911C868.516 137.911 883.385 123.043 883.385 104.701C883.385 86.3601 868.516 71.4916 850.175 71.4916C831.834 71.4916 816.965 86.3601 816.965 104.701C816.965 123.043 831.834 137.911 850.175 137.911Z" fill="url(#paint5_linear_907_2)"/>
<g style="mix-blend-mode:color-dodge">
<path d="M838.248 118.839C837.271 118.839 836.449 118.042 836.449 117.039V89.2531C836.449 88.2763 837.246 87.4538 838.248 87.4538C839.225 87.4538 840.047 88.2506 840.047 89.2531V117.039C840.047 118.016 839.251 118.839 838.248 118.839Z" fill="white"/>
<path d="M850.175 118.838C849.198 118.838 848.375 118.042 848.375 117.039V89.253C848.375 88.2763 849.172 87.4537 850.175 87.4537C851.151 87.4537 851.974 88.2506 851.974 89.253V117.039C851.974 118.016 851.177 118.838 850.175 118.838Z" fill="white"/>
<path d="M862.101 118.838C861.124 118.838 860.302 118.042 860.302 117.039V89.253C860.302 88.2763 861.099 87.4537 862.101 87.4537C863.078 87.4537 863.9 88.2506 863.9 89.253V117.039C863.9 118.016 863.104 118.838 862.101 118.838Z" fill="white"/>
</g>
<path opacity="0.23" d="M850.202 71.5175C831.849 71.5175 816.992 86.3744 816.992 104.727C816.992 123.08 831.849 137.911 850.202 137.911C868.555 137.911 883.412 123.054 883.412 104.727C883.412 86.4002 868.529 71.5175 850.202 71.5175ZM850.202 135.11C833.417 135.11 819.794 121.486 819.794 104.727C819.794 87.9681 833.417 74.3192 850.202 74.3192C866.987 74.3192 880.584 87.9424 880.584 104.727C880.584 121.512 866.987 135.11 850.202 135.11Z" fill="white"/>
<path d="M22.619 14C22.619 14.7467 22.6924 15.4333 22.839 16.06C22.9857 16.6867 23.1924 17.2267 23.459 17.68C23.739 18.1333 24.0724 18.4867 24.459 18.74C24.8457 18.98 25.279 19.1 25.759 19.1C26.239 19.1 26.6657 18.98 27.039 18.74C27.4257 18.4867 27.7524 18.1333 28.019 17.68C28.299 17.2267 28.5124 16.6867 28.659 16.06C28.8057 15.4333 28.879 14.7467 28.879 14C28.879 13.2533 28.8057 12.5667 28.659 11.94C28.5124 11.3133 28.299 10.7733 28.019 10.32C27.7524 9.86667 27.4257 9.52 27.039 9.28C26.6657 9.02667 26.239 8.9 25.759 8.9C25.279 8.9 24.8457 9.02667 24.459 9.28C24.0724 9.52 23.739 9.86667 23.459 10.32C23.1924 10.7733 22.9857 11.3133 22.839 11.94C22.6924 12.5667 22.619 13.2533 22.619 14ZM20.299 14C20.299 12.5467 20.5257 11.28 20.979 10.2C21.4457 9.12 22.0857 8.28 22.899 7.68C23.7257 7.08 24.679 6.78 25.759 6.78C26.8524 6.78 27.8057 7.08 28.619 7.68C29.4324 8.28 30.0657 9.12 30.519 10.2C30.9724 11.28 31.199 12.5467 31.199 14C31.199 15.4533 30.9724 16.72 30.519 17.8C30.0657 18.88 29.4324 19.72 28.619 20.32C27.8057 20.92 26.8524 21.22 25.759 21.22C24.679 21.22 23.7257 20.92 22.899 20.32C22.0857 19.72 21.4457 18.88 20.979 17.8C20.5257 16.72 20.299 15.4533 20.299 14ZM32.599 10.12C32.599 9.49333 32.739 8.92667 33.019 8.42C33.3124 7.9 33.719 7.48667 34.239 7.18C34.759 6.87333 35.3457 6.72 35.999 6.72C36.679 6.72 37.2724 6.87333 37.779 7.18C38.299 7.48667 38.699 7.9 38.979 8.42C39.2724 8.92667 39.419 9.49333 39.419 10.12C39.419 10.7467 39.2724 11.32 38.979 11.84C38.699 12.3467 38.299 12.7533 37.779 13.06C37.2724 13.3667 36.679 13.52 35.999 13.52C35.3457 13.52 34.759 13.3667 34.239 13.06C33.719 12.7533 33.3124 12.3467 33.019 11.84C32.739 11.32 32.599 10.7467 32.599 10.12ZM34.459 10.12C34.459 10.4133 34.519 10.6933 34.639 10.96C34.7724 11.2133 34.9524 11.42 35.179 11.58C35.419 11.7267 35.6924 11.8 35.999 11.8C36.3324 11.8 36.6124 11.7267 36.839 11.58C37.0657 11.42 37.2457 11.2133 37.379 10.96C37.5124 10.6933 37.579 10.4133 37.579 10.12C37.579 9.81333 37.5124 9.53333 37.379 9.28C37.2457 9.02667 37.0657 8.82667 36.839 8.68C36.6124 8.53333 36.3324 8.46 35.999 8.46C35.6924 8.46 35.419 8.53333 35.179 8.68C34.9524 8.82667 34.7724 9.02667 34.639 9.28C34.519 9.53333 34.459 9.81333 34.459 10.12ZM40.959 17.86C40.959 17.2333 41.099 16.6667 41.379 16.16C41.6724 15.64 42.079 15.2267 42.599 14.92C43.119 14.6133 43.7057 14.46 44.359 14.46C45.039 14.46 45.6324 14.6133 46.139 14.92C46.6457 15.2267 47.0457 15.64 47.339 16.16C47.6324 16.6667 47.779 17.2333 47.779 17.86C47.779 18.4867 47.6324 19.06 47.339 19.58C47.0457 20.1 46.6457 20.5133 46.139 20.82C45.6324 21.1133 45.039 21.26 44.359 21.26C43.7057 21.26 43.119 21.1133 42.599 20.82C42.079 20.5133 41.6724 20.1 41.379 19.58C41.099 19.06 40.959 18.4867 40.959 17.86ZM42.799 17.86C42.799 18.1533 42.859 18.4333 42.979 18.7C43.1124 18.9533 43.2924 19.16 43.519 19.32C43.759 19.4667 44.039 19.54 44.359 19.54C44.6924 19.54 44.9724 19.4667 45.199 19.32C45.4257 19.16 45.599 18.9533 45.719 18.7C45.8524 18.4333 45.919 18.1533 45.919 17.86C45.919 17.5667 45.8524 17.2933 45.719 17.04C45.599 16.7867 45.4257 16.5867 45.199 16.44C44.9724 16.28 44.6924 16.2 44.359 16.2C44.039 16.2 43.759 16.28 43.519 16.44C43.2924 16.5867 43.1124 16.7867 42.979 17.04C42.859 17.28 42.799 17.5533 42.799 17.86ZM43.959 7H46.119L36.419 21H34.259L43.959 7Z" fill="black"/>
<path d="M542.681 16.44C542.681 17.2533 542.534 17.96 542.241 18.56C541.961 19.16 541.574 19.66 541.081 20.06C540.587 20.4467 540.034 20.74 539.421 20.94C538.807 21.1267 538.161 21.22 537.481 21.22C536.627 21.22 535.867 21.1067 535.201 20.88C534.547 20.6533 533.981 20.3533 533.501 19.98C533.021 19.5933 532.601 19.18 532.241 18.74L533.641 17.02C533.921 17.3933 534.247 17.7333 534.621 18.04C534.994 18.3333 535.401 18.5733 535.841 18.76C536.294 18.9333 536.741 19.02 537.181 19.02C537.807 19.02 538.341 18.9133 538.781 18.7C539.221 18.4733 539.554 18.16 539.781 17.76C540.021 17.3467 540.141 16.86 540.141 16.3C540.141 15.7267 540.007 15.24 539.741 14.84C539.474 14.44 539.114 14.1333 538.661 13.92C538.207 13.7067 537.714 13.6 537.181 13.6C536.767 13.6 536.361 13.6333 535.961 13.7C535.574 13.7533 535.174 13.86 534.761 14.02C534.361 14.18 533.921 14.4067 533.441 14.7L535.341 7H542.541V9.08H537.121L536.241 12.28C536.587 12.1067 536.947 11.98 537.321 11.9C537.694 11.82 538.074 11.78 538.461 11.78C539.234 11.78 539.941 11.9733 540.581 12.36C541.221 12.7467 541.727 13.2867 542.101 13.98C542.487 14.6733 542.681 15.4933 542.681 16.44ZM546.594 14C546.594 14.7467 546.667 15.4333 546.814 16.06C546.961 16.6867 547.167 17.2267 547.434 17.68C547.714 18.1333 548.047 18.4867 548.434 18.74C548.821 18.98 549.254 19.1 549.734 19.1C550.214 19.1 550.641 18.98 551.014 18.74C551.401 18.4867 551.727 18.1333 551.994 17.68C552.274 17.2267 552.487 16.6867 552.634 16.06C552.781 15.4333 552.854 14.7467 552.854 14C552.854 13.2533 552.781 12.5667 552.634 11.94C552.487 11.3133 552.274 10.7733 551.994 10.32C551.727 9.86667 551.401 9.52 551.014 9.28C550.641 9.02667 550.214 8.9 549.734 8.9C549.254 8.9 548.821 9.02667 548.434 9.28C548.047 9.52 547.714 9.86667 547.434 10.32C547.167 10.7733 546.961 11.3133 546.814 11.94C546.667 12.5667 546.594 13.2533 546.594 14ZM544.274 14C544.274 12.5467 544.501 11.28 544.954 10.2C545.421 9.12 546.061 8.28 546.874 7.68C547.701 7.08 548.654 6.78 549.734 6.78C550.827 6.78 551.781 7.08 552.594 7.68C553.407 8.28 554.041 9.12 554.494 10.2C554.947 11.28 555.174 12.5467 555.174 14C555.174 15.4533 554.947 16.72 554.494 17.8C554.041 18.88 553.407 19.72 552.594 20.32C551.781 20.92 550.827 21.22 549.734 21.22C548.654 21.22 547.701 20.92 546.874 20.32C546.061 19.72 545.421 18.88 544.954 17.8C544.501 16.72 544.274 15.4533 544.274 14ZM556.574 10.12C556.574 9.49333 556.714 8.92667 556.994 8.42C557.287 7.9 557.694 7.48667 558.214 7.18C558.734 6.87333 559.321 6.72 559.974 6.72C560.654 6.72 561.247 6.87333 561.754 7.18C562.274 7.48667 562.674 7.9 562.954 8.42C563.247 8.92667 563.394 9.49333 563.394 10.12C563.394 10.7467 563.247 11.32 562.954 11.84C562.674 12.3467 562.274 12.7533 561.754 13.06C561.247 13.3667 560.654 13.52 559.974 13.52C559.321 13.52 558.734 13.3667 558.214 13.06C557.694 12.7533 557.287 12.3467 556.994 11.84C556.714 11.32 556.574 10.7467 556.574 10.12ZM558.434 10.12C558.434 10.4133 558.494 10.6933 558.614 10.96C558.747 11.2133 558.927 11.42 559.154 11.58C559.394 11.7267 559.667 11.8 559.974 11.8C560.307 11.8 560.587 11.7267 560.814 11.58C561.041 11.42 561.221 11.2133 561.354 10.96C561.487 10.6933 561.554 10.4133 561.554 10.12C561.554 9.81333 561.487 9.53333 561.354 9.28C561.221 9.02667 561.041 8.82667 560.814 8.68C560.587 8.53333 560.307 8.46 559.974 8.46C559.667 8.46 559.394 8.53333 559.154 8.68C558.927 8.82667 558.747 9.02667 558.614 9.28C558.494 9.53333 558.434 9.81333 558.434 10.12ZM564.934 17.86C564.934 17.2333 565.074 16.6667 565.354 16.16C565.647 15.64 566.054 15.2267 566.574 14.92C567.094 14.6133 567.681 14.46 568.334 14.46C569.014 14.46 569.607 14.6133 570.114 14.92C570.621 15.2267 571.021 15.64 571.314 16.16C571.607 16.6667 571.754 17.2333 571.754 17.86C571.754 18.4867 571.607 19.06 571.314 19.58C571.021 20.1 570.621 20.5133 570.114 20.82C569.607 21.1133 569.014 21.26 568.334 21.26C567.681 21.26 567.094 21.1133 566.574 20.82C566.054 20.5133 565.647 20.1 565.354 19.58C565.074 19.06 564.934 18.4867 564.934 17.86ZM566.774 17.86C566.774 18.1533 566.834 18.4333 566.954 18.7C567.087 18.9533 567.267 19.16 567.494 19.32C567.734 19.4667 568.014 19.54 568.334 19.54C568.667 19.54 568.947 19.4667 569.174 19.32C569.401 19.16 569.574 18.9533 569.694 18.7C569.827 18.4333 569.894 18.1533 569.894 17.86C569.894 17.5667 569.827 17.2933 569.694 17.04C569.574 16.7867 569.401 16.5867 569.174 16.44C568.947 16.28 568.667 16.2 568.334 16.2C568.014 16.2 567.734 16.28 567.494 16.44C567.267 16.5867 567.087 16.7867 566.954 17.04C566.834 17.28 566.774 17.5533 566.774 17.86ZM567.934 7H570.094L560.394 21H558.234L567.934 7Z" fill="black"/>
<path d="M827.719 10.16V7H839.139L832.379 21H828.719L834.179 10.16H827.719ZM851.27 16.52C851.27 17.3467 851.103 18.06 850.77 18.66C850.45 19.26 850.01 19.7533 849.45 20.14C848.903 20.5267 848.297 20.8133 847.63 21C846.963 21.1733 846.29 21.26 845.61 21.26C844.757 21.26 843.983 21.1733 843.29 21C842.61 20.84 842.003 20.62 841.47 20.34C840.937 20.06 840.45 19.76 840.01 19.44L841.33 16.66C841.717 16.98 842.11 17.2533 842.51 17.48C842.923 17.6933 843.337 17.8667 843.75 18C844.163 18.12 844.537 18.18 844.87 18.18C845.443 18.18 845.93 18.1067 846.33 17.96C846.73 17.8133 847.037 17.5867 847.25 17.28C847.463 16.9733 847.57 16.6 847.57 16.16C847.57 15.6933 847.437 15.32 847.17 15.04C846.917 14.7467 846.583 14.5333 846.17 14.4C845.77 14.2667 845.337 14.2 844.87 14.2C844.51 14.2 844.11 14.2267 843.67 14.28C843.243 14.32 842.797 14.4067 842.33 14.54C841.877 14.66 841.41 14.84 840.93 15.08L842.89 7H850.97V9.92H845.37L844.57 12.42C844.943 12.2467 845.33 12.1267 845.73 12.06C846.143 11.98 846.57 11.94 847.01 11.94C847.757 11.94 848.45 12.12 849.09 12.48C849.743 12.84 850.27 13.36 850.67 14.04C851.07 14.72 851.27 15.5467 851.27 16.52ZM852.521 10.32C852.521 9.62667 852.681 9.00667 853.001 8.46C853.334 7.9 853.787 7.45333 854.361 7.12C854.934 6.78667 855.581 6.62 856.301 6.62C857.021 6.62 857.661 6.78667 858.221 7.12C858.794 7.45333 859.247 7.9 859.581 8.46C859.914 9.00667 860.081 9.62667 860.081 10.32C860.081 10.9867 859.914 11.6067 859.581 12.18C859.247 12.74 858.794 13.1867 858.221 13.52C857.661 13.84 857.021 14 856.301 14C855.581 14 854.934 13.84 854.361 13.52C853.787 13.1867 853.334 12.74 853.001 12.18C852.681 11.6067 852.521 10.9867 852.521 10.32ZM855.001 10.3C855.001 10.54 855.054 10.7667 855.161 10.98C855.281 11.18 855.434 11.34 855.621 11.46C855.821 11.58 856.041 11.64 856.281 11.64C856.547 11.64 856.774 11.58 856.961 11.46C857.161 11.34 857.314 11.18 857.421 10.98C857.527 10.7667 857.581 10.5467 857.581 10.32C857.581 10.0667 857.527 9.84 857.421 9.64C857.314 9.44 857.161 9.28 856.961 9.16C856.774 9.04 856.547 8.98 856.281 8.98C856.041 8.98 855.821 9.04 855.621 9.16C855.434 9.28 855.281 9.44 855.161 9.64C855.054 9.84 855.001 10.06 855.001 10.3ZM862.421 17.68C862.421 17 862.587 16.38 862.921 15.82C863.254 15.26 863.707 14.8133 864.281 14.48C864.854 14.1467 865.494 13.98 866.201 13.98C866.921 13.98 867.567 14.1467 868.141 14.48C868.714 14.8133 869.161 15.26 869.481 15.82C869.814 16.38 869.981 17 869.981 17.68C869.981 18.36 869.814 18.98 869.481 19.54C869.161 20.1 868.714 20.5467 868.141 20.88C867.567 21.2133 866.921 21.38 866.201 21.38C865.494 21.38 864.854 21.2133 864.281 20.88C863.707 20.5467 863.254 20.1 862.921 19.54C862.587 18.98 862.421 18.36 862.421 17.68ZM864.921 17.68C864.921 17.9067 864.974 18.1267 865.081 18.34C865.187 18.54 865.334 18.7 865.521 18.82C865.721 18.94 865.947 19 866.201 19C866.454 19 866.674 18.94 866.861 18.82C867.061 18.7 867.214 18.54 867.321 18.34C867.441 18.1267 867.501 17.9067 867.501 17.68C867.501 17.44 867.441 17.22 867.321 17.02C867.214 16.8067 867.061 16.64 866.861 16.52C866.674 16.4 866.454 16.34 866.201 16.34C865.947 16.34 865.721 16.4 865.521 16.52C865.334 16.64 865.187 16.8 865.081 17C864.974 17.2 864.921 17.4267 864.921 17.68ZM865.061 7H868.181L857.441 21H854.321L865.061 7Z" fill="#367588"/>
<path d="M274.4 22L280.88 15.18C281.213 14.82 281.5 14.4733 281.74 14.14C281.98 13.8067 282.16 13.4733 282.28 13.14C282.4 12.8067 282.46 12.4533 282.46 12.08C282.46 11.8133 282.407 11.5533 282.3 11.3C282.207 11.0333 282.053 10.7933 281.84 10.58C281.64 10.3667 281.393 10.2 281.1 10.08C280.807 9.94667 280.467 9.88 280.08 9.88C279.547 9.88 279.087 10.0067 278.7 10.26C278.313 10.5 278.013 10.8533 277.8 11.32C277.6 11.7867 277.5 12.3267 277.5 12.94H275.16C275.16 11.94 275.347 11.0533 275.72 10.28C276.107 9.49333 276.673 8.88 277.42 8.44C278.167 7.98667 279.067 7.76 280.12 7.76C280.933 7.76 281.64 7.89333 282.24 8.16C282.84 8.41333 283.333 8.74667 283.72 9.16C284.12 9.57333 284.42 10.0267 284.62 10.52C284.82 11.0133 284.92 11.4933 284.92 11.96C284.92 12.6933 284.74 13.4 284.38 14.08C284.02 14.76 283.553 15.3667 282.98 15.9L279.02 19.8H285.08V22H274.4ZM297.21 17.44C297.21 18.2533 297.064 18.96 296.77 19.56C296.49 20.16 296.104 20.66 295.61 21.06C295.117 21.4467 294.564 21.74 293.95 21.94C293.337 22.1267 292.69 22.22 292.01 22.22C291.157 22.22 290.397 22.1067 289.73 21.88C289.077 21.6533 288.51 21.3533 288.03 20.98C287.55 20.5933 287.13 20.18 286.77 19.74L288.17 18.02C288.45 18.3933 288.777 18.7333 289.15 19.04C289.524 19.3333 289.93 19.5733 290.37 19.76C290.824 19.9333 291.27 20.02 291.71 20.02C292.337 20.02 292.87 19.9133 293.31 19.7C293.75 19.4733 294.084 19.16 294.31 18.76C294.55 18.3467 294.67 17.86 294.67 17.3C294.67 16.7267 294.537 16.24 294.27 15.84C294.004 15.44 293.644 15.1333 293.19 14.92C292.737 14.7067 292.244 14.6 291.71 14.6C291.297 14.6 290.89 14.6333 290.49 14.7C290.104 14.7533 289.704 14.86 289.29 15.02C288.89 15.18 288.45 15.4067 287.97 15.7L289.87 8H297.07V10.08H291.65L290.77 13.28C291.117 13.1067 291.477 12.98 291.85 12.9C292.224 12.82 292.604 12.78 292.99 12.78C293.764 12.78 294.47 12.9733 295.11 13.36C295.75 13.7467 296.257 14.2867 296.63 14.98C297.017 15.6733 297.21 16.4933 297.21 17.44ZM298.604 11.12C298.604 10.4933 298.744 9.92667 299.024 9.42C299.317 8.9 299.724 8.48667 300.244 8.18C300.764 7.87333 301.351 7.72 302.004 7.72C302.684 7.72 303.277 7.87333 303.784 8.18C304.304 8.48667 304.704 8.9 304.984 9.42C305.277 9.92667 305.424 10.4933 305.424 11.12C305.424 11.7467 305.277 12.32 304.984 12.84C304.704 13.3467 304.304 13.7533 303.784 14.06C303.277 14.3667 302.684 14.52 302.004 14.52C301.351 14.52 300.764 14.3667 300.244 14.06C299.724 13.7533 299.317 13.3467 299.024 12.84C298.744 12.32 298.604 11.7467 298.604 11.12ZM300.464 11.12C300.464 11.4133 300.524 11.6933 300.644 11.96C300.777 12.2133 300.957 12.42 301.184 12.58C301.424 12.7267 301.697 12.8 302.004 12.8C302.337 12.8 302.617 12.7267 302.844 12.58C303.071 12.42 303.251 12.2133 303.384 11.96C303.517 11.6933 303.584 11.4133 303.584 11.12C303.584 10.8133 303.517 10.5333 303.384 10.28C303.251 10.0267 303.071 9.82667 302.844 9.68C302.617 9.53333 302.337 9.46 302.004 9.46C301.697 9.46 301.424 9.53333 301.184 9.68C300.957 9.82667 300.777 10.0267 300.644 10.28C300.524 10.5333 300.464 10.8133 300.464 11.12ZM306.964 18.86C306.964 18.2333 307.104 17.6667 307.384 17.16C307.677 16.64 308.084 16.2267 308.604 15.92C309.124 15.6133 309.711 15.46 310.364 15.46C311.044 15.46 311.637 15.6133 312.144 15.92C312.651 16.2267 313.051 16.64 313.344 17.16C313.637 17.6667 313.784 18.2333 313.784 18.86C313.784 19.4867 313.637 20.06 313.344 20.58C313.051 21.1 312.651 21.5133 312.144 21.82C311.637 22.1133 311.044 22.26 310.364 22.26C309.711 22.26 309.124 22.1133 308.604 21.82C308.084 21.5133 307.677 21.1 307.384 20.58C307.104 20.06 306.964 19.4867 306.964 18.86ZM308.804 18.86C308.804 19.1533 308.864 19.4333 308.984 19.7C309.117 19.9533 309.297 20.16 309.524 20.32C309.764 20.4667 310.044 20.54 310.364 20.54C310.697 20.54 310.977 20.4667 311.204 20.32C311.431 20.16 311.604 19.9533 311.724 19.7C311.857 19.4333 311.924 19.1533 311.924 18.86C311.924 18.5667 311.857 18.2933 311.724 18.04C311.604 17.7867 311.431 17.5867 311.204 17.44C310.977 17.28 310.697 17.2 310.364 17.2C310.044 17.2 309.764 17.28 309.524 17.44C309.297 17.5867 309.117 17.7867 308.984 18.04C308.864 18.28 308.804 18.5533 308.804 18.86ZM309.964 8H312.124L302.424 22H300.264L309.964 8Z" fill="black"/>
<path d="M1137.5 10.28V8.04L1143.08 6.78V21H1140.76V9.38L1137.5 10.28ZM1148.59 14C1148.59 14.7467 1148.67 15.4333 1148.81 16.06C1148.96 16.6867 1149.17 17.2267 1149.43 17.68C1149.71 18.1333 1150.05 18.4867 1150.43 18.74C1150.82 18.98 1151.25 19.1 1151.73 19.1C1152.21 19.1 1152.64 18.98 1153.01 18.74C1153.4 18.4867 1153.73 18.1333 1153.99 17.68C1154.27 17.2267 1154.49 16.6867 1154.63 16.06C1154.78 15.4333 1154.85 14.7467 1154.85 14C1154.85 13.2533 1154.78 12.5667 1154.63 11.94C1154.49 11.3133 1154.27 10.7733 1153.99 10.32C1153.73 9.86667 1153.4 9.52 1153.01 9.28C1152.64 9.02667 1152.21 8.9 1151.73 8.9C1151.25 8.9 1150.82 9.02667 1150.43 9.28C1150.05 9.52 1149.71 9.86667 1149.43 10.32C1149.17 10.7733 1148.96 11.3133 1148.81 11.94C1148.67 12.5667 1148.59 13.2533 1148.59 14ZM1146.27 14C1146.27 12.5467 1146.5 11.28 1146.95 10.2C1147.42 9.12 1148.06 8.28 1148.87 7.68C1149.7 7.08 1150.65 6.78 1151.73 6.78C1152.83 6.78 1153.78 7.08 1154.59 7.68C1155.41 8.28 1156.04 9.12 1156.49 10.2C1156.95 11.28 1157.17 12.5467 1157.17 14C1157.17 15.4533 1156.95 16.72 1156.49 17.8C1156.04 18.88 1155.41 19.72 1154.59 20.32C1153.78 20.92 1152.83 21.22 1151.73 21.22C1150.65 21.22 1149.7 20.92 1148.87 20.32C1148.06 19.72 1147.42 18.88 1146.95 17.8C1146.5 16.72 1146.27 15.4533 1146.27 14ZM1161.09 14C1161.09 14.7467 1161.17 15.4333 1161.31 16.06C1161.46 16.6867 1161.67 17.2267 1161.93 17.68C1162.21 18.1333 1162.55 18.4867 1162.93 18.74C1163.32 18.98 1163.75 19.1 1164.23 19.1C1164.71 19.1 1165.14 18.98 1165.51 18.74C1165.9 18.4867 1166.23 18.1333 1166.49 17.68C1166.77 17.2267 1166.99 16.6867 1167.13 16.06C1167.28 15.4333 1167.35 14.7467 1167.35 14C1167.35 13.2533 1167.28 12.5667 1167.13 11.94C1166.99 11.3133 1166.77 10.7733 1166.49 10.32C1166.23 9.86667 1165.9 9.52 1165.51 9.28C1165.14 9.02667 1164.71 8.9 1164.23 8.9C1163.75 8.9 1163.32 9.02667 1162.93 9.28C1162.55 9.52 1162.21 9.86667 1161.93 10.32C1161.67 10.7733 1161.46 11.3133 1161.31 11.94C1161.17 12.5667 1161.09 13.2533 1161.09 14ZM1158.77 14C1158.77 12.5467 1159 11.28 1159.45 10.2C1159.92 9.12 1160.56 8.28 1161.37 7.68C1162.2 7.08 1163.15 6.78 1164.23 6.78C1165.33 6.78 1166.28 7.08 1167.09 7.68C1167.91 8.28 1168.54 9.12 1168.99 10.2C1169.45 11.28 1169.67 12.5467 1169.67 14C1169.67 15.4533 1169.45 16.72 1168.99 17.8C1168.54 18.88 1167.91 19.72 1167.09 20.32C1166.28 20.92 1165.33 21.22 1164.23 21.22C1163.15 21.22 1162.2 20.92 1161.37 20.32C1160.56 19.72 1159.92 18.88 1159.45 17.8C1159 16.72 1158.77 15.4533 1158.77 14ZM1171.07 10.12C1171.07 9.49333 1171.21 8.92667 1171.49 8.42C1171.79 7.9 1172.19 7.48667 1172.71 7.18C1173.23 6.87333 1173.82 6.72 1174.47 6.72C1175.15 6.72 1175.75 6.87333 1176.25 7.18C1176.77 7.48667 1177.17 7.9 1177.45 8.42C1177.75 8.92667 1177.89 9.49333 1177.89 10.12C1177.89 10.7467 1177.75 11.32 1177.45 11.84C1177.17 12.3467 1176.77 12.7533 1176.25 13.06C1175.75 13.3667 1175.15 13.52 1174.47 13.52C1173.82 13.52 1173.23 13.3667 1172.71 13.06C1172.19 12.7533 1171.79 12.3467 1171.49 11.84C1171.21 11.32 1171.07 10.7467 1171.07 10.12ZM1172.93 10.12C1172.93 10.4133 1172.99 10.6933 1173.11 10.96C1173.25 11.2133 1173.43 11.42 1173.65 11.58C1173.89 11.7267 1174.17 11.8 1174.47 11.8C1174.81 11.8 1175.09 11.7267 1175.31 11.58C1175.54 11.42 1175.72 11.2133 1175.85 10.96C1175.99 10.6933 1176.05 10.4133 1176.05 10.12C1176.05 9.81333 1175.99 9.53333 1175.85 9.28C1175.72 9.02667 1175.54 8.82667 1175.31 8.68C1175.09 8.53333 1174.81 8.46 1174.47 8.46C1174.17 8.46 1173.89 8.53333 1173.65 8.68C1173.43 8.82667 1173.25 9.02667 1173.11 9.28C1172.99 9.53333 1172.93 9.81333 1172.93 10.12ZM1179.43 17.86C1179.43 17.2333 1179.57 16.6667 1179.85 16.16C1180.15 15.64 1180.55 15.2267 1181.07 14.92C1181.59 14.6133 1182.18 14.46 1182.83 14.46C1183.51 14.46 1184.11 14.6133 1184.61 14.92C1185.12 15.2267 1185.52 15.64 1185.81 16.16C1186.11 16.6667 1186.25 17.2333 1186.25 17.86C1186.25 18.4867 1186.11 19.06 1185.81 19.58C1185.52 20.1 1185.12 20.5133 1184.61 20.82C1184.11 21.1133 1183.51 21.26 1182.83 21.26C1182.18 21.26 1181.59 21.1133 1181.07 20.82C1180.55 20.5133 1180.15 20.1 1179.85 19.58C1179.57 19.06 1179.43 18.4867 1179.43 17.86ZM1181.27 17.86C1181.27 18.1533 1181.33 18.4333 1181.45 18.7C1181.59 18.9533 1181.77 19.16 1181.99 19.32C1182.23 19.4667 1182.51 19.54 1182.83 19.54C1183.17 19.54 1183.45 19.4667 1183.67 19.32C1183.9 19.16 1184.07 18.9533 1184.19 18.7C1184.33 18.4333 1184.39 18.1533 1184.39 17.86C1184.39 17.5667 1184.33 17.2933 1184.19 17.04C1184.07 16.7867 1183.9 16.5867 1183.67 16.44C1183.45 16.28 1183.17 16.2 1182.83 16.2C1182.51 16.2 1182.23 16.28 1181.99 16.44C1181.77 16.5867 1181.59 16.7867 1181.45 17.04C1181.33 17.28 1181.27 17.5533 1181.27 17.86ZM1182.43 7H1184.59L1174.89 21H1172.73L1182.43 7Z" fill="black"/>
<defs>
<linearGradient id="paint0_linear_907_2" x1="604.997" y1="80.8862" x2="606.231" y2="131.441" gradientUnits="userSpaceOnUse">
<stop stop-color="#B3B3B3"/>
<stop offset="0.24" stop-color="#B6B6B6"/>
<stop offset="0.46" stop-color="#C2C2C2"/>
<stop offset="0.68" stop-color="#D5D5D5"/>
<stop offset="0.9" stop-color="#F0F0F0"/>
<stop offset="0.99" stop-color="white"/>
</linearGradient>
<linearGradient id="paint1_linear_907_2" x1="430.128" y1="94.0369" x2="430.72" y2="121.051" gradientUnits="userSpaceOnUse">
<stop stop-color="#367588"/>
<stop offset="1" stop-color="#367588"/>
</linearGradient>
<linearGradient id="paint2_linear_907_2" x1="451.35" y1="103.074" x2="452.815" y2="141.702" gradientUnits="userSpaceOnUse">
<stop stop-color="#367588"/>
<stop offset="1" stop-color="#1E9F76"/>
</linearGradient>
<radialGradient id="paint3_radial_907_2" cx="0" cy="0" r="1" gradientUnits="userSpaceOnUse" gradientTransform="translate(827.286 125.307) scale(72.2189 69.4197)">
<stop stop-color="#4D4D4D"/>
<stop offset="0.05" stop-color="#5C5C5C"/>
<stop offset="0.22" stop-color="#8D8D8D"/>
<stop offset="0.39" stop-color="#B6B6B6"/>
<stop offset="0.56" stop-color="#D5D5D5"/>
<stop offset="0.72" stop-color="#ECECEC"/>
<stop offset="0.87" stop-color="#FAFAFA"/>
<stop offset="1" stop-color="white"/>
</radialGradient>
<linearGradient id="paint4_linear_907_2" x1="847.391" y1="81.2717" x2="849.283" y2="135.044" gradientUnits="userSpaceOnUse">
<stop stop-color="#367588"/>
<stop offset="1" stop-color="#28A9D0"/>
</linearGradient>
<linearGradient id="paint5_linear_907_2" x1="848.633" y1="78.2775" x2="851.435" y2="125.83" gradientUnits="userSpaceOnUse">
<stop stop-color="#367588"/>
<stop offset="1" stop-color="#367588"/>
</linearGradient>
</defs>
</svg>
