<svg width="1000" height="150" viewBox="0 0 1220 196" fill="none" xmlns="http://www.w3.org/2000/svg">
<path d="M33.0052 46.7561H30.2056V77.6934H33.0052V46.7561Z" fill="#DDDDDD"/>
<path d="M135.137 60.9318H132.338V77.6939H135.137V60.9318Z" fill="#DDDDDD"/>
<path d="M237.234 46.7561H234.434V77.6934H237.234V46.7561Z" fill="#DDDDDD"/>
<path d="M339.33 60.9318H336.531V77.6939H339.33V60.9318Z" fill="#DDDDDD"/>
<path d="M441.428 46.7561H438.628V77.6934H441.428V46.7561Z" fill="#DDDDDD"/>
<path d="M543.525 60.9318H540.726V77.6939H543.525V60.9318Z" fill="#DDDDDD"/>
<path d="M645.622 46.7561H642.822V77.6934H645.622V46.7561Z" fill="#DDDDDD"/>
<path d="M747.719 60.9318H744.919V77.6939H747.719V60.9318Z" fill="#DDDDDD"/>
<path d="M849.816 46.7561H847.017V77.6934H849.816V46.7561Z" fill="#DDDDDD"/>
<path d="M951.948 60.9318H949.148V77.6939H951.948V60.9318Z" fill="#DDDDDD"/>
<path d="M1054.04 46.7561H1051.24V77.6934H1054.04V46.7561Z" fill="#DDDDDD"/>
<path d="M1156.14 60.9318H1153.34V77.6939H1156.14V60.9318Z" fill="#DDDDDD"/>
<path opacity="0.46" d="M1187.24 122.704H32.3194C14.4587 122.704 0 117.112 0 110.204C0 103.296 14.4587 97.7036 32.3194 97.7036H1187.24C1205.1 97.7036 1219.56 103.296 1219.56 110.204C1219.56 117.112 1205.1 122.704 1187.24 122.704Z" fill="url(#paint0_linear_819_242)"/>
<path d="M0.543457 108.248C0.543457 102.73 13.4074 98.2477 29.3191 98.2477H1184.24C1200.12 98.2477 1213.02 102.718 1213.02 108.248C1213.02 113.765 1200.15 118.248 1184.24 118.248H29.3191C13.4429 118.248 0.543457 113.777 0.543457 108.248Z" fill="#E8E8E8"/>
<path d="M1 109C1 103.483 8.78545 99 18.4154 99H541.585C551.193 99 559 103.47 559 109C559 114.517 551.215 119 541.585 119H18.4154C8.8069 119 1 114.53 1 109Z" fill="url(#paint1_linear_819_242)"/>
<mask id="mask0_819_242" style="mask-type:luminance" maskUnits="userSpaceOnUse" x="1" y="97" width="546" height="21">
<path d="M1 108C1 102.483 8.76852 97.9999 18.3775 97.9999H529.623C539.21 97.9999 547 102.47 547 108C547 113.517 539.232 118 529.623 118H18.3775C8.78992 118 1 113.529 1 108Z" fill="white"/>
</mask>
<g mask="url(#mask0_819_242)">
<g style="mix-blend-mode:color-dodge" opacity="0.21">
<path d="M105.242 92.6828L80.3086 76.5863L-19.4239 140.972L5.50924 157.069L105.242 92.6828Z" fill="white"/>
</g>
<g style="mix-blend-mode:color-dodge" opacity="0.21">
<path d="M203.368 92.682L178.435 76.5854L78.7021 140.972L103.635 157.068L203.368 92.682Z" fill="white"/>
</g>
<g style="mix-blend-mode:color-dodge" opacity="0.21">
<path d="M301.469 92.6653L276.536 76.5687L176.804 140.955L201.737 157.051L301.469 92.6653Z" fill="white"/>
</g>
<g style="mix-blend-mode:color-dodge" opacity="0.21">
<path d="M399.596 92.6881L374.663 76.5916L274.931 140.978L299.864 157.074L399.596 92.6881Z" fill="white"/>
</g>
<g style="mix-blend-mode:color-dodge" opacity="0.21">
<path d="M497.724 92.6873L472.791 76.5908L373.058 140.977L397.991 157.073L497.724 92.6873Z" fill="white"/>
</g>
<g style="mix-blend-mode:color-dodge" opacity="0.21">
<path d="M595.852 92.6873L570.919 76.5908L471.186 140.977L496.12 157.073L595.852 92.6873Z" fill="white"/>
</g>
<g style="mix-blend-mode:multiply" opacity="0.53">
<path d="M904.672 116.824C904.672 121.949 901.447 126.616 896.238 129.957C891.028 133.32 883.835 135.402 875.896 135.402H29.3191C13.4429 135.402 0.543457 127.097 0.543457 116.824C0.543457 116.115 0.61433 115.406 0.720644 114.72C2.35079 123.962 14.5415 131.169 29.3191 131.169H875.896C883.835 131.169 891.028 129.087 896.238 125.724C900.703 122.841 903.715 118.998 904.495 114.72C904.601 115.406 904.672 116.115 904.672 116.824Z" fill="url(#paint2_linear_819_242)"/>
</g>
<g style="mix-blend-mode:color-dodge" opacity="0.21">
<path d="M839.043 109.663H30.703C27.5845 109.663 25.0684 108.039 25.0684 106.026C25.0684 104.012 27.5845 102.388 30.703 102.388H839.043C842.161 102.388 844.677 104.012 844.677 106.026C844.677 108.039 842.161 109.663 839.043 109.663Z" fill="white"/>
</g>
</g>
<path style="mix-blend-mode:multiply" d="M525.46 196C565.479 196 597.92 164.916 597.92 126.573C597.92 88.2296 565.479 57.1461 525.46 57.1461C485.441 57.1461 453 88.2296 453 126.573C453 164.916 485.441 196 525.46 196Z" fill="url(#paint3_radial_819_242)"/>
<path d="M579.517 140.055C598.489 121.083 598.489 90.3238 579.517 71.3518C560.545 52.3798 529.785 52.3798 510.813 71.3518C491.841 90.3238 491.841 121.083 510.813 140.055C529.785 159.027 560.545 159.027 579.517 140.055Z" fill="white"/>
<path d="M574.428 134.966C590.59 118.805 590.59 92.6023 574.428 76.4409C558.267 60.2796 532.064 60.2796 515.903 76.4409C499.741 92.6023 499.741 118.805 515.903 134.966C532.064 151.128 558.267 151.128 574.428 134.966Z" fill="#E8E8E8"/>
<path d="M582.232 110.757C584.992 90.3153 570.658 71.5068 550.217 68.7466C529.776 65.9865 510.967 80.3199 508.207 100.761C505.447 121.202 519.78 140.011 540.222 142.771C560.663 145.531 579.471 131.198 582.232 110.757Z" fill="url(#paint4_linear_819_242)"/>
<path d="M545.175 138.911C563.516 138.911 578.385 124.042 578.385 105.701C578.385 87.36 563.516 72.4915 545.175 72.4915C526.834 72.4915 511.965 87.36 511.965 105.701C511.965 124.042 526.834 138.911 545.175 138.911Z" fill="url(#paint5_linear_819_242)"/>
<g style="mix-blend-mode:color-dodge">
<path d="M533.248 119.838C532.271 119.838 531.449 119.042 531.449 118.039V90.253C531.449 89.2763 532.246 88.4537 533.248 88.4537C534.225 88.4537 535.047 89.2506 535.047 90.253V118.039C535.047 119.016 534.251 119.838 533.248 119.838Z" fill="white"/>
<path d="M545.175 119.838C544.198 119.838 543.375 119.042 543.375 118.039V90.253C543.375 89.2763 544.172 88.4537 545.175 88.4537C546.151 88.4537 546.974 89.2506 546.974 90.253V118.039C546.974 119.016 546.177 119.838 545.175 119.838Z" fill="white"/>
<path d="M557.101 119.838C556.124 119.838 555.302 119.042 555.302 118.039V90.253C555.302 89.2763 556.099 88.4537 557.101 88.4537C558.078 88.4537 558.9 89.2506 558.9 90.253V118.039C558.9 119.016 558.104 119.838 557.101 119.838Z" fill="white"/>
</g>
<path opacity="0.23" d="M545.202 72.5173C526.849 72.5173 511.992 87.3743 511.992 105.727C511.992 124.08 526.849 138.911 545.202 138.911C563.555 138.911 578.412 124.054 578.412 105.727C578.412 87.4 563.529 72.5173 545.202 72.5173ZM545.202 136.109C528.417 136.109 514.794 122.486 514.794 105.727C514.794 88.968 528.417 75.3191 545.202 75.3191C561.987 75.3191 575.584 88.9423 575.584 105.727C575.584 122.512 561.987 136.109 545.202 136.109Z" fill="white"/>
<path d="M22.619 14C22.619 14.7467 22.6924 15.4333 22.839 16.06C22.9857 16.6867 23.1924 17.2267 23.459 17.68C23.739 18.1333 24.0724 18.4867 24.459 18.74C24.8457 18.98 25.279 19.1 25.759 19.1C26.239 19.1 26.6657 18.98 27.039 18.74C27.4257 18.4867 27.7524 18.1333 28.019 17.68C28.299 17.2267 28.5124 16.6867 28.659 16.06C28.8057 15.4333 28.879 14.7467 28.879 14C28.879 13.2533 28.8057 12.5667 28.659 11.94C28.5124 11.3133 28.299 10.7733 28.019 10.32C27.7524 9.86667 27.4257 9.52 27.039 9.28C26.6657 9.02667 26.239 8.9 25.759 8.9C25.279 8.9 24.8457 9.02667 24.459 9.28C24.0724 9.52 23.739 9.86667 23.459 10.32C23.1924 10.7733 22.9857 11.3133 22.839 11.94C22.6924 12.5667 22.619 13.2533 22.619 14ZM20.299 14C20.299 12.5467 20.5257 11.28 20.979 10.2C21.4457 9.12 22.0857 8.28 22.899 7.68C23.7257 7.08 24.679 6.78 25.759 6.78C26.8524 6.78 27.8057 7.08 28.619 7.68C29.4324 8.28 30.0657 9.12 30.519 10.2C30.9724 11.28 31.199 12.5467 31.199 14C31.199 15.4533 30.9724 16.72 30.519 17.8C30.0657 18.88 29.4324 19.72 28.619 20.32C27.8057 20.92 26.8524 21.22 25.759 21.22C24.679 21.22 23.7257 20.92 22.899 20.32C22.0857 19.72 21.4457 18.88 20.979 17.8C20.5257 16.72 20.299 15.4533 20.299 14ZM32.599 10.12C32.599 9.49333 32.739 8.92667 33.019 8.42C33.3124 7.9 33.719 7.48667 34.239 7.18C34.759 6.87333 35.3457 6.72 35.999 6.72C36.679 6.72 37.2724 6.87333 37.779 7.18C38.299 7.48667 38.699 7.9 38.979 8.42C39.2724 8.92667 39.419 9.49333 39.419 10.12C39.419 10.7467 39.2724 11.32 38.979 11.84C38.699 12.3467 38.299 12.7533 37.779 13.06C37.2724 13.3667 36.679 13.52 35.999 13.52C35.3457 13.52 34.759 13.3667 34.239 13.06C33.719 12.7533 33.3124 12.3467 33.019 11.84C32.739 11.32 32.599 10.7467 32.599 10.12ZM34.459 10.12C34.459 10.4133 34.519 10.6933 34.639 10.96C34.7724 11.2133 34.9524 11.42 35.179 11.58C35.419 11.7267 35.6924 11.8 35.999 11.8C36.3324 11.8 36.6124 11.7267 36.839 11.58C37.0657 11.42 37.2457 11.2133 37.379 10.96C37.5124 10.6933 37.579 10.4133 37.579 10.12C37.579 9.81333 37.5124 9.53333 37.379 9.28C37.2457 9.02667 37.0657 8.82667 36.839 8.68C36.6124 8.53333 36.3324 8.46 35.999 8.46C35.6924 8.46 35.419 8.53333 35.179 8.68C34.9524 8.82667 34.7724 9.02667 34.639 9.28C34.519 9.53333 34.459 9.81333 34.459 10.12ZM40.959 17.86C40.959 17.2333 41.099 16.6667 41.379 16.16C41.6724 15.64 42.079 15.2267 42.599 14.92C43.119 14.6133 43.7057 14.46 44.359 14.46C45.039 14.46 45.6324 14.6133 46.139 14.92C46.6457 15.2267 47.0457 15.64 47.339 16.16C47.6324 16.6667 47.779 17.2333 47.779 17.86C47.779 18.4867 47.6324 19.06 47.339 19.58C47.0457 20.1 46.6457 20.5133 46.139 20.82C45.6324 21.1133 45.039 21.26 44.359 21.26C43.7057 21.26 43.119 21.1133 42.599 20.82C42.079 20.5133 41.6724 20.1 41.379 19.58C41.099 19.06 40.959 18.4867 40.959 17.86ZM42.799 17.86C42.799 18.1533 42.859 18.4333 42.979 18.7C43.1124 18.9533 43.2924 19.16 43.519 19.32C43.759 19.4667 44.039 19.54 44.359 19.54C44.6924 19.54 44.9724 19.4667 45.199 19.32C45.4257 19.16 45.599 18.9533 45.719 18.7C45.8524 18.4333 45.919 18.1533 45.919 17.86C45.919 17.5667 45.8524 17.2933 45.719 17.04C45.599 16.7867 45.4257 16.5867 45.199 16.44C44.9724 16.28 44.6924 16.2 44.359 16.2C44.039 16.2 43.759 16.28 43.519 16.44C43.2924 16.5867 43.1124 16.7867 42.979 17.04C42.859 17.28 42.799 17.5533 42.799 17.86ZM43.959 7H46.119L36.419 21H34.259L43.959 7Z" fill="black"/>
<path d="M543.141 16.48C543.141 17.3067 542.987 18.02 542.681 18.62C542.374 19.22 541.961 19.7133 541.441 20.1C540.921 20.4867 540.341 20.7733 539.701 20.96C539.061 21.1467 538.401 21.24 537.721 21.24C536.867 21.24 536.101 21.14 535.421 20.94C534.754 20.74 534.167 20.48 533.661 20.16C533.154 19.8267 532.707 19.4667 532.321 19.08L533.661 16.86C533.994 17.1933 534.354 17.4933 534.741 17.76C535.141 18.0267 535.554 18.24 535.981 18.4C536.407 18.5467 536.814 18.62 537.201 18.62C537.801 18.62 538.307 18.5267 538.721 18.34C539.147 18.1533 539.474 17.8867 539.701 17.54C539.927 17.18 540.041 16.74 540.041 16.22C540.041 15.7133 539.907 15.2867 539.641 14.94C539.387 14.5933 539.041 14.3333 538.601 14.16C538.174 13.9733 537.707 13.88 537.201 13.88C536.827 13.88 536.434 13.9133 536.021 13.98C535.607 14.0333 535.181 14.1333 534.741 14.28C534.314 14.4133 533.861 14.6133 533.381 14.88L535.301 7H542.921V9.48H537.421L536.581 12.36C536.927 12.1733 537.294 12.0467 537.681 11.98C538.081 11.9 538.487 11.86 538.901 11.86C539.661 11.86 540.361 12.0467 541.001 12.42C541.641 12.7933 542.154 13.3267 542.541 14.02C542.941 14.7 543.141 15.52 543.141 16.48ZM547.523 14C547.523 14.7067 547.59 15.3533 547.723 15.94C547.856 16.5133 548.05 17.0133 548.303 17.44C548.556 17.8533 548.856 18.1733 549.203 18.4C549.55 18.6267 549.936 18.74 550.363 18.74C550.803 18.74 551.196 18.6267 551.543 18.4C551.89 18.1733 552.19 17.8533 552.443 17.44C552.696 17.0133 552.89 16.5133 553.023 15.94C553.156 15.3533 553.223 14.7067 553.223 14C553.223 13.2933 553.156 12.6533 553.023 12.08C552.89 11.4933 552.696 10.9933 552.443 10.58C552.19 10.1533 551.89 9.82667 551.543 9.6C551.196 9.37333 550.803 9.26 550.363 9.26C549.936 9.26 549.55 9.37333 549.203 9.6C548.856 9.82667 548.556 10.1533 548.303 10.58C548.05 10.9933 547.856 11.4933 547.723 12.08C547.59 12.6533 547.523 13.2933 547.523 14ZM544.743 14C544.743 12.52 544.976 11.24 545.443 10.16C545.923 9.08 546.583 8.24667 547.423 7.66C548.276 7.06 549.256 6.76 550.363 6.76C551.51 6.76 552.503 7.06 553.343 7.66C554.183 8.24667 554.836 9.08 555.303 10.16C555.77 11.24 556.003 12.52 556.003 14C556.003 15.48 555.77 16.76 555.303 17.84C554.836 18.92 554.183 19.76 553.343 20.36C552.503 20.9467 551.51 21.24 550.363 21.24C549.256 21.24 548.276 20.9467 547.423 20.36C546.583 19.76 545.923 18.92 545.443 17.84C544.976 16.76 544.743 15.48 544.743 14ZM557.314 10.22C557.314 9.55333 557.468 8.95333 557.774 8.42C558.094 7.88667 558.528 7.46667 559.074 7.16C559.621 6.84 560.234 6.68 560.914 6.68C561.608 6.68 562.221 6.84 562.754 7.16C563.301 7.46667 563.728 7.88667 564.034 8.42C564.341 8.95333 564.494 9.55333 564.494 10.22C564.494 10.86 564.341 11.4533 564.034 12C563.728 12.5333 563.301 12.96 562.754 13.28C562.221 13.6 561.608 13.76 560.914 13.76C560.234 13.76 559.621 13.6 559.074 13.28C558.528 12.96 558.094 12.5333 557.774 12C557.468 11.4533 557.314 10.86 557.314 10.22ZM559.474 10.22C559.474 10.4867 559.534 10.74 559.654 10.98C559.774 11.2067 559.941 11.3867 560.154 11.52C560.368 11.6533 560.621 11.72 560.914 11.72C561.208 11.72 561.454 11.6533 561.654 11.52C561.868 11.3867 562.034 11.2067 562.154 10.98C562.274 10.74 562.334 10.4867 562.334 10.22C562.334 9.94 562.274 9.68667 562.154 9.46C562.034 9.23333 561.868 9.05333 561.654 8.92C561.454 8.77333 561.208 8.7 560.914 8.7C560.621 8.7 560.368 8.77333 560.154 8.92C559.941 9.05333 559.774 9.23333 559.654 9.46C559.534 9.68667 559.474 9.94 559.474 10.22ZM566.414 17.78C566.414 17.1267 566.568 16.5333 566.874 16C567.194 15.4533 567.628 15.0267 568.174 14.72C568.721 14.4 569.334 14.24 570.014 14.24C570.708 14.24 571.321 14.4 571.854 14.72C572.401 15.0267 572.828 15.4533 573.134 16C573.441 16.5333 573.594 17.1267 573.594 17.78C573.594 18.4333 573.441 19.0267 573.134 19.56C572.828 20.0933 572.401 20.52 571.854 20.84C571.321 21.16 570.708 21.32 570.014 21.32C569.334 21.32 568.721 21.16 568.174 20.84C567.628 20.52 567.194 20.0933 566.874 19.56C566.568 19.0267 566.414 18.4333 566.414 17.78ZM568.574 17.78C568.574 18.0467 568.634 18.3 568.754 18.54C568.874 18.7667 569.041 18.9467 569.254 19.08C569.468 19.2133 569.721 19.28 570.014 19.28C570.308 19.28 570.554 19.2133 570.754 19.08C570.968 18.9467 571.134 18.7667 571.254 18.54C571.374 18.3 571.434 18.0467 571.434 17.78C571.434 17.5 571.374 17.2467 571.254 17.02C571.134 16.7933 570.968 16.6133 570.754 16.48C570.554 16.3467 570.308 16.28 570.014 16.28C569.721 16.28 569.468 16.3467 569.254 16.48C569.041 16.6133 568.874 16.7933 568.754 17.02C568.634 17.2467 568.574 17.5 568.574 17.78ZM569.254 7H571.874L561.674 21H559.054L569.254 7Z" fill="#367588"/>
<path d="M827.719 9.22V7H838.179L831.439 21H828.919L834.659 9.22H827.719ZM849.372 16.44C849.372 17.2533 849.226 17.96 848.932 18.56C848.652 19.16 848.266 19.66 847.772 20.06C847.279 20.4467 846.726 20.74 846.112 20.94C845.499 21.1267 844.852 21.22 844.172 21.22C843.319 21.22 842.559 21.1067 841.892 20.88C841.239 20.6533 840.672 20.3533 840.192 19.98C839.712 19.5933 839.292 19.18 838.932 18.74L840.332 17.02C840.612 17.3933 840.939 17.7333 841.312 18.04C841.686 18.3333 842.092 18.5733 842.532 18.76C842.986 18.9333 843.432 19.02 843.872 19.02C844.499 19.02 845.032 18.9133 845.472 18.7C845.912 18.4733 846.246 18.16 846.472 17.76C846.712 17.3467 846.832 16.86 846.832 16.3C846.832 15.7267 846.699 15.24 846.432 14.84C846.166 14.44 845.806 14.1333 845.352 13.92C844.899 13.7067 844.406 13.6 843.872 13.6C843.459 13.6 843.052 13.6333 842.652 13.7C842.266 13.7533 841.866 13.86 841.452 14.02C841.052 14.18 840.612 14.4067 840.132 14.7L842.032 7H849.232V9.08H843.812L842.932 12.28C843.279 12.1067 843.639 11.98 844.012 11.9C844.386 11.82 844.766 11.78 845.152 11.78C845.926 11.78 846.632 11.9733 847.272 12.36C847.912 12.7467 848.419 13.2867 848.792 13.98C849.179 14.6733 849.372 15.4933 849.372 16.44ZM850.766 10.12C850.766 9.49333 850.906 8.92667 851.186 8.42C851.479 7.9 851.886 7.48667 852.406 7.18C852.926 6.87333 853.513 6.72 854.166 6.72C854.846 6.72 855.439 6.87333 855.946 7.18C856.466 7.48667 856.866 7.9 857.146 8.42C857.439 8.92667 857.586 9.49333 857.586 10.12C857.586 10.7467 857.439 11.32 857.146 11.84C856.866 12.3467 856.466 12.7533 855.946 13.06C855.439 13.3667 854.846 13.52 854.166 13.52C853.513 13.52 852.926 13.3667 852.406 13.06C851.886 12.7533 851.479 12.3467 851.186 11.84C850.906 11.32 850.766 10.7467 850.766 10.12ZM852.626 10.12C852.626 10.4133 852.686 10.6933 852.806 10.96C852.939 11.2133 853.119 11.42 853.346 11.58C853.586 11.7267 853.859 11.8 854.166 11.8C854.499 11.8 854.779 11.7267 855.006 11.58C855.233 11.42 855.413 11.2133 855.546 10.96C855.679 10.6933 855.746 10.4133 855.746 10.12C855.746 9.81333 855.679 9.53333 855.546 9.28C855.413 9.02667 855.233 8.82667 855.006 8.68C854.779 8.53333 854.499 8.46 854.166 8.46C853.859 8.46 853.586 8.53333 853.346 8.68C853.119 8.82667 852.939 9.02667 852.806 9.28C852.686 9.53333 852.626 9.81333 852.626 10.12ZM859.126 17.86C859.126 17.2333 859.266 16.6667 859.546 16.16C859.839 15.64 860.246 15.2267 860.766 14.92C861.286 14.6133 861.873 14.46 862.526 14.46C863.206 14.46 863.799 14.6133 864.306 14.92C864.813 15.2267 865.213 15.64 865.506 16.16C865.799 16.6667 865.946 17.2333 865.946 17.86C865.946 18.4867 865.799 19.06 865.506 19.58C865.213 20.1 864.813 20.5133 864.306 20.82C863.799 21.1133 863.206 21.26 862.526 21.26C861.873 21.26 861.286 21.1133 860.766 20.82C860.246 20.5133 859.839 20.1 859.546 19.58C859.266 19.06 859.126 18.4867 859.126 17.86ZM860.966 17.86C860.966 18.1533 861.026 18.4333 861.146 18.7C861.279 18.9533 861.459 19.16 861.686 19.32C861.926 19.4667 862.206 19.54 862.526 19.54C862.859 19.54 863.139 19.4667 863.366 19.32C863.593 19.16 863.766 18.9533 863.886 18.7C864.019 18.4333 864.086 18.1533 864.086 17.86C864.086 17.5667 864.019 17.2933 863.886 17.04C863.766 16.7867 863.593 16.5867 863.366 16.44C863.139 16.28 862.859 16.2 862.526 16.2C862.206 16.2 861.926 16.28 861.686 16.44C861.459 16.5867 861.279 16.7867 861.146 17.04C861.026 17.28 860.966 17.5533 860.966 17.86ZM862.126 7H864.286L854.586 21H852.426L862.126 7Z" fill="black"/>
<path d="M274.4 22L280.88 15.18C281.213 14.82 281.5 14.4733 281.74 14.14C281.98 13.8067 282.16 13.4733 282.28 13.14C282.4 12.8067 282.46 12.4533 282.46 12.08C282.46 11.8133 282.407 11.5533 282.3 11.3C282.207 11.0333 282.053 10.7933 281.84 10.58C281.64 10.3667 281.393 10.2 281.1 10.08C280.807 9.94667 280.467 9.88 280.08 9.88C279.547 9.88 279.087 10.0067 278.7 10.26C278.313 10.5 278.013 10.8533 277.8 11.32C277.6 11.7867 277.5 12.3267 277.5 12.94H275.16C275.16 11.94 275.347 11.0533 275.72 10.28C276.107 9.49333 276.673 8.88 277.42 8.44C278.167 7.98667 279.067 7.76 280.12 7.76C280.933 7.76 281.64 7.89333 282.24 8.16C282.84 8.41333 283.333 8.74667 283.72 9.16C284.12 9.57333 284.42 10.0267 284.62 10.52C284.82 11.0133 284.92 11.4933 284.92 11.96C284.92 12.6933 284.74 13.4 284.38 14.08C284.02 14.76 283.553 15.3667 282.98 15.9L279.02 19.8H285.08V22H274.4ZM297.21 17.44C297.21 18.2533 297.064 18.96 296.77 19.56C296.49 20.16 296.104 20.66 295.61 21.06C295.117 21.4467 294.564 21.74 293.95 21.94C293.337 22.1267 292.69 22.22 292.01 22.22C291.157 22.22 290.397 22.1067 289.73 21.88C289.077 21.6533 288.51 21.3533 288.03 20.98C287.55 20.5933 287.13 20.18 286.77 19.74L288.17 18.02C288.45 18.3933 288.777 18.7333 289.15 19.04C289.524 19.3333 289.93 19.5733 290.37 19.76C290.824 19.9333 291.27 20.02 291.71 20.02C292.337 20.02 292.87 19.9133 293.31 19.7C293.75 19.4733 294.084 19.16 294.31 18.76C294.55 18.3467 294.67 17.86 294.67 17.3C294.67 16.7267 294.537 16.24 294.27 15.84C294.004 15.44 293.644 15.1333 293.19 14.92C292.737 14.7067 292.244 14.6 291.71 14.6C291.297 14.6 290.89 14.6333 290.49 14.7C290.104 14.7533 289.704 14.86 289.29 15.02C288.89 15.18 288.45 15.4067 287.97 15.7L289.87 8H297.07V10.08H291.65L290.77 13.28C291.117 13.1067 291.477 12.98 291.85 12.9C292.224 12.82 292.604 12.78 292.99 12.78C293.764 12.78 294.47 12.9733 295.11 13.36C295.75 13.7467 296.257 14.2867 296.63 14.98C297.017 15.6733 297.21 16.4933 297.21 17.44ZM298.604 11.12C298.604 10.4933 298.744 9.92667 299.024 9.42C299.317 8.9 299.724 8.48667 300.244 8.18C300.764 7.87333 301.351 7.72 302.004 7.72C302.684 7.72 303.277 7.87333 303.784 8.18C304.304 8.48667 304.704 8.9 304.984 9.42C305.277 9.92667 305.424 10.4933 305.424 11.12C305.424 11.7467 305.277 12.32 304.984 12.84C304.704 13.3467 304.304 13.7533 303.784 14.06C303.277 14.3667 302.684 14.52 302.004 14.52C301.351 14.52 300.764 14.3667 300.244 14.06C299.724 13.7533 299.317 13.3467 299.024 12.84C298.744 12.32 298.604 11.7467 298.604 11.12ZM300.464 11.12C300.464 11.4133 300.524 11.6933 300.644 11.96C300.777 12.2133 300.957 12.42 301.184 12.58C301.424 12.7267 301.697 12.8 302.004 12.8C302.337 12.8 302.617 12.7267 302.844 12.58C303.071 12.42 303.251 12.2133 303.384 11.96C303.517 11.6933 303.584 11.4133 303.584 11.12C303.584 10.8133 303.517 10.5333 303.384 10.28C303.251 10.0267 303.071 9.82667 302.844 9.68C302.617 9.53333 302.337 9.46 302.004 9.46C301.697 9.46 301.424 9.53333 301.184 9.68C300.957 9.82667 300.777 10.0267 300.644 10.28C300.524 10.5333 300.464 10.8133 300.464 11.12ZM306.964 18.86C306.964 18.2333 307.104 17.6667 307.384 17.16C307.677 16.64 308.084 16.2267 308.604 15.92C309.124 15.6133 309.711 15.46 310.364 15.46C311.044 15.46 311.637 15.6133 312.144 15.92C312.651 16.2267 313.051 16.64 313.344 17.16C313.637 17.6667 313.784 18.2333 313.784 18.86C313.784 19.4867 313.637 20.06 313.344 20.58C313.051 21.1 312.651 21.5133 312.144 21.82C311.637 22.1133 311.044 22.26 310.364 22.26C309.711 22.26 309.124 22.1133 308.604 21.82C308.084 21.5133 307.677 21.1 307.384 20.58C307.104 20.06 306.964 19.4867 306.964 18.86ZM308.804 18.86C308.804 19.1533 308.864 19.4333 308.984 19.7C309.117 19.9533 309.297 20.16 309.524 20.32C309.764 20.4667 310.044 20.54 310.364 20.54C310.697 20.54 310.977 20.4667 311.204 20.32C311.431 20.16 311.604 19.9533 311.724 19.7C311.857 19.4333 311.924 19.1533 311.924 18.86C311.924 18.5667 311.857 18.2933 311.724 18.04C311.604 17.7867 311.431 17.5867 311.204 17.44C310.977 17.28 310.697 17.2 310.364 17.2C310.044 17.2 309.764 17.28 309.524 17.44C309.297 17.5867 309.117 17.7867 308.984 18.04C308.864 18.28 308.804 18.5533 308.804 18.86ZM309.964 8H312.124L302.424 22H300.264L309.964 8Z" fill="black"/>
<path d="M1137.5 10.28V8.04L1143.08 6.78V21H1140.76V9.38L1137.5 10.28ZM1148.59 14C1148.59 14.7467 1148.67 15.4333 1148.81 16.06C1148.96 16.6867 1149.17 17.2267 1149.43 17.68C1149.71 18.1333 1150.05 18.4867 1150.43 18.74C1150.82 18.98 1151.25 19.1 1151.73 19.1C1152.21 19.1 1152.64 18.98 1153.01 18.74C1153.4 18.4867 1153.73 18.1333 1153.99 17.68C1154.27 17.2267 1154.49 16.6867 1154.63 16.06C1154.78 15.4333 1154.85 14.7467 1154.85 14C1154.85 13.2533 1154.78 12.5667 1154.63 11.94C1154.49 11.3133 1154.27 10.7733 1153.99 10.32C1153.73 9.86667 1153.4 9.52 1153.01 9.28C1152.64 9.02667 1152.21 8.9 1151.73 8.9C1151.25 8.9 1150.82 9.02667 1150.43 9.28C1150.05 9.52 1149.71 9.86667 1149.43 10.32C1149.17 10.7733 1148.96 11.3133 1148.81 11.94C1148.67 12.5667 1148.59 13.2533 1148.59 14ZM1146.27 14C1146.27 12.5467 1146.5 11.28 1146.95 10.2C1147.42 9.12 1148.06 8.28 1148.87 7.68C1149.7 7.08 1150.65 6.78 1151.73 6.78C1152.83 6.78 1153.78 7.08 1154.59 7.68C1155.41 8.28 1156.04 9.12 1156.49 10.2C1156.95 11.28 1157.17 12.5467 1157.17 14C1157.17 15.4533 1156.95 16.72 1156.49 17.8C1156.04 18.88 1155.41 19.72 1154.59 20.32C1153.78 20.92 1152.83 21.22 1151.73 21.22C1150.65 21.22 1149.7 20.92 1148.87 20.32C1148.06 19.72 1147.42 18.88 1146.95 17.8C1146.5 16.72 1146.27 15.4533 1146.27 14ZM1161.09 14C1161.09 14.7467 1161.17 15.4333 1161.31 16.06C1161.46 16.6867 1161.67 17.2267 1161.93 17.68C1162.21 18.1333 1162.55 18.4867 1162.93 18.74C1163.32 18.98 1163.75 19.1 1164.23 19.1C1164.71 19.1 1165.14 18.98 1165.51 18.74C1165.9 18.4867 1166.23 18.1333 1166.49 17.68C1166.77 17.2267 1166.99 16.6867 1167.13 16.06C1167.28 15.4333 1167.35 14.7467 1167.35 14C1167.35 13.2533 1167.28 12.5667 1167.13 11.94C1166.99 11.3133 1166.77 10.7733 1166.49 10.32C1166.23 9.86667 1165.9 9.52 1165.51 9.28C1165.14 9.02667 1164.71 8.9 1164.23 8.9C1163.75 8.9 1163.32 9.02667 1162.93 9.28C1162.55 9.52 1162.21 9.86667 1161.93 10.32C1161.67 10.7733 1161.46 11.3133 1161.31 11.94C1161.17 12.5667 1161.09 13.2533 1161.09 14ZM1158.77 14C1158.77 12.5467 1159 11.28 1159.45 10.2C1159.92 9.12 1160.56 8.28 1161.37 7.68C1162.2 7.08 1163.15 6.78 1164.23 6.78C1165.33 6.78 1166.28 7.08 1167.09 7.68C1167.91 8.28 1168.54 9.12 1168.99 10.2C1169.45 11.28 1169.67 12.5467 1169.67 14C1169.67 15.4533 1169.45 16.72 1168.99 17.8C1168.54 18.88 1167.91 19.72 1167.09 20.32C1166.28 20.92 1165.33 21.22 1164.23 21.22C1163.15 21.22 1162.2 20.92 1161.37 20.32C1160.56 19.72 1159.92 18.88 1159.45 17.8C1159 16.72 1158.77 15.4533 1158.77 14ZM1171.07 10.12C1171.07 9.49333 1171.21 8.92667 1171.49 8.42C1171.79 7.9 1172.19 7.48667 1172.71 7.18C1173.23 6.87333 1173.82 6.72 1174.47 6.72C1175.15 6.72 1175.75 6.87333 1176.25 7.18C1176.77 7.48667 1177.17 7.9 1177.45 8.42C1177.75 8.92667 1177.89 9.49333 1177.89 10.12C1177.89 10.7467 1177.75 11.32 1177.45 11.84C1177.17 12.3467 1176.77 12.7533 1176.25 13.06C1175.75 13.3667 1175.15 13.52 1174.47 13.52C1173.82 13.52 1173.23 13.3667 1172.71 13.06C1172.19 12.7533 1171.79 12.3467 1171.49 11.84C1171.21 11.32 1171.07 10.7467 1171.07 10.12ZM1172.93 10.12C1172.93 10.4133 1172.99 10.6933 1173.11 10.96C1173.25 11.2133 1173.43 11.42 1173.65 11.58C1173.89 11.7267 1174.17 11.8 1174.47 11.8C1174.81 11.8 1175.09 11.7267 1175.31 11.58C1175.54 11.42 1175.72 11.2133 1175.85 10.96C1175.99 10.6933 1176.05 10.4133 1176.05 10.12C1176.05 9.81333 1175.99 9.53333 1175.85 9.28C1175.72 9.02667 1175.54 8.82667 1175.31 8.68C1175.09 8.53333 1174.81 8.46 1174.47 8.46C1174.17 8.46 1173.89 8.53333 1173.65 8.68C1173.43 8.82667 1173.25 9.02667 1173.11 9.28C1172.99 9.53333 1172.93 9.81333 1172.93 10.12ZM1179.43 17.86C1179.43 17.2333 1179.57 16.6667 1179.85 16.16C1180.15 15.64 1180.55 15.2267 1181.07 14.92C1181.59 14.6133 1182.18 14.46 1182.83 14.46C1183.51 14.46 1184.11 14.6133 1184.61 14.92C1185.12 15.2267 1185.52 15.64 1185.81 16.16C1186.11 16.6667 1186.25 17.2333 1186.25 17.86C1186.25 18.4867 1186.11 19.06 1185.81 19.58C1185.52 20.1 1185.12 20.5133 1184.61 20.82C1184.11 21.1133 1183.51 21.26 1182.83 21.26C1182.18 21.26 1181.59 21.1133 1181.07 20.82C1180.55 20.5133 1180.15 20.1 1179.85 19.58C1179.57 19.06 1179.43 18.4867 1179.43 17.86ZM1181.27 17.86C1181.27 18.1533 1181.33 18.4333 1181.45 18.7C1181.59 18.9533 1181.77 19.16 1181.99 19.32C1182.23 19.4667 1182.51 19.54 1182.83 19.54C1183.17 19.54 1183.45 19.4667 1183.67 19.32C1183.9 19.16 1184.07 18.9533 1184.19 18.7C1184.33 18.4333 1184.39 18.1533 1184.39 17.86C1184.39 17.5667 1184.33 17.2933 1184.19 17.04C1184.07 16.7867 1183.9 16.5867 1183.67 16.44C1183.45 16.28 1183.17 16.2 1182.83 16.2C1182.51 16.2 1182.23 16.28 1181.99 16.44C1181.77 16.5867 1181.59 16.7867 1181.45 17.04C1181.33 17.28 1181.27 17.5533 1181.27 17.86ZM1182.43 7H1184.59L1174.89 21H1172.73L1182.43 7Z" fill="black"/>
<defs>
<linearGradient id="paint0_linear_819_242" x1="604.997" y1="80.8862" x2="606.231" y2="131.441" gradientUnits="userSpaceOnUse">
<stop stop-color="#B3B3B3"/>
<stop offset="0.24" stop-color="#B6B6B6"/>
<stop offset="0.46" stop-color="#C2C2C2"/>
<stop offset="0.68" stop-color="#D5D5D5"/>
<stop offset="0.9" stop-color="#F0F0F0"/>
<stop offset="0.99" stop-color="white"/>
</linearGradient>
<linearGradient id="paint1_linear_819_242" x1="278.467" y1="94.0369" x2="279.381" y2="121.033" gradientUnits="userSpaceOnUse">
<stop stop-color="#367588"/>
<stop offset="1" stop-color="#367588"/>
</linearGradient>
<linearGradient id="paint2_linear_819_242" x1="451.35" y1="103.075" x2="452.815" y2="141.702" gradientUnits="userSpaceOnUse">
<stop stop-color="#367588"/>
<stop offset="1" stop-color="#1E9F76"/>
</linearGradient>
<radialGradient id="paint3_radial_819_242" cx="0" cy="0" r="1" gradientUnits="userSpaceOnUse" gradientTransform="translate(522.286 126.307) scale(72.2189 69.4197)">
<stop stop-color="#4D4D4D"/>
<stop offset="0.05" stop-color="#5C5C5C"/>
<stop offset="0.22" stop-color="#8D8D8D"/>
<stop offset="0.39" stop-color="#B6B6B6"/>
<stop offset="0.56" stop-color="#D5D5D5"/>
<stop offset="0.72" stop-color="#ECECEC"/>
<stop offset="0.87" stop-color="#FAFAFA"/>
<stop offset="1" stop-color="white"/>
</radialGradient>
<linearGradient id="paint4_linear_819_242" x1="542.391" y1="82.2716" x2="544.283" y2="136.044" gradientUnits="userSpaceOnUse">
<stop stop-color="#367588"/>
<stop offset="1" stop-color="#28A9D0"/>
</linearGradient>
<linearGradient id="paint5_linear_819_242" x1="543.633" y1="79.2774" x2="546.435" y2="126.83" gradientUnits="userSpaceOnUse">
<stop stop-color="#367588"/>
<stop offset="1" stop-color="#367588"/>
</linearGradient>
</defs>
</svg>
