<svg width="1000" height="150" viewBox="0 0 1278 197" fill="none" xmlns="http://www.w3.org/2000/svg">
<path d="M91.0052 46.7561H88.2056V77.6934H91.0052V46.7561Z" fill="#DDDDDD"/>
<path d="M193.137 60.9316H190.338V77.6938H193.137V60.9316Z" fill="#DDDDDD"/>
<path d="M295.234 46.7561H292.434V77.6934H295.234V46.7561Z" fill="#DDDDDD"/>
<path d="M397.33 60.9316H394.531V77.6938H397.33V60.9316Z" fill="#DDDDDD"/>
<path d="M499.428 46.7561H496.628V77.6934H499.428V46.7561Z" fill="#DDDDDD"/>
<path d="M601.525 60.9316H598.726V77.6938H601.525V60.9316Z" fill="#DDDDDD"/>
<path d="M703.622 46.7561H700.822V77.6934H703.622V46.7561Z" fill="#DDDDDD"/>
<path d="M805.719 60.9316H802.919V77.6938H805.719V60.9316Z" fill="#DDDDDD"/>
<path d="M907.816 46.7561H905.017V77.6934H907.816V46.7561Z" fill="#DDDDDD"/>
<path d="M1009.95 60.9316H1007.15V77.6938H1009.95V60.9316Z" fill="#DDDDDD"/>
<path d="M1112.04 46.7561H1109.24V77.6934H1112.04V46.7561Z" fill="#DDDDDD"/>
<path d="M1214.14 60.9316H1211.34V77.6938H1214.14V60.9316Z" fill="#DDDDDD"/>
<path opacity="0.46" d="M1245.24 122.704H90.3194C72.4587 122.704 58 117.112 58 110.204C58 103.296 72.4587 97.7036 90.3194 97.7036H1245.24C1263.1 97.7036 1277.56 103.296 1277.56 110.204C1277.56 117.112 1263.1 122.704 1245.24 122.704Z" fill="url(#paint0_linear_924_1501)"/>
<path d="M58.5435 108.248C58.5435 102.73 71.4074 98.2476 87.3191 98.2476H1242.24C1258.12 98.2476 1271.02 102.718 1271.02 108.248C1271.02 113.765 1258.15 118.248 1242.24 118.248H87.3191C71.4429 118.248 58.5435 113.777 58.5435 108.248Z" fill="#E8E8E8"/>
<path d="M59 109C59 103.483 59.6 99 60.342 99H100.658C101.398 99 102 103.47 102 109C102 114.517 101.4 119 100.658 119H60.342C59.6016 119 59 114.53 59 109Z" fill="url(#paint1_linear_924_1501)"/>
<mask id="mask0_924_1501" style="mask-type:luminance" maskUnits="userSpaceOnUse" x="59" y="98" width="35" height="20">
<path d="M59 108C59 102.483 59.498 98 60.1139 98H92.8861C93.5006 98 94 102.47 94 108C94 113.517 93.502 118 92.8861 118H60.1139C59.4994 118 59 113.53 59 108Z" fill="white"/>
</mask>
<g mask="url(#mask0_924_1501)">
<g style="mix-blend-mode:color-dodge" opacity="0.21">
<path d="M163.242 92.6829L138.309 76.5864L38.5761 140.972L63.5092 157.069L163.242 92.6829Z" fill="white"/>
</g>
<g style="mix-blend-mode:multiply" opacity="0.53">
<path d="M962.672 116.825C962.672 121.949 959.447 126.616 954.238 129.957C949.028 133.32 941.835 135.402 933.896 135.402H87.3191C71.4429 135.402 58.5435 127.097 58.5435 116.825C58.5435 116.115 58.6143 115.406 58.7206 114.72C60.3508 123.963 72.5415 131.169 87.3191 131.169H933.896C941.835 131.169 949.028 129.087 954.238 125.724C958.703 122.842 961.715 118.998 962.495 114.72C962.601 115.406 962.672 116.115 962.672 116.825Z" fill="url(#paint2_linear_924_1501)"/>
</g>
<g style="mix-blend-mode:color-dodge" opacity="0.21">
<path d="M897.043 109.663H88.703C85.5845 109.663 83.0684 108.039 83.0684 106.026C83.0684 104.013 85.5845 102.388 88.703 102.388H897.043C900.161 102.388 902.677 104.013 902.677 106.026C902.677 108.039 900.161 109.663 897.043 109.663Z" fill="white"/>
</g>
</g>
<path style="mix-blend-mode:multiply" d="M72.46 197C112.479 197 144.92 165.917 144.92 127.573C144.92 89.2297 112.479 58.1462 72.46 58.1462C32.4414 58.1462 0 89.2297 0 127.573C0 165.917 32.4414 197 72.46 197Z" fill="url(#paint3_radial_924_1501)"/>
<path d="M126.517 141.056C145.489 122.084 145.489 91.324 126.517 72.352C107.545 53.38 76.7853 53.38 57.8133 72.352C38.8413 91.324 38.8413 122.084 57.8133 141.056C76.7853 160.028 107.545 160.028 126.517 141.056Z" fill="white"/>
<path d="M121.428 135.967C137.59 119.805 137.59 93.6025 121.428 77.4412C105.267 61.2798 79.0642 61.2798 62.9028 77.4412C46.7415 93.6025 46.7415 119.805 62.9028 135.967C79.0642 152.128 105.267 152.128 121.428 135.967Z" fill="#E8E8E8"/>
<path d="M129.232 111.757C131.992 91.3153 117.658 72.5068 97.2171 69.7466C76.7758 66.9865 57.9673 81.3199 55.2071 101.761C52.447 122.202 66.7804 141.011 87.2217 143.771C107.663 146.531 126.471 132.198 129.232 111.757Z" fill="url(#paint4_linear_924_1501)"/>
<path d="M92.175 139.911C110.516 139.911 125.385 125.043 125.385 106.701C125.385 88.3602 110.516 73.4917 92.175 73.4917C73.8338 73.4917 58.9653 88.3602 58.9653 106.701C58.9653 125.043 73.8338 139.911 92.175 139.911Z" fill="url(#paint5_linear_924_1501)"/>
<g style="mix-blend-mode:color-dodge">
<path d="M80.2481 120.839C79.2713 120.839 78.4487 120.042 78.4487 119.039V91.2531C78.4487 90.2764 79.2456 89.4539 80.2481 89.4539C81.2248 89.4539 82.0473 90.2507 82.0473 91.2531V119.039C82.0473 120.016 81.2505 120.839 80.2481 120.839Z" fill="white"/>
<path d="M92.1747 120.839C91.198 120.839 90.3755 120.042 90.3755 119.039V91.2531C90.3755 90.2764 91.1723 89.4539 92.1747 89.4539C93.1515 89.4539 93.9741 90.2507 93.9741 91.2531V119.039C93.9741 120.016 93.1772 120.839 92.1747 120.839Z" fill="white"/>
<path d="M104.101 120.839C103.124 120.839 102.302 120.042 102.302 119.039V91.2531C102.302 90.2764 103.099 89.4539 104.101 89.4539C105.078 89.4539 105.9 90.2507 105.9 91.2531V119.039C105.9 120.016 105.104 120.839 104.101 120.839Z" fill="white"/>
</g>
<path opacity="0.23" d="M92.202 73.5176C73.8492 73.5176 58.9922 88.3746 58.9922 106.727C58.9922 125.08 73.8492 139.911 92.202 139.911C110.555 139.911 125.412 125.054 125.412 106.727C125.412 88.4003 110.529 73.5176 92.202 73.5176ZM92.202 137.11C75.4172 137.11 61.794 123.486 61.794 106.727C61.794 89.9682 75.4172 76.3194 92.202 76.3194C108.987 76.3194 122.584 89.9425 122.584 106.727C122.584 123.512 108.987 137.11 92.202 137.11Z" fill="white"/>
<path d="M80.619 14C80.619 14.7467 80.6924 15.4333 80.839 16.06C80.9857 16.6867 81.1924 17.2267 81.459 17.68C81.739 18.1333 82.0724 18.4867 82.459 18.74C82.8457 18.98 83.279 19.1 83.759 19.1C84.239 19.1 84.6657 18.98 85.039 18.74C85.4257 18.4867 85.7524 18.1333 86.019 17.68C86.299 17.2267 86.5124 16.6867 86.659 16.06C86.8057 15.4333 86.879 14.7467 86.879 14C86.879 13.2533 86.8057 12.5667 86.659 11.94C86.5124 11.3133 86.299 10.7733 86.019 10.32C85.7524 9.86667 85.4257 9.52 85.039 9.28C84.6657 9.02667 84.239 8.9 83.759 8.9C83.279 8.9 82.8457 9.02667 82.459 9.28C82.0724 9.52 81.739 9.86667 81.459 10.32C81.1924 10.7733 80.9857 11.3133 80.839 11.94C80.6924 12.5667 80.619 13.2533 80.619 14ZM78.299 14C78.299 12.5467 78.5257 11.28 78.979 10.2C79.4457 9.12 80.0857 8.28 80.899 7.68C81.7257 7.08 82.679 6.78 83.759 6.78C84.8524 6.78 85.8057 7.08 86.619 7.68C87.4324 8.28 88.0657 9.12 88.519 10.2C88.9724 11.28 89.199 12.5467 89.199 14C89.199 15.4533 88.9724 16.72 88.519 17.8C88.0657 18.88 87.4324 19.72 86.619 20.32C85.8057 20.92 84.8524 21.22 83.759 21.22C82.679 21.22 81.7257 20.92 80.899 20.32C80.0857 19.72 79.4457 18.88 78.979 17.8C78.5257 16.72 78.299 15.4533 78.299 14ZM90.599 10.12C90.599 9.49333 90.739 8.92667 91.019 8.42C91.3124 7.9 91.719 7.48667 92.239 7.18C92.759 6.87333 93.3457 6.72 93.999 6.72C94.679 6.72 95.2724 6.87333 95.779 7.18C96.299 7.48667 96.699 7.9 96.979 8.42C97.2724 8.92667 97.419 9.49333 97.419 10.12C97.419 10.7467 97.2724 11.32 96.979 11.84C96.699 12.3467 96.299 12.7533 95.779 13.06C95.2724 13.3667 94.679 13.52 93.999 13.52C93.3457 13.52 92.759 13.3667 92.239 13.06C91.719 12.7533 91.3124 12.3467 91.019 11.84C90.739 11.32 90.599 10.7467 90.599 10.12ZM92.459 10.12C92.459 10.4133 92.519 10.6933 92.639 10.96C92.7724 11.2133 92.9524 11.42 93.179 11.58C93.419 11.7267 93.6924 11.8 93.999 11.8C94.3324 11.8 94.6124 11.7267 94.839 11.58C95.0657 11.42 95.2457 11.2133 95.379 10.96C95.5124 10.6933 95.579 10.4133 95.579 10.12C95.579 9.81333 95.5124 9.53333 95.379 9.28C95.2457 9.02667 95.0657 8.82667 94.839 8.68C94.6124 8.53333 94.3324 8.46 93.999 8.46C93.6924 8.46 93.419 8.53333 93.179 8.68C92.9524 8.82667 92.7724 9.02667 92.639 9.28C92.519 9.53333 92.459 9.81333 92.459 10.12ZM98.959 17.86C98.959 17.2333 99.099 16.6667 99.379 16.16C99.6724 15.64 100.079 15.2267 100.599 14.92C101.119 14.6133 101.706 14.46 102.359 14.46C103.039 14.46 103.632 14.6133 104.139 14.92C104.646 15.2267 105.046 15.64 105.339 16.16C105.632 16.6667 105.779 17.2333 105.779 17.86C105.779 18.4867 105.632 19.06 105.339 19.58C105.046 20.1 104.646 20.5133 104.139 20.82C103.632 21.1133 103.039 21.26 102.359 21.26C101.706 21.26 101.119 21.1133 100.599 20.82C100.079 20.5133 99.6724 20.1 99.379 19.58C99.099 19.06 98.959 18.4867 98.959 17.86ZM100.799 17.86C100.799 18.1533 100.859 18.4333 100.979 18.7C101.112 18.9533 101.292 19.16 101.519 19.32C101.759 19.4667 102.039 19.54 102.359 19.54C102.692 19.54 102.972 19.4667 103.199 19.32C103.426 19.16 103.599 18.9533 103.719 18.7C103.852 18.4333 103.919 18.1533 103.919 17.86C103.919 17.5667 103.852 17.2933 103.719 17.04C103.599 16.7867 103.426 16.5867 103.199 16.44C102.972 16.28 102.692 16.2 102.359 16.2C102.039 16.2 101.759 16.28 101.519 16.44C101.292 16.5867 101.112 16.7867 100.979 17.04C100.859 17.28 100.799 17.5533 100.799 17.86ZM101.959 7H104.119L94.419 21H92.259L101.959 7Z" fill="black"/>
<path d="M600.681 16.44C600.681 17.2533 600.534 17.96 600.241 18.56C599.961 19.16 599.574 19.66 599.081 20.06C598.587 20.4467 598.034 20.74 597.421 20.94C596.807 21.1267 596.161 21.22 595.481 21.22C594.627 21.22 593.867 21.1067 593.201 20.88C592.547 20.6533 591.981 20.3533 591.501 19.98C591.021 19.5933 590.601 19.18 590.241 18.74L591.641 17.02C591.921 17.3933 592.247 17.7333 592.621 18.04C592.994 18.3333 593.401 18.5733 593.841 18.76C594.294 18.9333 594.741 19.02 595.181 19.02C595.807 19.02 596.341 18.9133 596.781 18.7C597.221 18.4733 597.554 18.16 597.781 17.76C598.021 17.3467 598.141 16.86 598.141 16.3C598.141 15.7267 598.007 15.24 597.741 14.84C597.474 14.44 597.114 14.1333 596.661 13.92C596.207 13.7067 595.714 13.6 595.181 13.6C594.767 13.6 594.361 13.6333 593.961 13.7C593.574 13.7533 593.174 13.86 592.761 14.02C592.361 14.18 591.921 14.4067 591.441 14.7L593.341 7H600.541V9.08H595.121L594.241 12.28C594.587 12.1067 594.947 11.98 595.321 11.9C595.694 11.82 596.074 11.78 596.461 11.78C597.234 11.78 597.941 11.9733 598.581 12.36C599.221 12.7467 599.727 13.2867 600.101 13.98C600.487 14.6733 600.681 15.4933 600.681 16.44ZM604.594 14C604.594 14.7467 604.667 15.4333 604.814 16.06C604.961 16.6867 605.167 17.2267 605.434 17.68C605.714 18.1333 606.047 18.4867 606.434 18.74C606.821 18.98 607.254 19.1 607.734 19.1C608.214 19.1 608.641 18.98 609.014 18.74C609.401 18.4867 609.727 18.1333 609.994 17.68C610.274 17.2267 610.487 16.6867 610.634 16.06C610.781 15.4333 610.854 14.7467 610.854 14C610.854 13.2533 610.781 12.5667 610.634 11.94C610.487 11.3133 610.274 10.7733 609.994 10.32C609.727 9.86667 609.401 9.52 609.014 9.28C608.641 9.02667 608.214 8.9 607.734 8.9C607.254 8.9 606.821 9.02667 606.434 9.28C606.047 9.52 605.714 9.86667 605.434 10.32C605.167 10.7733 604.961 11.3133 604.814 11.94C604.667 12.5667 604.594 13.2533 604.594 14ZM602.274 14C602.274 12.5467 602.501 11.28 602.954 10.2C603.421 9.12 604.061 8.28 604.874 7.68C605.701 7.08 606.654 6.78 607.734 6.78C608.827 6.78 609.781 7.08 610.594 7.68C611.407 8.28 612.041 9.12 612.494 10.2C612.947 11.28 613.174 12.5467 613.174 14C613.174 15.4533 612.947 16.72 612.494 17.8C612.041 18.88 611.407 19.72 610.594 20.32C609.781 20.92 608.827 21.22 607.734 21.22C606.654 21.22 605.701 20.92 604.874 20.32C604.061 19.72 603.421 18.88 602.954 17.8C602.501 16.72 602.274 15.4533 602.274 14ZM614.574 10.12C614.574 9.49333 614.714 8.92667 614.994 8.42C615.287 7.9 615.694 7.48667 616.214 7.18C616.734 6.87333 617.321 6.72 617.974 6.72C618.654 6.72 619.247 6.87333 619.754 7.18C620.274 7.48667 620.674 7.9 620.954 8.42C621.247 8.92667 621.394 9.49333 621.394 10.12C621.394 10.7467 621.247 11.32 620.954 11.84C620.674 12.3467 620.274 12.7533 619.754 13.06C619.247 13.3667 618.654 13.52 617.974 13.52C617.321 13.52 616.734 13.3667 616.214 13.06C615.694 12.7533 615.287 12.3467 614.994 11.84C614.714 11.32 614.574 10.7467 614.574 10.12ZM616.434 10.12C616.434 10.4133 616.494 10.6933 616.614 10.96C616.747 11.2133 616.927 11.42 617.154 11.58C617.394 11.7267 617.667 11.8 617.974 11.8C618.307 11.8 618.587 11.7267 618.814 11.58C619.041 11.42 619.221 11.2133 619.354 10.96C619.487 10.6933 619.554 10.4133 619.554 10.12C619.554 9.81333 619.487 9.53333 619.354 9.28C619.221 9.02667 619.041 8.82667 618.814 8.68C618.587 8.53333 618.307 8.46 617.974 8.46C617.667 8.46 617.394 8.53333 617.154 8.68C616.927 8.82667 616.747 9.02667 616.614 9.28C616.494 9.53333 616.434 9.81333 616.434 10.12ZM622.934 17.86C622.934 17.2333 623.074 16.6667 623.354 16.16C623.647 15.64 624.054 15.2267 624.574 14.92C625.094 14.6133 625.681 14.46 626.334 14.46C627.014 14.46 627.607 14.6133 628.114 14.92C628.621 15.2267 629.021 15.64 629.314 16.16C629.607 16.6667 629.754 17.2333 629.754 17.86C629.754 18.4867 629.607 19.06 629.314 19.58C629.021 20.1 628.621 20.5133 628.114 20.82C627.607 21.1133 627.014 21.26 626.334 21.26C625.681 21.26 625.094 21.1133 624.574 20.82C624.054 20.5133 623.647 20.1 623.354 19.58C623.074 19.06 622.934 18.4867 622.934 17.86ZM624.774 17.86C624.774 18.1533 624.834 18.4333 624.954 18.7C625.087 18.9533 625.267 19.16 625.494 19.32C625.734 19.4667 626.014 19.54 626.334 19.54C626.667 19.54 626.947 19.4667 627.174 19.32C627.401 19.16 627.574 18.9533 627.694 18.7C627.827 18.4333 627.894 18.1533 627.894 17.86C627.894 17.5667 627.827 17.2933 627.694 17.04C627.574 16.7867 627.401 16.5867 627.174 16.44C626.947 16.28 626.667 16.2 626.334 16.2C626.014 16.2 625.734 16.28 625.494 16.44C625.267 16.5867 625.087 16.7867 624.954 17.04C624.834 17.28 624.774 17.5533 624.774 17.86ZM625.934 7H628.094L618.394 21H616.234L625.934 7Z" fill="black"/>
<path d="M885.719 10.16V7H897.139L890.379 21H886.719L892.179 10.16H885.719ZM909.27 16.52C909.27 17.3467 909.103 18.06 908.77 18.66C908.45 19.26 908.01 19.7533 907.45 20.14C906.903 20.5267 906.297 20.8133 905.63 21C904.963 21.1733 904.29 21.26 903.61 21.26C902.757 21.26 901.983 21.1733 901.29 21C900.61 20.84 900.003 20.62 899.47 20.34C898.937 20.06 898.45 19.76 898.01 19.44L899.33 16.66C899.717 16.98 900.11 17.2533 900.51 17.48C900.923 17.6933 901.337 17.8667 901.75 18C902.163 18.12 902.537 18.18 902.87 18.18C903.443 18.18 903.93 18.1067 904.33 17.96C904.73 17.8133 905.037 17.5867 905.25 17.28C905.463 16.9733 905.57 16.6 905.57 16.16C905.57 15.6933 905.437 15.32 905.17 15.04C904.917 14.7467 904.583 14.5333 904.17 14.4C903.77 14.2667 903.337 14.2 902.87 14.2C902.51 14.2 902.11 14.2267 901.67 14.28C901.243 14.32 900.797 14.4067 900.33 14.54C899.877 14.66 899.41 14.84 898.93 15.08L900.89 7H908.97V9.92H903.37L902.57 12.42C902.943 12.2467 903.33 12.1267 903.73 12.06C904.143 11.98 904.57 11.94 905.01 11.94C905.757 11.94 906.45 12.12 907.09 12.48C907.743 12.84 908.27 13.36 908.67 14.04C909.07 14.72 909.27 15.5467 909.27 16.52ZM910.521 10.32C910.521 9.62667 910.681 9.00667 911.001 8.46C911.334 7.9 911.787 7.45333 912.361 7.12C912.934 6.78667 913.581 6.62 914.301 6.62C915.021 6.62 915.661 6.78667 916.221 7.12C916.794 7.45333 917.247 7.9 917.581 8.46C917.914 9.00667 918.081 9.62667 918.081 10.32C918.081 10.9867 917.914 11.6067 917.581 12.18C917.247 12.74 916.794 13.1867 916.221 13.52C915.661 13.84 915.021 14 914.301 14C913.581 14 912.934 13.84 912.361 13.52C911.787 13.1867 911.334 12.74 911.001 12.18C910.681 11.6067 910.521 10.9867 910.521 10.32ZM913.001 10.3C913.001 10.54 913.054 10.7667 913.161 10.98C913.281 11.18 913.434 11.34 913.621 11.46C913.821 11.58 914.041 11.64 914.281 11.64C914.547 11.64 914.774 11.58 914.961 11.46C915.161 11.34 915.314 11.18 915.421 10.98C915.527 10.7667 915.581 10.5467 915.581 10.32C915.581 10.0667 915.527 9.84 915.421 9.64C915.314 9.44 915.161 9.28 914.961 9.16C914.774 9.04 914.547 8.98 914.281 8.98C914.041 8.98 913.821 9.04 913.621 9.16C913.434 9.28 913.281 9.44 913.161 9.64C913.054 9.84 913.001 10.06 913.001 10.3ZM920.421 17.68C920.421 17 920.587 16.38 920.921 15.82C921.254 15.26 921.707 14.8133 922.281 14.48C922.854 14.1467 923.494 13.98 924.201 13.98C924.921 13.98 925.567 14.1467 926.141 14.48C926.714 14.8133 927.161 15.26 927.481 15.82C927.814 16.38 927.981 17 927.981 17.68C927.981 18.36 927.814 18.98 927.481 19.54C927.161 20.1 926.714 20.5467 926.141 20.88C925.567 21.2133 924.921 21.38 924.201 21.38C923.494 21.38 922.854 21.2133 922.281 20.88C921.707 20.5467 921.254 20.1 920.921 19.54C920.587 18.98 920.421 18.36 920.421 17.68ZM922.921 17.68C922.921 17.9067 922.974 18.1267 923.081 18.34C923.187 18.54 923.334 18.7 923.521 18.82C923.721 18.94 923.947 19 924.201 19C924.454 19 924.674 18.94 924.861 18.82C925.061 18.7 925.214 18.54 925.321 18.34C925.441 18.1267 925.501 17.9067 925.501 17.68C925.501 17.44 925.441 17.22 925.321 17.02C925.214 16.8067 925.061 16.64 924.861 16.52C924.674 16.4 924.454 16.34 924.201 16.34C923.947 16.34 923.721 16.4 923.521 16.52C923.334 16.64 923.187 16.8 923.081 17C922.974 17.2 922.921 17.4267 922.921 17.68ZM923.061 7H926.181L915.441 21H912.321L923.061 7Z" fill="#367588"/>
<path d="M332.4 22L338.88 15.18C339.213 14.82 339.5 14.4733 339.74 14.14C339.98 13.8067 340.16 13.4733 340.28 13.14C340.4 12.8067 340.46 12.4533 340.46 12.08C340.46 11.8133 340.407 11.5533 340.3 11.3C340.207 11.0333 340.053 10.7933 339.84 10.58C339.64 10.3667 339.393 10.2 339.1 10.08C338.807 9.94667 338.467 9.88 338.08 9.88C337.547 9.88 337.087 10.0067 336.7 10.26C336.313 10.5 336.013 10.8533 335.8 11.32C335.6 11.7867 335.5 12.3267 335.5 12.94H333.16C333.16 11.94 333.347 11.0533 333.72 10.28C334.107 9.49333 334.673 8.88 335.42 8.44C336.167 7.98667 337.067 7.76 338.12 7.76C338.933 7.76 339.64 7.89333 340.24 8.16C340.84 8.41333 341.333 8.74667 341.72 9.16C342.12 9.57333 342.42 10.0267 342.62 10.52C342.82 11.0133 342.92 11.4933 342.92 11.96C342.92 12.6933 342.74 13.4 342.38 14.08C342.02 14.76 341.553 15.3667 340.98 15.9L337.02 19.8H343.08V22H332.4ZM355.21 17.44C355.21 18.2533 355.064 18.96 354.77 19.56C354.49 20.16 354.104 20.66 353.61 21.06C353.117 21.4467 352.564 21.74 351.95 21.94C351.337 22.1267 350.69 22.22 350.01 22.22C349.157 22.22 348.397 22.1067 347.73 21.88C347.077 21.6533 346.51 21.3533 346.03 20.98C345.55 20.5933 345.13 20.18 344.77 19.74L346.17 18.02C346.45 18.3933 346.777 18.7333 347.15 19.04C347.524 19.3333 347.93 19.5733 348.37 19.76C348.824 19.9333 349.27 20.02 349.71 20.02C350.337 20.02 350.87 19.9133 351.31 19.7C351.75 19.4733 352.084 19.16 352.31 18.76C352.55 18.3467 352.67 17.86 352.67 17.3C352.67 16.7267 352.537 16.24 352.27 15.84C352.004 15.44 351.644 15.1333 351.19 14.92C350.737 14.7067 350.244 14.6 349.71 14.6C349.297 14.6 348.89 14.6333 348.49 14.7C348.104 14.7533 347.704 14.86 347.29 15.02C346.89 15.18 346.45 15.4067 345.97 15.7L347.87 8H355.07V10.08H349.65L348.77 13.28C349.117 13.1067 349.477 12.98 349.85 12.9C350.224 12.82 350.604 12.78 350.99 12.78C351.764 12.78 352.47 12.9733 353.11 13.36C353.75 13.7467 354.257 14.2867 354.63 14.98C355.017 15.6733 355.21 16.4933 355.21 17.44ZM356.604 11.12C356.604 10.4933 356.744 9.92667 357.024 9.42C357.317 8.9 357.724 8.48667 358.244 8.18C358.764 7.87333 359.351 7.72 360.004 7.72C360.684 7.72 361.277 7.87333 361.784 8.18C362.304 8.48667 362.704 8.9 362.984 9.42C363.277 9.92667 363.424 10.4933 363.424 11.12C363.424 11.7467 363.277 12.32 362.984 12.84C362.704 13.3467 362.304 13.7533 361.784 14.06C361.277 14.3667 360.684 14.52 360.004 14.52C359.351 14.52 358.764 14.3667 358.244 14.06C357.724 13.7533 357.317 13.3467 357.024 12.84C356.744 12.32 356.604 11.7467 356.604 11.12ZM358.464 11.12C358.464 11.4133 358.524 11.6933 358.644 11.96C358.777 12.2133 358.957 12.42 359.184 12.58C359.424 12.7267 359.697 12.8 360.004 12.8C360.337 12.8 360.617 12.7267 360.844 12.58C361.071 12.42 361.251 12.2133 361.384 11.96C361.517 11.6933 361.584 11.4133 361.584 11.12C361.584 10.8133 361.517 10.5333 361.384 10.28C361.251 10.0267 361.071 9.82667 360.844 9.68C360.617 9.53333 360.337 9.46 360.004 9.46C359.697 9.46 359.424 9.53333 359.184 9.68C358.957 9.82667 358.777 10.0267 358.644 10.28C358.524 10.5333 358.464 10.8133 358.464 11.12ZM364.964 18.86C364.964 18.2333 365.104 17.6667 365.384 17.16C365.677 16.64 366.084 16.2267 366.604 15.92C367.124 15.6133 367.711 15.46 368.364 15.46C369.044 15.46 369.637 15.6133 370.144 15.92C370.651 16.2267 371.051 16.64 371.344 17.16C371.637 17.6667 371.784 18.2333 371.784 18.86C371.784 19.4867 371.637 20.06 371.344 20.58C371.051 21.1 370.651 21.5133 370.144 21.82C369.637 22.1133 369.044 22.26 368.364 22.26C367.711 22.26 367.124 22.1133 366.604 21.82C366.084 21.5133 365.677 21.1 365.384 20.58C365.104 20.06 364.964 19.4867 364.964 18.86ZM366.804 18.86C366.804 19.1533 366.864 19.4333 366.984 19.7C367.117 19.9533 367.297 20.16 367.524 20.32C367.764 20.4667 368.044 20.54 368.364 20.54C368.697 20.54 368.977 20.4667 369.204 20.32C369.431 20.16 369.604 19.9533 369.724 19.7C369.857 19.4333 369.924 19.1533 369.924 18.86C369.924 18.5667 369.857 18.2933 369.724 18.04C369.604 17.7867 369.431 17.5867 369.204 17.44C368.977 17.28 368.697 17.2 368.364 17.2C368.044 17.2 367.764 17.28 367.524 17.44C367.297 17.5867 367.117 17.7867 366.984 18.04C366.864 18.28 366.804 18.5533 366.804 18.86ZM367.964 8H370.124L360.424 22H358.264L367.964 8Z" fill="black"/>
<path d="M1195.5 10.28V8.04L1201.08 6.78V21H1198.76V9.38L1195.5 10.28ZM1206.59 14C1206.59 14.7467 1206.67 15.4333 1206.81 16.06C1206.96 16.6867 1207.17 17.2267 1207.43 17.68C1207.71 18.1333 1208.05 18.4867 1208.43 18.74C1208.82 18.98 1209.25 19.1 1209.73 19.1C1210.21 19.1 1210.64 18.98 1211.01 18.74C1211.4 18.4867 1211.73 18.1333 1211.99 17.68C1212.27 17.2267 1212.49 16.6867 1212.63 16.06C1212.78 15.4333 1212.85 14.7467 1212.85 14C1212.85 13.2533 1212.78 12.5667 1212.63 11.94C1212.49 11.3133 1212.27 10.7733 1211.99 10.32C1211.73 9.86667 1211.4 9.52 1211.01 9.28C1210.64 9.02667 1210.21 8.9 1209.73 8.9C1209.25 8.9 1208.82 9.02667 1208.43 9.28C1208.05 9.52 1207.71 9.86667 1207.43 10.32C1207.17 10.7733 1206.96 11.3133 1206.81 11.94C1206.67 12.5667 1206.59 13.2533 1206.59 14ZM1204.27 14C1204.27 12.5467 1204.5 11.28 1204.95 10.2C1205.42 9.12 1206.06 8.28 1206.87 7.68C1207.7 7.08 1208.65 6.78 1209.73 6.78C1210.83 6.78 1211.78 7.08 1212.59 7.68C1213.41 8.28 1214.04 9.12 1214.49 10.2C1214.95 11.28 1215.17 12.5467 1215.17 14C1215.17 15.4533 1214.95 16.72 1214.49 17.8C1214.04 18.88 1213.41 19.72 1212.59 20.32C1211.78 20.92 1210.83 21.22 1209.73 21.22C1208.65 21.22 1207.7 20.92 1206.87 20.32C1206.06 19.72 1205.42 18.88 1204.95 17.8C1204.5 16.72 1204.27 15.4533 1204.27 14ZM1219.09 14C1219.09 14.7467 1219.17 15.4333 1219.31 16.06C1219.46 16.6867 1219.67 17.2267 1219.93 17.68C1220.21 18.1333 1220.55 18.4867 1220.93 18.74C1221.32 18.98 1221.75 19.1 1222.23 19.1C1222.71 19.1 1223.14 18.98 1223.51 18.74C1223.9 18.4867 1224.23 18.1333 1224.49 17.68C1224.77 17.2267 1224.99 16.6867 1225.13 16.06C1225.28 15.4333 1225.35 14.7467 1225.35 14C1225.35 13.2533 1225.28 12.5667 1225.13 11.94C1224.99 11.3133 1224.77 10.7733 1224.49 10.32C1224.23 9.86667 1223.9 9.52 1223.51 9.28C1223.14 9.02667 1222.71 8.9 1222.23 8.9C1221.75 8.9 1221.32 9.02667 1220.93 9.28C1220.55 9.52 1220.21 9.86667 1219.93 10.32C1219.67 10.7733 1219.46 11.3133 1219.31 11.94C1219.17 12.5667 1219.09 13.2533 1219.09 14ZM1216.77 14C1216.77 12.5467 1217 11.28 1217.45 10.2C1217.92 9.12 1218.56 8.28 1219.37 7.68C1220.2 7.08 1221.15 6.78 1222.23 6.78C1223.33 6.78 1224.28 7.08 1225.09 7.68C1225.91 8.28 1226.54 9.12 1226.99 10.2C1227.45 11.28 1227.67 12.5467 1227.67 14C1227.67 15.4533 1227.45 16.72 1226.99 17.8C1226.54 18.88 1225.91 19.72 1225.09 20.32C1224.28 20.92 1223.33 21.22 1222.23 21.22C1221.15 21.22 1220.2 20.92 1219.37 20.32C1218.56 19.72 1217.92 18.88 1217.45 17.8C1217 16.72 1216.77 15.4533 1216.77 14ZM1229.07 10.12C1229.07 9.49333 1229.21 8.92667 1229.49 8.42C1229.79 7.9 1230.19 7.48667 1230.71 7.18C1231.23 6.87333 1231.82 6.72 1232.47 6.72C1233.15 6.72 1233.75 6.87333 1234.25 7.18C1234.77 7.48667 1235.17 7.9 1235.45 8.42C1235.75 8.92667 1235.89 9.49333 1235.89 10.12C1235.89 10.7467 1235.75 11.32 1235.45 11.84C1235.17 12.3467 1234.77 12.7533 1234.25 13.06C1233.75 13.3667 1233.15 13.52 1232.47 13.52C1231.82 13.52 1231.23 13.3667 1230.71 13.06C1230.19 12.7533 1229.79 12.3467 1229.49 11.84C1229.21 11.32 1229.07 10.7467 1229.07 10.12ZM1230.93 10.12C1230.93 10.4133 1230.99 10.6933 1231.11 10.96C1231.25 11.2133 1231.43 11.42 1231.65 11.58C1231.89 11.7267 1232.17 11.8 1232.47 11.8C1232.81 11.8 1233.09 11.7267 1233.31 11.58C1233.54 11.42 1233.72 11.2133 1233.85 10.96C1233.99 10.6933 1234.05 10.4133 1234.05 10.12C1234.05 9.81333 1233.99 9.53333 1233.85 9.28C1233.72 9.02667 1233.54 8.82667 1233.31 8.68C1233.09 8.53333 1232.81 8.46 1232.47 8.46C1232.17 8.46 1231.89 8.53333 1231.65 8.68C1231.43 8.82667 1231.25 9.02667 1231.11 9.28C1230.99 9.53333 1230.93 9.81333 1230.93 10.12ZM1237.43 17.86C1237.43 17.2333 1237.57 16.6667 1237.85 16.16C1238.15 15.64 1238.55 15.2267 1239.07 14.92C1239.59 14.6133 1240.18 14.46 1240.83 14.46C1241.51 14.46 1242.11 14.6133 1242.61 14.92C1243.12 15.2267 1243.52 15.64 1243.81 16.16C1244.11 16.6667 1244.25 17.2333 1244.25 17.86C1244.25 18.4867 1244.11 19.06 1243.81 19.58C1243.52 20.1 1243.12 20.5133 1242.61 20.82C1242.11 21.1133 1241.51 21.26 1240.83 21.26C1240.18 21.26 1239.59 21.1133 1239.07 20.82C1238.55 20.5133 1238.15 20.1 1237.85 19.58C1237.57 19.06 1237.43 18.4867 1237.43 17.86ZM1239.27 17.86C1239.27 18.1533 1239.33 18.4333 1239.45 18.7C1239.59 18.9533 1239.77 19.16 1239.99 19.32C1240.23 19.4667 1240.51 19.54 1240.83 19.54C1241.17 19.54 1241.45 19.4667 1241.67 19.32C1241.9 19.16 1242.07 18.9533 1242.19 18.7C1242.33 18.4333 1242.39 18.1533 1242.39 17.86C1242.39 17.5667 1242.33 17.2933 1242.19 17.04C1242.07 16.7867 1241.9 16.5867 1241.67 16.44C1241.45 16.28 1241.17 16.2 1240.83 16.2C1240.51 16.2 1240.23 16.28 1239.99 16.44C1239.77 16.5867 1239.59 16.7867 1239.45 17.04C1239.33 17.28 1239.27 17.5533 1239.27 17.86ZM1240.43 7H1242.59L1232.89 21H1230.73L1240.43 7Z" fill="black"/>
<defs>
<linearGradient id="paint0_linear_924_1501" x1="662.997" y1="80.8862" x2="664.231" y2="131.441" gradientUnits="userSpaceOnUse">
<stop stop-color="#B3B3B3"/>
<stop offset="0.24" stop-color="#B6B6B6"/>
<stop offset="0.46" stop-color="#C2C2C2"/>
<stop offset="0.68" stop-color="#D5D5D5"/>
<stop offset="0.9" stop-color="#F0F0F0"/>
<stop offset="0.99" stop-color="white"/>
</linearGradient>
<linearGradient id="paint1_linear_924_1501" x1="80.3818" y1="94.0369" x2="90.3375" y2="116.688" gradientUnits="userSpaceOnUse">
<stop stop-color="#367588"/>
<stop offset="1" stop-color="#367588"/>
</linearGradient>
<linearGradient id="paint2_linear_924_1501" x1="509.35" y1="103.075" x2="510.815" y2="141.702" gradientUnits="userSpaceOnUse">
<stop stop-color="#367588"/>
<stop offset="1" stop-color="#1E9F76"/>
</linearGradient>
<radialGradient id="paint3_radial_924_1501" cx="0" cy="0" r="1" gradientUnits="userSpaceOnUse" gradientTransform="translate(69.2855 127.307) scale(72.2189 69.4197)">
<stop stop-color="#4D4D4D"/>
<stop offset="0.05" stop-color="#5C5C5C"/>
<stop offset="0.22" stop-color="#8D8D8D"/>
<stop offset="0.39" stop-color="#B6B6B6"/>
<stop offset="0.56" stop-color="#D5D5D5"/>
<stop offset="0.72" stop-color="#ECECEC"/>
<stop offset="0.87" stop-color="#FAFAFA"/>
<stop offset="1" stop-color="white"/>
</radialGradient>
<linearGradient id="paint4_linear_924_1501" x1="89.3913" y1="83.2716" x2="91.2832" y2="137.044" gradientUnits="userSpaceOnUse">
<stop stop-color="#367588"/>
<stop offset="1" stop-color="#28A9D0"/>
</linearGradient>
<linearGradient id="paint5_linear_924_1501" x1="90.6328" y1="80.2776" x2="93.4346" y2="127.83" gradientUnits="userSpaceOnUse">
<stop stop-color="#367588"/>
<stop offset="1" stop-color="#367588"/>
</linearGradient>
</defs>
</svg>
