<svg width="42" height="37" viewBox="0 0 42 37" fill="none" xmlns="http://www.w3.org/2000/svg">
<path d="M9.05625 33.2688L7.29375 36.2688C7.15882 36.4913 6.96897 36.6754 6.74243 36.8035C6.51588 36.9315 6.26023 36.9992 6 37C5.73065 36.9958 5.46654 36.9249 5.23125 36.7938C4.89093 36.5874 4.64525 36.2556 4.54706 35.8699C4.44888 35.4841 4.50604 35.0753 4.70625 34.7313L6.4875 31.7313C6.58126 31.5488 6.71145 31.3875 6.87003 31.2574C7.02861 31.1272 7.2122 31.031 7.40945 30.9746C7.6067 30.9182 7.81343 30.9029 8.01683 30.9296C8.22024 30.9563 8.41601 31.0244 8.59204 31.1298C8.76807 31.2351 8.92062 31.3755 9.04025 31.5421C9.15988 31.7088 9.24405 31.8982 9.28756 32.0987C9.33107 32.2992 9.33299 32.5065 9.2932 32.7077C9.25342 32.909 9.17277 33.0999 9.05625 33.2688ZM40.5 25H31.5375L25.7812 15.25C25.6808 15.0796 25.5476 14.9308 25.3893 14.8121C25.2311 14.6934 25.0509 14.6072 24.8592 14.5584C24.6675 14.5096 24.4681 14.4992 24.2724 14.5278C24.0766 14.5564 23.8885 14.6234 23.7188 14.725C23.549 14.8237 23.4006 14.9552 23.2821 15.1117C23.1636 15.2683 23.0774 15.4469 23.0286 15.637C22.9797 15.8272 22.9692 16.0252 22.9975 16.2195C23.0259 16.4138 23.0926 16.6005 23.1937 16.7688L34.7063 36.2688C34.8412 36.4913 35.031 36.6754 35.2576 36.8035C35.4841 36.9315 35.7398 36.9992 36 37C36.2693 36.9958 36.5335 36.9249 36.7688 36.7938C37.1091 36.5874 37.3548 36.2556 37.4529 35.8699C37.5511 35.4841 37.494 35.0753 37.2937 34.7313L33.3187 28H40.5C40.8978 28 41.2794 27.842 41.5607 27.5607C41.842 27.2794 42 26.8979 42 26.5C42 26.1022 41.842 25.7207 41.5607 25.4394C41.2794 25.1581 40.8978 25 40.5 25ZM23.7188 25H13.95L26.7937 3.26878C26.8947 3.09888 26.9612 2.91077 26.9895 2.71517C27.0177 2.51957 27.0072 2.32032 26.9584 2.1288C26.9097 1.93728 26.8237 1.75724 26.7053 1.59895C26.587 1.44066 26.4386 1.30723 26.2688 1.20628C26.0989 1.10533 25.9107 1.03883 25.7151 1.01057C25.5195 0.982322 25.3203 0.992873 25.1288 1.04162C24.9372 1.09037 24.7572 1.17637 24.5989 1.2947C24.4406 1.41303 24.3072 1.56138 24.2063 1.73128L21 7.16878L17.7938 1.73128C17.6928 1.56138 17.5594 1.41303 17.4011 1.2947C17.2428 1.17637 17.0628 1.09037 16.8712 1.04162C16.6797 0.992873 16.4805 0.982322 16.2849 1.01057C16.0893 1.03883 15.9011 1.10533 15.7313 1.20628C15.5614 1.30723 15.413 1.44066 15.2947 1.59895C15.1763 1.75724 15.0903 1.93728 15.0416 2.1288C14.9928 2.32032 14.9823 2.51957 15.0105 2.71517C15.0388 2.91077 15.1053 3.09888 15.2062 3.26878L19.2562 10.1125L10.4625 25H1.5C1.10218 25 0.720644 25.1581 0.43934 25.4394C0.158035 25.7207 0 26.1022 0 26.5C0 26.8979 0.158035 27.2794 0.43934 27.5607C0.720644 27.842 1.10218 28 1.5 28H23.7188C24.1166 28 24.4981 27.842 24.7794 27.5607C25.0607 27.2794 25.2188 26.8979 25.2188 26.5C25.2188 26.1022 25.0607 25.7207 24.7794 25.4394C24.4981 25.1581 24.1166 25 23.7188 25Z" fill="black"/>
</svg>
