<svg width="30" height="38" viewBox="0 0 30 38" fill="none" xmlns="http://www.w3.org/2000/svg">
<path d="M26.7187 16.0227L26.1648 14.7443L24.8864 14.1903C24.6591 14.0767 24.5455 13.892 24.5455 13.6364C24.5455 13.3807 24.6591 13.196 24.8864 13.0824L26.1648 12.5284L26.7187 11.25C26.8324 11.0227 27.017 10.9091 27.2727 10.9091C27.5284 10.9091 27.7131 11.0227 27.8267 11.25L28.3807 12.5284L29.6591 13.0824C29.8864 13.196 30 13.3807 30 13.6364C30 13.892 29.8864 14.0767 29.6591 14.1903L28.3807 14.7443L27.8267 16.0227C27.7131 16.25 27.5284 16.3636 27.2727 16.3636C27.017 16.3636 26.8324 16.25 26.7187 16.0227ZM17.983 23.8636L16.6193 20.8807L13.6364 19.517C13.2955 19.375 13.125 19.1193 13.125 18.75C13.125 18.3807 13.2955 18.125 13.6364 17.983L16.6193 16.6193L17.983 13.6364C18.125 13.2955 18.3807 13.125 18.75 13.125C19.1193 13.125 19.375 13.2955 19.517 13.6364L20.8807 16.6193L23.8636 17.983C24.2045 18.125 24.375 18.3807 24.375 18.75C24.375 19.1193 24.2045 19.375 23.8636 19.517L20.8807 20.8807L19.517 23.8636C19.375 24.2045 19.1193 24.375 18.75 24.375C18.3807 24.375 18.125 24.2045 17.983 23.8636ZM26.7187 26.25L26.1648 24.9716L24.8864 24.4176C24.6591 24.304 24.5455 24.1193 24.5455 23.8636C24.5455 23.608 24.6591 23.4233 24.8864 23.3097L26.1648 22.7557L26.7187 21.4773C26.8324 21.25 27.017 21.1364 27.2727 21.1364C27.5284 21.1364 27.7131 21.25 27.8267 21.4773L28.3807 22.7557L29.6591 23.3097C29.8864 23.4233 30 23.608 30 23.8636C30 24.1193 29.8864 24.304 29.6591 24.4176L28.3807 24.9716L27.8267 26.25C27.7131 26.4773 27.5284 26.5909 27.2727 26.5909C27.017 26.5909 26.8324 26.4773 26.7187 26.25ZM20.4545 32.3864H3.40909V34.0909H20.4545V32.3864ZM20.4545 5.11364V3.40909H3.40909V5.11364H20.4545ZM3.40909 37.5C2.47159 37.5 1.66875 37.1659 1.00057 36.4977C0.332389 35.8295 -0.00113347 35.0273 2.89397e-06 34.0909V3.40909C2.89397e-06 2.47159 0.334093 1.66875 1.00228 1.00057C1.67046 0.332389 2.47273 -0.00113347 3.40909 2.89396e-06H20.4545C21.392 2.89396e-06 22.1949 0.334094 22.8631 1.00228C23.5312 1.67046 23.8648 2.47273 23.8636 3.40909V10.2273H20.4545V8.52273H3.40909V28.9773H20.4545V27.2727H23.8636V34.0909C23.8636 35.0284 23.5295 35.8313 22.8614 36.4994C22.1932 37.1676 21.3909 37.5011 20.4545 37.5H3.40909Z" fill="black"/>
</svg>
