<svg width="40" height="33" viewBox="0 0 40 33" fill="none" xmlns="http://www.w3.org/2000/svg">
<path d="M10 33C7.24242 33 4.88606 31.9104 2.93091 29.7311C0.975758 27.5519 -0.00121099 24.8884 1.12651e-06 21.7406C1.12651e-06 19.0425 0.712122 16.6384 2.13636 14.5283C3.56061 12.4182 5.42424 11.0692 7.72727 10.4811C8.24242 7.99057 9.5303 5.62107 11.5909 3.37264C13.6515 1.12421 15.8485 0 18.1818 0C19.1818 0 20.0382 0.406793 20.7509 1.22038C21.4636 2.03396 21.8194 3.01082 21.8182 4.15094V16.7075L24.7273 13.4906L27.2727 16.3962L20 24.6981L12.7273 16.3962L15.2727 13.4906L18.1818 16.7075V4.15094C15.8788 4.63522 14.0909 5.90679 12.8182 7.96566C11.5455 10.0245 10.9091 12.1429 10.9091 14.3208H10C8.24242 14.3208 6.74242 15.0299 5.5 16.4481C4.25758 17.8664 3.63636 19.5786 3.63636 21.5849C3.63636 23.5912 4.25758 25.3035 5.5 26.7217C6.74242 28.1399 8.24242 28.8491 10 28.8491H31.8182C33.0909 28.8491 34.1667 28.3475 35.0455 27.3443C35.9242 26.3412 36.3636 25.1132 36.3636 23.6604C36.3636 22.2075 35.9242 20.9796 35.0455 19.9764C34.1667 18.9733 33.0909 18.4717 31.8182 18.4717H29.0909V14.3208C29.0909 12.6604 28.7576 11.1121 28.0909 9.67585C27.4242 8.23962 26.5455 7.02063 25.4545 6.01887V1.1934C27.697 2.40409 29.4697 4.19453 30.7727 6.56472C32.0758 8.93491 32.7273 11.5203 32.7273 14.3208C34.8182 14.5975 36.5533 15.6269 37.9327 17.4091C39.3121 19.1912 40.0012 21.275 40 23.6604C40 26.2547 39.2042 28.4602 37.6127 30.277C36.0212 32.0937 34.0897 33.0014 31.8182 33H10Z" fill="black" fill-opacity="0.7"/>
</svg>
