<svg width="63" height="75" viewBox="0 0 63 75" fill="none" xmlns="http://www.w3.org/2000/svg">
<path d="M46.2117 12.4869C47.6287 14.9669 56.7607 9.92552 59.4384 12.3371C60.1999 12.9606 60.8202 13.7388 61.2582 14.6202C61.6962 15.5016 61.9419 16.466 61.9791 17.4495C61.868 20.6528 58.9333 22.5839 57.426 23.5746C55.0799 25.0699 52.3248 25.7934 49.5468 25.6438C40.146 33.6521 31.466 47.9948 28.1826 53.9494C27.2997 55.6979 27.1239 57.7193 27.6918 59.594C28.3553 61.798 28.3481 64.1495 27.6711 66.3494C27.4425 67.0637 25.7272 72.4422 21.3897 73.0919C20.2466 73.224 19.0883 73.0813 18.0114 72.6758C16.9344 72.2703 15.9697 71.6137 15.1975 70.7604C13.1605 68.4651 12.2473 62.0159 8.32324 62.5106" stroke="black" stroke-width="2" stroke-linecap="round" stroke-linejoin="round"/>
<path d="M16.7879 61.9603C15.3709 59.4803 6.23755 64.5217 3.56122 62.1101C2.79972 61.4866 2.17942 60.7084 1.7414 59.827C1.30339 58.9456 1.05766 57.9812 1.02051 56.9977C1.1303 53.7944 4.06626 51.8633 5.57363 50.8726C7.88275 49.3703 10.6037 48.6274 13.3559 48.7478C22.6524 41.4064 30.0527 31.9425 34.9358 21.1501C35.7828 19.1569 35.9138 16.932 35.3065 14.8532C34.643 12.6492 34.6502 10.2977 35.3272 8.09779C35.5558 7.38479 37.2711 2.005 41.6086 1.35529C42.7517 1.22321 43.91 1.36584 44.9869 1.77134C46.0639 2.17684 47.0286 2.83349 47.8008 3.68675C49.8378 5.98204 50.751 12.4313 54.6751 11.9366" stroke="black" stroke-width="2" stroke-linecap="round" stroke-linejoin="round"/>
</svg>
