<svg width="9" height="9" viewBox="0 0 9 9" fill="none" xmlns="http://www.w3.org/2000/svg">
<path d="M6.5625 8.62502C3.15078 8.62502 0.375 5.84924 0.375 2.43752C0.37629 1.85231 0.590047 1.28748 0.976529 0.848044C1.36301 0.408608 1.89592 0.12447 2.47617 0.0484562C2.62409 0.0320554 2.77339 0.0631983 2.90241 0.137369C3.03144 0.211539 3.13348 0.32488 3.19375 0.460956L4.05742 2.47619C4.10222 2.58079 4.12018 2.69493 4.10968 2.80824C4.09917 2.92155 4.06053 3.03043 3.99727 3.12502L3.28398 4.21642C3.60697 4.87191 4.13917 5.40108 4.79648 5.72033L5.875 5.00275C5.96949 4.93906 6.07865 4.90051 6.19217 4.89073C6.3057 4.88096 6.41985 4.90029 6.52383 4.94689L8.53906 5.80627C8.67514 5.86653 8.78848 5.96858 8.86265 6.09761C8.93682 6.22663 8.96796 6.37593 8.95156 6.52385C8.87555 7.1041 8.59141 7.63701 8.15198 8.02349C7.71254 8.40997 7.14771 8.62373 6.5625 8.62502ZM2.56211 0.731659C2.14744 0.784965 1.76642 0.987587 1.49038 1.30159C1.21434 1.61559 1.06222 2.01944 1.0625 2.43752C1.06364 3.89586 1.64347 5.29415 2.67467 6.32535C3.70587 7.35655 5.10416 7.93638 6.5625 7.93752C6.98058 7.93779 7.38443 7.78567 7.69843 7.50964C8.01243 7.2336 8.21505 6.85258 8.26836 6.43791L6.25313 5.57853L5.17891 6.29611C5.08007 6.36146 4.96601 6.40014 4.84782 6.40843C4.72962 6.41671 4.61128 6.3943 4.5043 6.34338C3.70376 5.95614 3.05622 5.31162 2.66523 4.51291C2.61368 4.40628 2.59055 4.28815 2.59808 4.16996C2.60561 4.05177 2.64354 3.93752 2.7082 3.8383L3.42578 2.74689L2.56211 0.731659Z" fill="black"/>
</svg>
