<svg width="26" height="23" viewBox="0 0 26 23" fill="none" xmlns="http://www.w3.org/2000/svg">
<path d="M24.2625 22.375C21.2167 22.375 18.2478 21.7958 15.3559 20.6374C12.464 19.479 9.90222 17.9485 7.6705 16.0458C5.43878 14.143 3.64433 11.958 2.28717 9.49054C0.93 7.02313 0.250944 4.49086 0.25 1.89375C0.25 1.53125 0.391667 1.22917 0.675 0.9875C0.958333 0.745833 1.3125 0.625 1.7375 0.625H7.475C7.80556 0.625 8.10069 0.715625 8.36042 0.896875C8.62014 1.07812 8.77361 1.30972 8.82083 1.59167L9.74167 5.82083C9.78889 6.10278 9.78275 6.35975 9.72325 6.59175C9.66375 6.82375 9.52822 7.02997 9.31667 7.21042L5.88125 10.1708C6.87292 11.6208 8.11864 12.9802 9.61842 14.249C11.1182 15.5177 12.7648 16.6153 14.5583 17.5417L17.8875 14.7021C18.1 14.5208 18.3777 14.3847 18.7205 14.2937C19.0633 14.2026 19.3996 14.1777 19.7292 14.2188L24.6167 15.0646C24.9472 15.125 25.2187 15.2611 25.4312 15.473C25.6437 15.6849 25.75 15.9314 25.75 16.2125V21.1063C25.75 21.4688 25.6083 21.7708 25.325 22.0125C25.0417 22.2542 24.6875 22.375 24.2625 22.375ZM4.53542 7.875L6.87292 5.88125L6.27083 3.04167H3.11875C3.23681 3.86736 3.40208 4.68299 3.61458 5.48854C3.82708 6.2941 4.13403 7.08958 4.53542 7.875ZM22.9167 19.8979V17.2396L19.5875 16.6656L17.2146 18.6896C18.1354 19.0319 19.0737 19.3038 20.0295 19.5052C20.9853 19.7066 21.9477 19.8375 22.9167 19.8979Z" fill="black"/>
</svg>
