<svg width="40" height="30" viewBox="0 0 40 30" fill="none" xmlns="http://www.w3.org/2000/svg">
<path d="M12.5 15C13.8261 15 15.0979 14.4732 16.0355 13.5355C16.9732 12.5979 17.5 11.3261 17.5 10C17.5 8.67392 16.9732 7.40215 16.0355 6.46447C15.0979 5.52678 13.8261 5 12.5 5C11.1739 5 9.90215 5.52678 8.96447 6.46447C8.02678 7.40215 7.5 8.67392 7.5 10C7.5 11.3261 8.02678 12.5979 8.96447 13.5355C9.90215 14.4732 11.1739 15 12.5 15ZM22.5 8.75C22.5 8.41848 22.6317 8.10054 22.8661 7.86612C23.1005 7.6317 23.4185 7.5 23.75 7.5H33.75C34.0815 7.5 34.3995 7.6317 34.6339 7.86612C34.8683 8.10054 35 8.41848 35 8.75C35 9.08152 34.8683 9.39946 34.6339 9.63388C34.3995 9.8683 34.0815 10 33.75 10H23.75C23.4185 10 23.1005 9.8683 22.8661 9.63388C22.6317 9.39946 22.5 9.08152 22.5 8.75ZM22.5 15C22.5 14.6685 22.6317 14.3505 22.8661 14.1161C23.1005 13.8817 23.4185 13.75 23.75 13.75H33.75C34.0815 13.75 34.3995 13.8817 34.6339 14.1161C34.8683 14.3505 35 14.6685 35 15C35 15.3315 34.8683 15.6495 34.6339 15.8839C34.3995 16.1183 34.0815 16.25 33.75 16.25H23.75C23.4185 16.25 23.1005 16.1183 22.8661 15.8839C22.6317 15.6495 22.5 15.3315 22.5 15ZM25 21.25C25 20.9185 25.1317 20.6005 25.3661 20.3661C25.6005 20.1317 25.9185 20 26.25 20H33.75C34.0815 20 34.3995 20.1317 34.6339 20.3661C34.8683 20.6005 35 20.9185 35 21.25C35 21.5815 34.8683 21.8995 34.6339 22.1339C34.3995 22.3683 34.0815 22.5 33.75 22.5H26.25C25.9185 22.5 25.6005 22.3683 25.3661 22.1339C25.1317 21.8995 25 21.5815 25 21.25Z" fill="black"/>
<path d="M5 0C3.67392 0 2.40215 0.526784 1.46447 1.46447C0.526784 2.40215 0 3.67392 0 5L0 25C0 26.3261 0.526784 27.5979 1.46447 28.5355C2.40215 29.4732 3.67392 30 5 30H35C36.3261 30 37.5979 29.4732 38.5355 28.5355C39.4732 27.5979 40 26.3261 40 25V5C40 3.67392 39.4732 2.40215 38.5355 1.46447C37.5979 0.526784 36.3261 0 35 0H5ZM2.5 5C2.5 4.33696 2.76339 3.70107 3.23223 3.23223C3.70107 2.76339 4.33696 2.5 5 2.5H35C35.663 2.5 36.2989 2.76339 36.7678 3.23223C37.2366 3.70107 37.5 4.33696 37.5 5V25C37.5 25.663 37.2366 26.2989 36.7678 26.7678C36.2989 27.2366 35.663 27.5 35 27.5H22.4C22.465 27.0925 22.5 26.675 22.5 26.25C22.5 21.4175 18.025 17.5 12.5 17.5C7.285 17.5 3 20.995 2.54 25.4525C2.51304 25.3032 2.49966 25.1517 2.5 25V5Z" fill="black"/>
</svg>
