<svg width="11" height="9" viewBox="0 0 11 9" fill="none" xmlns="http://www.w3.org/2000/svg">
<path d="M1.83366 8.16671C1.58158 8.16671 1.3657 8.07687 1.18603 7.89721C1.00637 7.71754 0.916687 7.50182 0.916993 7.25004V1.75004C0.916993 1.49796 1.00683 1.28208 1.18649 1.10242C1.36616 0.92275 1.58188 0.833069 1.83366 0.833375H9.16699C9.41908 0.833375 9.63495 0.923208 9.81462 1.10287C9.99428 1.28254 10.084 1.49826 10.0837 1.75004V7.25004C10.0837 7.50212 9.99383 7.718 9.81416 7.89767C9.63449 8.07733 9.41877 8.16701 9.16699 8.16671H1.83366ZM9.16699 2.66671L5.74095 4.80942C5.70276 4.83233 5.66258 4.8496 5.62041 4.86121C5.57824 4.87282 5.53822 4.87847 5.50033 4.87817C5.46213 4.87817 5.42195 4.87251 5.37978 4.86121C5.33762 4.8499 5.29759 4.83264 5.2597 4.80942L1.83366 2.66671V7.25004H9.16699V2.66671ZM5.50033 4.04171L9.16699 1.75004H1.83366L5.50033 4.04171ZM1.83366 2.78129V2.10525V2.11671V2.11121V2.78129Z" fill="black"/>
</svg>
