<svg width="37" height="37" viewBox="0 0 37 37" fill="none" xmlns="http://www.w3.org/2000/svg">
<path d="M33.3333 26.6667V11.6667H10V26.6667H33.3333ZM33.3333 3.33333C34.2174 3.33333 35.0652 3.68452 35.6904 4.30964C36.3155 4.93477 36.6667 5.78261 36.6667 6.66667V26.6667C36.6667 27.5507 36.3155 28.3986 35.6904 29.0237C35.0652 29.6488 34.2174 30 33.3333 30H10C9.11595 30 8.2681 29.6488 7.64298 29.0237C7.01786 28.3986 6.66667 27.5507 6.66667 26.6667V6.66667C6.66667 5.78261 7.01786 4.93477 7.64298 4.30964C8.2681 3.68452 9.11595 3.33333 10 3.33333H11.6667V0H15V3.33333H28.3333V0H31.6667V3.33333H33.3333ZM3.33333 33.3333H26.6667V36.6667H3.33333C2.44928 36.6667 1.60143 36.3155 0.976311 35.6904C0.35119 35.0652 0 34.2174 0 33.3333V13.3333H3.33333V33.3333ZM30 23.3333H23.3333V16.6667H30V23.3333Z" fill="black"/>
</svg>
