<svg width="98" height="98" viewBox="0 0 98 98" fill="none" xmlns="http://www.w3.org/2000/svg">
<g clip-path="url(#clip0_2_2408)">
<path d="M12.25 12.25H24.5V24.5H12.25V12.25Z" fill="black"/>
<path d="M36.75 0V36.75H0V0H36.75ZM30.625 6.125H6.125V30.625H30.625V6.125ZM24.5 73.5H12.25V85.75H24.5V73.5Z" fill="black"/>
<path d="M36.75 61.25V98H0V61.25H36.75ZM6.125 67.375V91.875H30.625V67.375H6.125ZM73.5 12.25H85.75V24.5H73.5V12.25Z" fill="black"/>
<path d="M61.25 0V36.75H98V0H61.25ZM91.875 6.125V30.625H67.375V6.125H91.875ZM49 6.125V0H55.125V12.25H49V24.5H42.875V6.125H49ZM49 36.75V24.5H55.125V36.75H49ZM36.75 49V42.875H42.875V36.75H49V49H55.125V42.875H85.75V49H61.25V55.125H42.875V49H36.75ZM36.75 49V55.125H12.25V49H6.125V55.125H0V42.875H18.375V49H36.75ZM98 55.125H91.875V42.875H98V55.125ZM91.875 55.125H85.75V67.375H98V61.25H91.875V55.125ZM67.375 55.125H79.625V61.25H73.5V67.375H67.375V55.125ZM79.625 73.5V67.375H73.5V73.5H67.375V79.625H55.125V85.75H73.5V73.5H79.625ZM79.625 73.5H98V79.625H85.75V85.75H79.625V73.5ZM55.125 67.375V73.5H61.25V61.25H42.875V67.375H55.125Z" fill="black"/>
<path d="M42.875 73.5H49V91.875H73.5V98H42.875V73.5ZM98 85.75V98H79.625V91.875H91.875V85.75H98Z" fill="black"/>
</g>
<defs>
<clipPath id="clip0_2_2408">
<rect width="98" height="98" fill="white"/>
</clipPath>
</defs>
</svg>
