<svg width="133" height="133" viewBox="0 0 133 133" fill="none" xmlns="http://www.w3.org/2000/svg">
<path d="M72.0417 116.375V105.292H83.125V116.375H72.0417ZM60.9583 105.292V77.5833H72.0417V105.292H60.9583ZM105.292 88.6667V66.5H116.375V88.6667H105.292ZM94.2083 66.5V55.4167H105.292V66.5H94.2083ZM27.7083 77.5833V66.5H38.7917V77.5833H27.7083ZM16.625 66.5V55.4167H27.7083V66.5H16.625ZM66.5 27.7083V16.625H77.5833V27.7083H66.5ZM24.9375 41.5625H41.5625V24.9375H24.9375V41.5625ZM16.625 49.875V16.625H49.875V49.875H16.625ZM24.9375 108.062H41.5625V91.4375H24.9375V108.062ZM16.625 116.375V83.125H49.875V116.375H16.625ZM91.4375 41.5625H108.062V24.9375H91.4375V41.5625ZM83.125 49.875V16.625H116.375V49.875H83.125ZM94.2083 116.375V99.75H83.125V88.6667H105.292V105.292H116.375V116.375H94.2083ZM72.0417 77.5833V66.5H94.2083V77.5833H72.0417ZM49.875 77.5833V66.5H38.7917V55.4167H72.0417V66.5H60.9583V77.5833H49.875ZM55.4167 49.875V27.7083H66.5V38.7917H77.5833V49.875H55.4167ZM29.0937 37.4062V29.0937H37.4062V37.4062H29.0937ZM29.0937 103.906V95.5937H37.4062V103.906H29.0937ZM95.5937 37.4062V29.0937H103.906V37.4062H95.5937Z" fill="black"/>
</svg>
