<svg width="126" height="123" viewBox="0 0 126 123" fill="none" xmlns="http://www.w3.org/2000/svg">
<path d="M78.75 107.625H68.25V97.375H78.75V107.625ZM68.25 71.75H57.75V97.375H68.25V71.75ZM110.25 61.5H99.75V82H110.25V61.5ZM99.75 51.25H89.25V61.5H99.75V51.25ZM36.75 61.5H26.25V71.75H36.75V61.5ZM26.25 51.25H15.75V61.5H26.25V51.25ZM63 25.625H73.5V15.375H63V25.625ZM23.625 23.0625V38.4375H39.375V23.0625H23.625ZM47.25 46.125H15.75V15.375H47.25V46.125ZM23.625 84.5625V99.9375H39.375V84.5625H23.625ZM47.25 107.625H15.75V76.875H47.25V107.625ZM86.625 23.0625V38.4375H102.375V23.0625H86.625ZM110.25 46.125H78.75V15.375H110.25V46.125ZM99.75 97.375V82H78.75V92.25H89.25V107.625H110.25V97.375H99.75ZM89.25 61.5H68.25V71.75H89.25V61.5ZM68.25 51.25H36.75V61.5H47.25V71.75H57.75V61.5H68.25V51.25ZM73.5 46.125V35.875H63V25.625H52.5V46.125H73.5ZM35.4375 26.9062H27.5625V34.5938H35.4375V26.9062ZM35.4375 88.4062H27.5625V96.0938H35.4375V88.4062ZM98.4375 26.9062H90.5625V34.5938H98.4375V26.9062Z" fill="black"/>
</svg>
