<svg width="50" height="43" viewBox="0 0 50 43" fill="none" xmlns="http://www.w3.org/2000/svg">
<path d="M13.4825 24.7355L9.49902 21.3314L14.3109 17.2194C18.6626 13.5007 25.743 13.5008 30.0947 17.2194L26.1112 20.6235C23.9563 18.7819 20.4494 18.7818 18.2943 20.6235L13.4825 24.7355Z" fill="#8B8D8E"/>
<path d="M28.0911 28.4683C25.1099 28.4683 22.3072 27.4762 20.1993 25.6747C15.8477 21.9561 15.8476 15.9055 20.1993 12.1868L29.759 4.01758C31.8671 2.21619 34.6698 1.22412 37.6509 1.22412C40.6321 1.22412 43.4348 2.21619 45.5428 4.01758C47.6508 5.81897 48.8118 8.21412 48.8118 10.7616C48.8118 13.309 47.6508 15.7042 45.5428 17.5056L35.9829 25.6748C33.875 27.4762 31.0724 28.4683 28.0911 28.4683ZM37.6509 6.03812C36.1745 6.03812 34.7865 6.52948 33.7424 7.42158L24.1827 15.5908C22.0276 17.4325 22.0276 20.4291 24.1827 22.2707C25.2266 23.1628 26.6147 23.6542 28.0911 23.6542C29.5675 23.6542 30.9555 23.1629 31.9995 22.2708L41.5593 14.1015C42.6033 13.2094 43.1783 12.0232 43.1783 10.7616C43.1783 9.49986 42.6033 8.31376 41.5593 7.42158C40.5154 6.52948 39.1273 6.03812 37.6509 6.03812Z" fill="#646768"/>
<path d="M33.5873 5.8761C33.0399 5.8761 32.5095 5.62774 32.2276 5.1887C31.8161 4.54771 32.0906 3.74299 32.8407 3.39132C35.9051 1.95503 39.5905 1.94719 42.4593 3.37096C43.1991 3.73815 43.4505 4.54838 43.0208 5.18069C42.591 5.81292 41.6431 6.02773 40.903 5.66054C38.9968 4.71437 36.4169 4.73473 34.3309 5.7127C34.1031 5.81984 33.8473 5.87604 33.5873 5.8761ZM12.6429 41.6654C9.78477 41.6654 6.92676 40.7358 4.75098 38.8766C0.399414 35.1579 0.399414 29.1072 4.75098 25.3885L11.6323 19.5082L15.6157 22.9123L8.73438 28.7927C6.5793 30.6343 6.5793 33.631 8.73438 35.4726C9.81182 36.3933 11.2275 36.8537 12.6428 36.8538C14.0584 36.854 15.4735 36.3935 16.5513 35.4726L26.111 27.3032C27.155 26.4111 27.73 25.225 27.73 23.9633C27.73 22.7017 27.1551 21.5155 26.111 20.6234L30.0945 17.2194C34.4462 20.938 34.4462 26.9887 30.0945 30.7073L20.5348 38.8767C18.359 40.7359 15.501 41.6654 12.6429 41.6654Z" fill="#8B8D8E"/>
</svg>
