<svg width="34" height="18" viewBox="0 0 34 18" fill="none" xmlns="http://www.w3.org/2000/svg">
<path d="M15.333 17.3333H8.66634C6.36079 17.3333 4.39579 16.5205 2.77134 14.895C1.14579 13.2705 0.333008 11.3055 0.333008 8.99996C0.333008 6.6944 1.14579 4.72885 2.77134 3.10329C4.39579 1.47885 6.36079 0.666626 8.66634 0.666626H15.333V3.99996H8.66634C7.27745 3.99996 6.0969 4.48607 5.12467 5.45829C4.15245 6.43051 3.66634 7.61107 3.66634 8.99996C3.66634 10.3888 4.15245 11.5694 5.12467 12.5416C6.0969 13.5138 7.27745 14 8.66634 14H15.333V17.3333ZM10.333 10.6666V7.33329H23.6663V10.6666H10.333ZM18.6663 17.3333V14H25.333C26.7219 14 27.9025 13.5138 28.8747 12.5416C29.8469 11.5694 30.333 10.3888 30.333 8.99996C30.333 7.61107 29.8469 6.43051 28.8747 5.45829C27.9025 4.48607 26.7219 3.99996 25.333 3.99996H18.6663V0.666626H25.333C27.6386 0.666626 29.6041 1.47885 31.2297 3.10329C32.8541 4.72885 33.6663 6.6944 33.6663 8.99996C33.6663 11.3055 32.8541 13.2705 31.2297 14.895C29.6041 16.5205 27.6386 17.3333 25.333 17.3333H18.6663Z" fill="black"/>
</svg>
