<svg width="9" height="11" viewBox="0 0 9 11" fill="none" xmlns="http://www.w3.org/2000/svg">
<path d="M4.49967 5.49996C4.75176 5.49996 4.96763 5.41013 5.1473 5.23046C5.32697 5.05079 5.41665 4.83507 5.41634 4.58329C5.41634 4.33121 5.32651 4.11533 5.14684 3.93567C4.96717 3.756 4.75145 3.66632 4.49967 3.66663C4.24759 3.66663 4.03172 3.75646 3.85205 3.93613C3.67238 4.11579 3.5827 4.33151 3.58301 4.58329C3.58301 4.83538 3.67284 5.05125 3.85251 5.23092C4.03217 5.41058 4.2479 5.50027 4.49967 5.49996ZM4.49967 8.86871C5.43162 8.01315 6.12294 7.23582 6.57363 6.53671C7.02433 5.8376 7.24967 5.21701 7.24967 4.67496C7.24967 3.84232 6.98415 3.16063 6.45309 2.62988C5.92204 2.09913 5.2709 1.8336 4.49967 1.83329C3.72815 1.83329 3.07685 2.09882 2.5458 2.62988C2.01474 3.16093 1.74937 3.84263 1.74967 4.67496C1.74967 5.21732 1.97502 5.83806 2.42572 6.53717C2.87641 7.23628 3.56773 8.01346 4.49967 8.86871ZM4.49967 10.0833C3.26981 9.03677 2.35131 8.06479 1.74417 7.16738C1.13704 6.26996 0.833313 5.43915 0.833008 4.67496C0.833008 3.52913 1.20166 2.61628 1.93897 1.93642C2.67627 1.25656 3.52984 0.916626 4.49967 0.916626C5.46981 0.916626 6.32354 1.25656 7.06084 1.93642C7.79815 2.61628 8.16665 3.52913 8.16634 4.67496C8.16634 5.43885 7.86262 6.26965 7.25517 7.16738C6.64773 8.0651 5.72923 9.03707 4.49967 10.0833Z" fill="black"/>
</svg>
