<svg width="50" height="50" viewBox="0 0 50 50" fill="none" xmlns="http://www.w3.org/2000/svg">
<path opacity="0.3" d="M41.6663 16.6667V25.1667C40.9788 25.0625 40.2913 25 39.583 25C32.2288 25 26.1872 30.4375 25.1663 37.5H8.33301V16.6667L24.9997 27.0833L41.6663 16.6667ZM41.6663 12.5H8.33301L24.9997 22.9167L41.6663 12.5Z" fill="black" fill-opacity="0.63"/>
<path d="M25.167 37.4999H8.33366V16.6666L25.0003 27.0833L41.667 16.6666V25.1666C43.1462 25.3749 44.542 25.8124 45.8337 26.4166V12.4999C45.8337 10.2083 43.9587 8.33325 41.667 8.33325H8.33366C6.04199 8.33325 4.18783 10.2083 4.18783 12.4999L4.16699 37.4999C4.16699 39.7916 6.04199 41.6666 8.33366 41.6666H25.167C25.0628 40.9791 25.0003 40.2916 25.0003 39.5833C25.0003 38.8749 25.0628 38.1874 25.167 37.4999ZM41.667 12.4999L25.0003 22.9166L8.33366 12.4999H41.667ZM36.1253 45.8333L28.7503 38.4582L31.6878 35.5208L36.1045 39.9374L44.9378 31.1041L47.917 34.0416L36.1253 45.8333Z" fill="black" fill-opacity="0.63"/>
</svg>
