<svg width="33" height="44" viewBox="0 0 33 44" fill="none" xmlns="http://www.w3.org/2000/svg">
<path d="M11.9163 38H21.083V36H11.9163V38ZM5.04135 44C3.78093 44 2.70155 43.608 1.80322 42.824C0.904886 42.04 0.456484 41.0987 0.458012 40V4C0.458012 2.9 0.907178 1.958 1.80551 1.174C2.70384 0.390003 3.78246 -0.00132994 5.04135 3.39559e-06H27.958C29.2184 3.39559e-06 30.2978 0.392003 31.1961 1.176C32.0945 1.96 32.5429 2.90134 32.5413 4V40C32.5413 41.1 32.0922 42.042 31.1938 42.826C30.2955 43.61 29.2169 44.0013 27.958 44H5.04135ZM5.04135 34V40H27.958V34H5.04135ZM5.04135 30H27.958V10H5.04135V30ZM5.04135 6H27.958V4H5.04135V6Z" fill="black"/>
</svg>
