<svg width="26" height="26" viewBox="0 0 26 26" fill="none" xmlns="http://www.w3.org/2000/svg">
<path d="M9.33333 24H2.66667C1.18667 24 0 22.8133 0 21.3333V2.66667C0 1.18667 1.18667 0 2.66667 0H21.3333C22.8133 0 24 1.18667 24 2.66667V9.77333C23.6 9.61333 23.16 9.52 22.72 9.52C22.2267 9.52 21.76 9.62667 21.3333 9.82667V2.66667H2.66667V21.3333H9.48L9.33333 21.48V24ZM5.33333 8H18.6667V5.33333H5.33333V8ZM5.33333 18.6667H12.1467L14.6667 16.16V16H5.33333V18.6667ZM5.33333 13.3333H17.4933L18.6667 12.16V10.6667H5.33333V13.3333ZM24.9333 14.1067L23.2267 12.4C23.0896 12.2656 22.9053 12.1904 22.7133 12.1904C22.5214 12.1904 22.3371 12.2656 22.2 12.4L20.8667 13.7333L23.6 16.4667L24.9333 15.1333C25.0677 14.9963 25.143 14.812 25.143 14.62C25.143 14.428 25.0677 14.2437 24.9333 14.1067ZM12 25.3333H14.7467L22.8133 17.24L20.08 14.5067L12 22.5867V25.3333Z" fill="black"/>
</svg>
