<svg width="32" height="32" viewBox="0 0 32 32" fill="none" xmlns="http://www.w3.org/2000/svg">
<g opacity="0.55">
<path d="M16.0003 29.3333C8.65366 29.3333 2.66699 23.3466 2.66699 16C2.66699 8.65329 8.65366 2.66663 16.0003 2.66663C23.347 2.66663 29.3337 8.05329 29.3337 14.6666C29.3337 19.08 25.747 22.6666 21.3337 22.6666H18.9737C18.6003 22.6666 18.307 22.96 18.307 23.3333C18.307 23.4933 18.3737 23.64 18.4803 23.7733C19.027 24.4 19.3337 25.1866 19.3337 26C19.3337 26.884 18.9825 27.7319 18.3573 28.357C17.7322 28.9821 16.8844 29.3333 16.0003 29.3333ZM16.0003 5.33329C10.1203 5.33329 5.33366 10.12 5.33366 16C5.33366 21.88 10.1203 26.6666 16.0003 26.6666C16.3737 26.6666 16.667 26.3733 16.667 26C16.6628 25.827 16.5966 25.6614 16.4803 25.5333C15.9337 24.92 15.6403 24.1333 15.6403 23.3333C15.6403 22.4492 15.9915 21.6014 16.6166 20.9763C17.2418 20.3511 18.0896 20 18.9737 20H21.3337C24.2803 20 26.667 17.6133 26.667 14.6666C26.667 9.51996 21.8803 5.33329 16.0003 5.33329Z" fill="black"/>
<path d="M8.66699 17.3334C9.77156 17.3334 10.667 16.4379 10.667 15.3334C10.667 14.2288 9.77156 13.3334 8.66699 13.3334C7.56242 13.3334 6.66699 14.2288 6.66699 15.3334C6.66699 16.4379 7.56242 17.3334 8.66699 17.3334Z" fill="black"/>
<path d="M12.667 12C13.7716 12 14.667 11.1046 14.667 10C14.667 8.89543 13.7716 8 12.667 8C11.5624 8 10.667 8.89543 10.667 10C10.667 11.1046 11.5624 12 12.667 12Z" fill="black"/>
<path d="M19.333 12C20.4376 12 21.333 11.1046 21.333 10C21.333 8.89543 20.4376 8 19.333 8C18.2284 8 17.333 8.89543 17.333 10C17.333 11.1046 18.2284 12 19.333 12Z" fill="black"/>
<path d="M23.333 17.3334C24.4376 17.3334 25.333 16.4379 25.333 15.3334C25.333 14.2288 24.4376 13.3334 23.333 13.3334C22.2284 13.3334 21.333 14.2288 21.333 15.3334C21.333 16.4379 22.2284 17.3334 23.333 17.3334Z" fill="black"/>
</g>
</svg>
