<svg width="48" height="48" viewBox="0 0 48 48" fill="none" xmlns="http://www.w3.org/2000/svg">
<g opacity="0.75">
<path d="M24 44C12.98 44 4 35.02 4 24C4 12.98 12.98 4 24 4C35.02 4 44 12.08 44 22C44 28.62 38.62 34 32 34H28.46C27.9 34 27.46 34.44 27.46 35C27.46 35.24 27.56 35.46 27.72 35.66C28.54 36.6 29 37.78 29 39C29 40.3261 28.4732 41.5979 27.5355 42.5355C26.5979 43.4732 25.3261 44 24 44ZM24 8C15.18 8 8 15.18 8 24C8 32.82 15.18 40 24 40C24.56 40 25 39.56 25 39C24.9938 38.7406 24.8944 38.4921 24.72 38.3C23.9 37.38 23.46 36.2 23.46 35C23.46 33.6739 23.9868 32.4021 24.9245 31.4645C25.8621 30.5268 27.1339 30 28.46 30H32C36.42 30 40 26.42 40 22C40 14.28 32.82 8 24 8Z" fill="black"/>
<path d="M13 26C14.6569 26 16 24.6569 16 23C16 21.3431 14.6569 20 13 20C11.3431 20 10 21.3431 10 23C10 24.6569 11.3431 26 13 26Z" fill="black"/>
<path d="M19 18C20.6569 18 22 16.6569 22 15C22 13.3431 20.6569 12 19 12C17.3431 12 16 13.3431 16 15C16 16.6569 17.3431 18 19 18Z" fill="black"/>
<path d="M29 18C30.6569 18 32 16.6569 32 15C32 13.3431 30.6569 12 29 12C27.3431 12 26 13.3431 26 15C26 16.6569 27.3431 18 29 18Z" fill="black"/>
<path d="M35 26C36.6569 26 38 24.6569 38 23C38 21.3431 36.6569 20 35 20C33.3431 20 32 21.3431 32 23C32 24.6569 33.3431 26 35 26Z" fill="black"/>
</g>
</svg>
