<svg width="30" height="36" viewBox="0 0 30 36" fill="none" xmlns="http://www.w3.org/2000/svg">
<path d="M9.41154 31.9733H12.0681L12.9896 26.1908C13.1686 25.0611 13.7448 24.0323 14.6145 23.2895C15.4842 22.5466 16.5904 22.1384 17.7341 22.1382H18.5906C23.1758 22.1382 25.5446 20.4545 26.3839 16.1382C26.7402 14.3123 26.5843 13.175 26.091 12.5379C24.0236 17.7688 19.5994 19.6632 14.1663 19.6632H12.6522C11.9945 19.6632 11.2922 20.0212 11.1929 20.6566L9.41154 31.9733ZM0.943342 31.4697C0.806983 31.4696 0.672257 31.44 0.548437 31.3829C0.424618 31.3258 0.314646 31.2425 0.226093 31.1388C0.13754 31.0351 0.0725078 30.9135 0.0354739 30.7822C-0.00156004 30.651 -0.00971653 30.5133 0.0115664 30.3786L4.58994 1.32915C4.64873 0.958208 4.83807 0.620457 5.12384 0.376762C5.40962 0.133067 5.77304 -0.00054507 6.14861 1.67131e-06H17.1518C20.9405 1.67131e-06 23.9037 0.79989 25.5429 2.66858C27.0331 4.36427 27.4664 6.2381 27.0348 8.99232C27.6514 9.31947 28.1789 9.72027 28.6037 10.2016C30.0048 11.7996 30.2788 14.0725 29.7479 16.7959C28.4804 23.3132 24.1367 25.5656 18.5906 25.5656H17.7341C17.4062 25.566 17.0891 25.6834 16.8399 25.8965C16.5906 26.1097 16.4255 26.4047 16.3742 26.7286L15.1718 34.2359C15.1208 34.56 14.9557 34.8552 14.7064 35.0684C14.4571 35.2816 14.1398 35.3988 13.8118 35.3989H6.37127C6.25179 35.3989 6.13373 35.373 6.02522 35.3229C5.9167 35.2729 5.82031 35.2 5.74267 35.1092C5.66504 35.0183 5.60799 34.9118 5.57547 34.7968C5.54294 34.6818 5.53571 34.5612 5.55426 34.4431L6.02357 31.4697H0.941629H0.943342ZM12.6522 16.2358H14.1663C19.6302 16.2358 22.5506 14.1599 23.5577 8.99232C23.592 8.81932 23.6211 8.64462 23.6485 8.46306C23.9328 6.64747 23.7342 5.80304 22.9668 4.9295C22.1703 4.02171 20.2212 3.42565 17.1501 3.42565H7.72954L3.84658 28.044H6.52029L7.77065 20.1171L7.78264 20.1188C8.03419 19.0156 8.65303 18.0305 9.53776 17.325C10.4225 16.6195 11.5206 16.2355 12.6522 16.2358Z" fill="black"/>
</svg>
