<svg width="30" height="30" viewBox="0 0 30 30" fill="none" xmlns="http://www.w3.org/2000/svg">
<path d="M12 12.75H13.5C13.925 12.75 14.2815 12.606 14.5695 12.318C14.8575 12.03 15.001 11.674 15 11.25V9.75C15 9.325 14.856 8.9685 14.568 8.6805C14.28 8.3925 13.924 8.249 13.5 8.25H11.25C11.05 8.25 10.875 8.325 10.725 8.475C10.575 8.625 10.5 8.8 10.5 9V15C10.5 15.2 10.575 15.375 10.725 15.525C10.875 15.675 11.05 15.75 11.25 15.75C11.45 15.75 11.625 15.675 11.775 15.525C11.925 15.375 12 15.2 12 15V12.75ZM12 11.25V9.75H13.5V11.25H12ZM19.5 15.75C19.925 15.75 20.2815 15.606 20.5695 15.318C20.8575 15.03 21.001 14.674 21 14.25V9.75C21 9.325 20.856 8.9685 20.568 8.6805C20.28 8.3925 19.924 8.249 19.5 8.25H17.25C17.05 8.25 16.875 8.325 16.725 8.475C16.575 8.625 16.5 8.8 16.5 9V15C16.5 15.2 16.575 15.375 16.725 15.525C16.875 15.675 17.05 15.75 17.25 15.75H19.5ZM18 14.25V9.75H19.5V14.25H18ZM24 12.75H24.75C24.95 12.75 25.125 12.675 25.275 12.525C25.425 12.375 25.5 12.2 25.5 12C25.5 11.8 25.425 11.625 25.275 11.475C25.125 11.325 24.95 11.25 24.75 11.25H24V9.75H24.75C24.95 9.75 25.125 9.675 25.275 9.525C25.425 9.375 25.5 9.2 25.5 9C25.5 8.8 25.425 8.625 25.275 8.475C25.125 8.325 24.95 8.25 24.75 8.25H23.25C23.05 8.25 22.875 8.325 22.725 8.475C22.575 8.625 22.5 8.8 22.5 9V15C22.5 15.2 22.575 15.375 22.725 15.525C22.875 15.675 23.05 15.75 23.25 15.75C23.45 15.75 23.625 15.675 23.775 15.525C23.925 15.375 24 15.2 24 15V12.75ZM9 24C8.175 24 7.4685 23.706 6.8805 23.118C6.2925 22.53 5.999 21.824 6 21V3C6 2.175 6.294 1.4685 6.882 0.880502C7.47 0.292502 8.176 -0.000997453 9 2.54669e-06H27C27.825 2.54669e-06 28.5315 0.294003 29.1195 0.882002C29.7075 1.47 30.001 2.176 30 3V21C30 21.825 29.706 22.5315 29.118 23.1195C28.53 23.7075 27.824 24.001 27 24H9ZM9 21H27V3H9V21ZM3 30C2.175 30 1.4685 29.706 0.880502 29.118C0.292502 28.53 -0.000997453 27.824 2.54669e-06 27V7.5C2.54669e-06 7.075 0.144003 6.7185 0.432003 6.4305C0.720003 6.1425 1.076 5.999 1.5 6C1.925 6 2.2815 6.144 2.5695 6.432C2.8575 6.72 3.001 7.076 3 7.5V27H22.5C22.925 27 23.2815 27.144 23.5695 27.432C23.8575 27.72 24.001 28.076 24 28.5C24 28.925 23.856 29.2815 23.568 29.5695C23.28 29.8575 22.924 30.001 22.5 30H3Z" fill="black"/>
</svg>
