<svg width="34" height="35" viewBox="0 0 34 35" fill="none" xmlns="http://www.w3.org/2000/svg">
<path d="M6.33333 17.8229H11.6667M22.3333 17.8229V23.2683M17 28.7136H22.3333M17 17.8429L17.0178 17.8229M27.6667 17.8429L27.6844 17.8229M17 23.2882L17.0178 23.2683M27.6667 23.2882L27.6844 23.2683M27.6667 28.7336L27.6844 28.7136M17 12.3975L17.0178 12.3775M17 6.95214L17.0178 6.93218M27.6667 1.48682H33V6.93218M27.6667 34.159H33V28.7136M6.33333 1.48682H1V6.93218M6.33333 34.159H1V28.7136M11.6667 8.02125V11.2885C11.6667 11.5773 11.5543 11.8543 11.3542 12.0586C11.1542 12.2628 10.8829 12.3775 10.6 12.3775H7.4C7.1171 12.3775 6.84579 12.2628 6.64575 12.0586C6.44571 11.8543 6.33333 11.5773 6.33333 11.2885V8.02125C6.33333 7.73241 6.44571 7.4554 6.64575 7.25116C6.84579 7.04692 7.1171 6.93218 7.4 6.93218H10.6C10.8829 6.93218 11.1542 7.04692 11.3542 7.25116C11.5543 7.4554 11.6667 7.73241 11.6667 8.02125ZM11.6667 24.3573V27.6246C11.6667 27.9134 11.5543 28.1904 11.3542 28.3946C11.1542 28.5989 10.8829 28.7136 10.6 28.7136H7.4C7.1171 28.7136 6.84579 28.5989 6.64575 28.3946C6.44571 28.1904 6.33333 27.9134 6.33333 27.6246V24.3573C6.33333 24.0685 6.44571 23.7915 6.64575 23.5872C6.84579 23.383 7.1171 23.2683 7.4 23.2683H10.6C10.8829 23.2683 11.1542 23.383 11.3542 23.5872C11.5543 23.7915 11.6667 24.0685 11.6667 24.3573ZM27.6667 8.02125V11.2885C27.6667 11.5773 27.5543 11.8543 27.3542 12.0586C27.1542 12.2628 26.8829 12.3775 26.6 12.3775H23.4C23.1171 12.3775 22.8458 12.2628 22.6458 12.0586C22.4457 11.8543 22.3333 11.5773 22.3333 11.2885V8.02125C22.3333 7.73241 22.4457 7.4554 22.6458 7.25116C22.8458 7.04692 23.1171 6.93218 23.4 6.93218H26.6C26.8829 6.93218 27.1542 7.04692 27.3542 7.25116C27.5543 7.4554 27.6667 7.73241 27.6667 8.02125Z" stroke="black" stroke-opacity="0.55" stroke-width="1.5" stroke-linecap="round" stroke-linejoin="round"/>
</svg>
