<svg width="30" height="34" viewBox="0 0 30 34" fill="none" xmlns="http://www.w3.org/2000/svg">
<path d="M25 33.3333C23.6111 33.3333 22.4306 32.8472 21.4583 31.875C20.4861 30.9028 20 29.7222 20 28.3333C20 28.1389 20.0139 27.9372 20.0417 27.7283C20.0694 27.5194 20.1111 27.3322 20.1667 27.1667L8.41667 20.3333C7.94444 20.75 7.41667 21.0767 6.83333 21.3133C6.25 21.55 5.63889 21.6678 5 21.6667C3.61111 21.6667 2.43056 21.1806 1.45833 20.2083C0.486111 19.2361 0 18.0556 0 16.6667C0 15.2778 0.486111 14.0972 1.45833 13.125C2.43056 12.1528 3.61111 11.6667 5 11.6667C5.63889 11.6667 6.25 11.785 6.83333 12.0217C7.41667 12.2583 7.94444 12.5844 8.41667 13L20.1667 6.16667C20.1111 6 20.0694 5.81278 20.0417 5.605C20.0139 5.39722 20 5.19556 20 5C20 3.61111 20.4861 2.43056 21.4583 1.45833C22.4306 0.486111 23.6111 0 25 0C26.3889 0 27.5694 0.486111 28.5417 1.45833C29.5139 2.43056 30 3.61111 30 5C30 6.38889 29.5139 7.56944 28.5417 8.54167C27.5694 9.51389 26.3889 10 25 10C24.3611 10 23.75 9.88222 23.1667 9.64667C22.5833 9.41111 22.0556 9.08444 21.5833 8.66667L9.83333 15.5C9.88889 15.6667 9.93056 15.8544 9.95833 16.0633C9.98611 16.2722 10 16.4733 10 16.6667C10 16.8611 9.98611 17.0628 9.95833 17.2717C9.93056 17.4806 9.88889 17.6678 9.83333 17.8333L21.5833 24.6667C22.0556 24.25 22.5833 23.9239 23.1667 23.6883C23.75 23.4528 24.3611 23.3344 25 23.3333C26.3889 23.3333 27.5694 23.8194 28.5417 24.7917C29.5139 25.7639 30 26.9444 30 28.3333C30 29.7222 29.5139 30.9028 28.5417 31.875C27.5694 32.8472 26.3889 33.3333 25 33.3333Z" fill="black"/>
</svg>
