<svg width="25" height="23" viewBox="0 0 25 23" fill="none" xmlns="http://www.w3.org/2000/svg">
<path d="M2.25033 22.5C1.7663 22.5 1.36029 22.356 1.03229 22.068C0.70429 21.78 0.540859 21.424 0.541998 21C0.541998 20.575 0.705998 20.2185 1.034 19.9305C1.362 19.6425 1.76744 19.499 2.25033 19.5H22.7503C23.2344 19.5 23.6404 19.644 23.9684 19.932C24.2964 20.22 24.4598 20.576 24.4587 21C24.4587 21.425 24.2947 21.7815 23.9667 22.0695C23.6387 22.3575 23.2332 22.501 22.7503 22.5H2.25033ZM9.68158 9.9H15.3191L12.5857 3.075H12.4149L9.68158 9.9ZM5.96596 16.5C5.33957 16.5 4.89085 16.3185 4.61979 15.9555C4.34873 15.5925 4.32766 15.1615 4.55658 14.6625L10.1941 1.3875C10.3649 1.0125 10.6707 0.6875 11.1115 0.4125C11.5522 0.1375 12.0152 0 12.5003 0C12.9844 0 13.4399 0.1375 13.867 0.4125C14.2941 0.6875 14.593 1.0125 14.7639 1.3875L20.4014 14.6625C20.6292 15.1625 20.6007 15.594 20.316 15.957C20.0312 16.32 19.5757 16.501 18.9493 16.5C18.6646 16.5 18.3941 16.4185 18.1378 16.2555C17.8816 16.0925 17.7107 15.899 17.6253 15.675L16.3441 12.3H8.742L7.33262 15.675C7.24721 15.9 7.07637 16.094 6.82012 16.257C6.56387 16.42 6.27915 16.501 5.96596 16.5Z" fill="black"/>
</svg>
