<svg width="30" height="24" viewBox="0 0 30 24" fill="none" xmlns="http://www.w3.org/2000/svg">
<path d="M10.5 18H13.5V13.5H18V10.5H13.5V6H10.5V10.5H6V13.5H10.5V18ZM3 24C2.175 24 1.4685 23.706 0.880502 23.118C0.292502 22.53 -0.000997453 21.824 2.54669e-06 21V3C2.54669e-06 2.175 0.294003 1.4685 0.882003 0.880502C1.47 0.292502 2.176 -0.000997453 3 2.54669e-06H21C21.825 2.54669e-06 22.5315 0.294002 23.1195 0.882002C23.7075 1.47 24.001 2.176 24 3V9.75L30 3.75V20.25L24 14.25V21C24 21.825 23.706 22.5315 23.118 23.1195C22.53 23.7075 21.824 24.001 21 24H3ZM3 21H21V3H3V21Z" fill="black"/>
</svg>
