<svg width="30" height="31" viewBox="0 0 30 31" fill="none" xmlns="http://www.w3.org/2000/svg">
<path d="M25.6281 4.38702C24.246 2.99093 22.5998 1.88401 20.7854 1.13082C18.971 0.377629 17.0248 -0.00675394 15.0603 8.98035e-05C6.82914 8.98035e-05 0.120603 6.70863 0.120603 14.9398C0.120603 17.578 0.81407 20.1408 2.11055 22.4021L0 30.1508L7.91457 28.0704C10.1005 29.2614 12.5578 29.8946 15.0603 29.8946C23.2915 29.8946 30 23.186 30 14.9549C30 10.9599 28.4472 7.20612 25.6281 4.38702ZM15.0603 27.3619C12.8291 27.3619 10.6432 26.7589 8.72864 25.6282L8.27638 25.3569L3.57286 26.5931L4.82412 22.0101L4.52261 21.5428C3.28303 19.5634 2.62483 17.2753 2.62312 14.9398C2.62312 8.09557 8.201 2.51768 15.0452 2.51768C18.3618 2.51768 21.4824 3.81416 23.8191 6.16592C24.9761 7.31762 25.893 8.68752 26.5167 10.1962C27.1403 11.7049 27.4583 13.3224 27.4523 14.9549C27.4824 21.7991 21.9045 27.3619 15.0603 27.3619ZM21.8744 18.0755C21.4975 17.8946 19.6583 16.99 19.3266 16.8544C18.9799 16.7338 18.7387 16.6735 18.4824 17.0353C18.2261 17.4121 17.5176 18.2564 17.3065 18.4976C17.0955 18.7539 16.8693 18.784 16.4925 18.588C16.1156 18.4071 14.9095 18.0001 13.4925 16.7338C12.3769 15.7388 11.6382 14.5177 11.4121 14.1408C11.201 13.7639 11.3819 13.5679 11.5779 13.3719C11.7437 13.2061 11.9548 12.9348 12.1357 12.7237C12.3166 12.5127 12.392 12.3468 12.5126 12.1056C12.6332 11.8493 12.5729 11.6383 12.4824 11.4574C12.392 11.2765 11.6382 9.43728 11.3367 8.68351C11.0352 7.95989 10.7186 8.05034 10.4925 8.03526H9.76884C9.51256 8.03526 9.1206 8.12572 8.77387 8.5026C8.44221 8.87949 7.47739 9.78401 7.47739 11.6232C7.47739 13.4624 8.8191 15.2413 9 15.4825C9.1809 15.7388 11.6382 19.5076 15.3769 21.1207C16.2663 21.5127 16.9598 21.7388 17.5025 21.9046C18.392 22.191 19.206 22.1458 19.8543 22.0554C20.5779 21.9498 22.0703 21.1508 22.3719 20.2765C22.6884 19.4021 22.6884 18.6634 22.5829 18.4976C22.4774 18.3317 22.2513 18.2564 21.8744 18.0755Z" fill="black"/>
</svg>
