<svg width="30" height="22" viewBox="0 0 30 22" fill="none" xmlns="http://www.w3.org/2000/svg">
<path d="M15 21.25L0 6.25C2 4.20833 4.29167 2.65625 6.875 1.59375C9.45833 0.53125 12.1667 0 15 0C17.8542 0 20.5729 0.53125 23.1562 1.59375C25.7396 2.65625 28.0208 4.20833 30 6.25L15 21.25ZM5.4375 8.125C6.79167 7.14583 8.27625 6.38 9.89125 5.8275C11.5063 5.275 13.2092 4.99917 15 5C16.7917 5 18.495 5.27625 20.11 5.82875C21.725 6.38125 23.2092 7.14667 24.5625 8.125L26.375 6.3125C24.75 5.08333 22.9737 4.14042 21.0462 3.48375C19.1187 2.82708 17.1033 2.49917 15 2.5C12.8958 2.5 10.88 2.82833 8.9525 3.485C7.025 4.14167 5.24917 5.08417 3.625 6.3125L5.4375 8.125Z" fill="black"/>
</svg>
