<svg width="11" height="11" viewBox="0 0 11 11" fill="none" xmlns="http://www.w3.org/2000/svg">
<g clip-path="url(#clip0_2_2595)">
<path d="M8.10975 5.49995C8.10848 5.08909 8.06444 4.67947 7.97836 4.27773H9.07836C9.02171 4.11015 8.9533 3.94678 8.87364 3.78884H7.85003C7.65761 3.14597 7.35915 2.53975 6.96697 1.99523C6.71641 1.88987 6.45516 1.81201 6.18781 1.763C6.72508 2.34027 7.13062 3.0273 7.37642 3.77662H5.72947V1.71106H5.27114V3.77967H3.6242C3.8705 3.029 4.27712 2.34087 4.81586 1.763C4.54965 1.81119 4.28944 1.88803 4.03975 1.99217C3.64603 2.53442 3.34552 3.13854 3.15059 3.77967H2.12086C2.03976 3.9405 1.97032 4.10694 1.91309 4.27773H3.02225C2.93617 4.67947 2.89214 5.08909 2.89086 5.49995C2.89171 5.94935 2.94295 6.39725 3.04364 6.83523H1.96197C2.02519 7.0065 2.10076 7.17296 2.18809 7.33328H3.17503C3.36209 7.91866 3.63942 8.47124 3.99697 8.97106C4.25302 9.08088 4.5205 9.16184 4.79447 9.21245C4.29578 8.66849 3.91226 8.02928 3.66697 7.33328H5.2742V9.2705H5.73253V7.33328H7.33364C7.08752 8.02957 6.70294 8.66881 6.20309 9.21245C6.47834 9.1601 6.74687 9.07708 7.00364 8.96495C7.36064 8.46701 7.63794 7.91653 7.82559 7.33328H8.80336C8.89029 7.17592 8.96586 7.01254 9.02947 6.84439H7.94475C8.05024 6.40389 8.10559 5.95288 8.10975 5.49995ZM5.27114 6.83523H3.51725C3.30213 5.99429 3.2927 5.11391 3.48975 4.26856H5.27114V6.83523ZM7.48336 6.83523H5.72947V4.27773H7.51086C7.59864 4.67915 7.64168 5.08905 7.6392 5.49995C7.64168 5.94972 7.58935 6.39812 7.48336 6.83523Z" fill="black"/>
<path d="M5.50022 0.611084C4.53329 0.611084 3.58807 0.897812 2.7841 1.43501C1.98012 1.97221 1.3535 2.73575 0.983475 3.62908C0.613446 4.5224 0.51663 5.5054 0.705269 6.45375C0.893908 7.4021 1.35953 8.27322 2.04325 8.95694C2.72698 9.64066 3.59809 10.1063 4.54644 10.2949C5.4948 10.4836 6.47779 10.3867 7.37112 10.0167C8.26444 9.64669 9.02798 9.02007 9.56518 8.21609C10.1024 7.41212 10.3891 6.4669 10.3891 5.49997C10.3891 4.20336 9.87403 2.95985 8.95719 2.04301C8.04034 1.12616 6.79683 0.611084 5.50022 0.611084ZM5.50022 9.77775C4.65416 9.77775 3.82709 9.52686 3.12361 9.05682C2.42014 8.58677 1.87184 7.91867 1.54807 7.13701C1.22429 6.35535 1.13958 5.49523 1.30464 4.66542C1.4697 3.83561 1.87712 3.07339 2.47537 2.47513C3.07363 1.87687 3.83586 1.46945 4.66567 1.30439C5.49547 1.13933 6.35559 1.22405 7.13725 1.54782C7.91892 1.8716 8.58701 2.41989 9.05706 3.12337C9.52711 3.82684 9.778 4.65391 9.778 5.49997C9.778 6.63451 9.3273 7.72258 8.52507 8.52482C7.72283 9.32706 6.63476 9.77775 5.50022 9.77775Z" fill="black"/>
</g>
<defs>
<clipPath id="clip0_2_2595">
<rect width="11" height="11" fill="white"/>
</clipPath>
</defs>
</svg>
