<svg width="26" height="26" viewBox="0 0 16 26" fill="none" xmlns="http://www.w3.org/2000/svg">
<path fill-rule="evenodd" clip-rule="evenodd" d="M0.75 23.4167C0.750088 23.8287 0.872321 24.2314 1.10125 24.5739C1.33017 24.9164 1.65551 25.1834 2.03614 25.341C2.41676 25.4987 2.83558 25.5399 3.23965 25.4596C3.64372 25.3792 4.01489 25.1809 4.30625 24.8896L14.7229 14.4729C15.1135 14.0822 15.3329 13.5524 15.3329 13C15.3329 12.4476 15.1135 11.9178 14.7229 11.5271L4.30625 1.11043C4.01489 0.819162 3.64372 0.620817 3.23965 0.540468C2.83558 0.460119 2.41676 0.501377 2.03614 0.659021C1.65551 0.816668 1.33017 1.08363 1.10125 1.42615C0.87232 1.76867 0.750087 2.17137 0.749999 2.58335L0.75 23.4167Z" fill="black"/>
</svg>
